<svg id="Слой_1" data-name="Слой 1" xmlns="http://www.w3.org/2000/svg" viewBox="0 0 135 201.72"><defs><style>.cls-1{fill:none;stroke:#999;stroke-miterlimit:10}.cls-2{font-size:14.29px;font-family:MyriadPro-Regular,Myriad Pro}.cls-3{letter-spacing:.01em}.cls-4{letter-spacing:0}.cls-5{letter-spacing:-.01em}.cls-6{letter-spacing:0}.cls-7,.cls-8{letter-spacing:-.01em}.cls-9{letter-spacing:0}</style></defs><title>balloon</title><path class="cls-1" d="M123.6 200l-8.82-22.88a5 5 0 0 0-4.67-3.2H83.4c-7.4 0-13.4-7.79-13.4-17.39V17.39C70 7.79 76 0 83.4 0h107.2C198 0 204 7.79 204 17.39v139.13c0 9.6-6 17.39-13.4 17.39h-50.55a5 5 0 0 0-4.45 2.72z" transform="translate(-69.5 .5)"/><text class="cls-2" transform="matrix(.93 0 0 1 12.58 34.32)"><tspan class="cls-3">I</tspan><tspan class="cls-4" x="3.54" y="0">v</tspan><tspan x="10.36" y="0">an</tspan><tspan class="cls-5" x="25.17" y="0">o</tspan><tspan x="32.91" y="0">v </tspan><tspan class="cls-3" x="42.81" y="0">I</tspan><tspan class="cls-4" x="46.36" y="0">v</tspan><tspan class="cls-6" x="53.17" y="0">an</tspan></text><text class="cls-2" transform="matrix(.93 0 0 1 10.46 71.51)"><tspan class="cls-4">h</tspan><tspan class="cls-6" x="7.87" y="0">ttp://googl</tspan><tspan class="cls-7" x="73.24" y="0">e</tspan><tspan x="80.23" y="0">.</tspan><tspan class="cls-8" x="83.18" y="0">c</tspan><tspan class="cls-9" x="89.5" y="0">om.ua</tspan></text></svg>