<svg xmlns="http://www.w3.org/2000/svg" xmlns:xlink="http://www.w3.org/1999/xlink" viewBox="-237 363.3 119.6 115.6" width="119.6" height="115.6"><style>.st0{clip-path:url(#SVGID_2_)}.st1{clip-path:url(#SVGID_4_);fill:#94d6e2}.st2{clip-path:url(#SVGID_6_)}.st3{clip-path:url(#SVGID_8_);fill:#73cddd}.st4{opacity:.9;enable-background:new}.st5{clip-path:url(#SVGID_10_)}.st6{clip-path:url(#SVGID_12_);fill:#3cafbb}.st7{clip-path:url(#SVGID_14_)}.st8{clip-path:url(#SVGID_16_)}.st9{clip-path:url(#SVGID_18_);fill:#94d6e2}.st10{clip-path:url(#SVGID_20_)}.st11{clip-path:url(#SVGID_22_)}.st12{clip-path:url(#SVGID_24_);fill:#73cddd}.st13{clip-path:url(#SVGID_26_)}.st14{clip-path:url(#SVGID_28_)}.st15{clip-path:url(#SVGID_30_);fill:#3cafbb}</style><defs><path id="SVGID_1_" d="M-195.5 410.5l.3-.2 36.2-20.8-36.5-21.2-36.5 21z"/></defs><clipPath id="SVGID_2_"><use xlink:href="#SVGID_1_" overflow="visible"/></clipPath><g class="st0"><defs><path id="SVGID_3_" d="M-232 368h74v85h-74z"/></defs><clipPath id="SVGID_4_"><use xlink:href="#SVGID_3_" overflow="visible"/></clipPath><path class="st1" d="M-237 363.3h83v52.2h-83z"/></g><defs><path id="SVGID_5_" d="M-195.5 452.7v-42.2l-36.5-21.2v42.1z"/></defs><clipPath id="SVGID_6_"><use xlink:href="#SVGID_5_" overflow="visible"/></clipPath><g class="st2"><defs><path id="SVGID_7_" d="M-232 368h74v85h-74z"/></defs><clipPath id="SVGID_8_"><use xlink:href="#SVGID_7_" overflow="visible"/></clipPath><path class="st3" d="M-237 384.3h46.5v73.4H-237z"/></g><g class="st4"><defs><path id="SVGID_9_" d="M-159 389.5l-36.2 20.8-.3.2v42.2l36.5-21v-42.2z"/></defs><clipPath id="SVGID_10_"><use xlink:href="#SVGID_9_" overflow="visible"/></clipPath><g class="st5"><defs><path id="SVGID_11_" d="M-232 368h74v85h-74z"/></defs><clipPath id="SVGID_12_"><use xlink:href="#SVGID_11_" overflow="visible"/></clipPath><path class="st6" d="M-200.5 384.5h46.5v73.1h-46.5z"/></g></g><defs><path id="SVGID_13_" d="M-196 389h74v85h-74z"/></defs><clipPath id="SVGID_14_"><use xlink:href="#SVGID_13_" overflow="visible"/></clipPath><g class="st7"><defs><path id="SVGID_15_" d="M-159 431.7l.3-.2 36.2-20.8-36.5-21.2-36.5 21z"/></defs><clipPath id="SVGID_16_"><use xlink:href="#SVGID_15_" overflow="visible"/></clipPath><g class="st8"><defs><path id="SVGID_17_" d="M-196 389h74v85h-74z"/></defs><clipPath id="SVGID_18_"><use xlink:href="#SVGID_17_" overflow="visible"/></clipPath><path class="st9" d="M-200.5 384.5h83v52.2h-83z"/></g><defs><path id="SVGID_19_" d="M-196 389h74v85h-74z"/></defs><clipPath id="SVGID_20_"><use xlink:href="#SVGID_19_" overflow="visible"/></clipPath><g class="st10"><defs><path id="SVGID_21_" d="M-159 473.9v-42.2l-36.5-21.2v42.2z"/></defs><clipPath id="SVGID_22_"><use xlink:href="#SVGID_21_" overflow="visible"/></clipPath><g class="st11"><defs><path id="SVGID_23_" d="M-196 389h74v85h-74z"/></defs><clipPath id="SVGID_24_"><use xlink:href="#SVGID_23_" overflow="visible"/></clipPath><path class="st12" d="M-200.5 405.5h46.5v73.4h-46.5z"/></g><g class="st4"><defs><path id="SVGID_25_" class="st4" d="M-196 389h74v85h-74z"/></defs><clipPath id="SVGID_26_"><use xlink:href="#SVGID_25_" overflow="visible"/></clipPath><g class="st13"><defs><path id="SVGID_27_" d="M-122.4 410.7l-36.3 20.8-.3.2v42.2l36.6-21v-42.2z"/></defs><clipPath id="SVGID_28_"><use xlink:href="#SVGID_27_" overflow="visible"/></clipPath><g class="st14"><defs><path id="SVGID_29_" d="M-196 389h74v85h-74z"/></defs><clipPath id="SVGID_30_"><use xlink:href="#SVGID_29_" overflow="visible"/></clipPath><path class="st15" d="M-164 405.7h46.5v73.1H-164z"/></g></g></g></g></g></svg>