<?xml version="1.0" encoding="utf-8"?>
<!-- Generator: Adobe Illustrator 19.1.1, SVG Export Plug-In . SVG Version: 6.00 Build 0)  -->
<svg version="1.1" id="Слой_1" xmlns="http://www.w3.org/2000/svg" xmlns:xlink="http://www.w3.org/1999/xlink" x="0px" y="0px"
	 viewBox="0 0 26 25" style="enable-background:new 0 0 26 25;" xml:space="preserve">
<style type="text/css">
	.st0{fill-rule:evenodd;clip-rule:evenodd;fill:#FFD006;}
</style>
<path class="st0" d="M13,0C5.8,0,0,5.7,0,12.8C0,18.5,3.7,23.3,8.9,25c0.7,0.1,0.9-0.3,0.9-0.6c0-0.3,0-1.1,0-2.2
	c-3.6,0.8-4.4-1.7-4.4-1.7c-0.6-1.5-1.4-1.9-1.4-1.9C2.8,17.8,4,17.8,4,17.8c1.3,0.1,2,1.3,2,1.3c1.2,2,3,1.4,3.8,1.1
	c0.1-0.8,0.5-1.4,0.8-1.7c-2.9-0.3-5.9-1.4-5.9-6.3c0-1.4,0.5-2.5,1.3-3.4C5.9,8.4,5.5,7.1,6.2,5.3c0,0,1.1-0.3,3.6,1.3
	c1-0.3,2.1-0.4,3.3-0.4c1.1,0,2.2,0.1,3.3,0.4c2.5-1.7,3.6-1.3,3.6-1.3c0.7,1.8,0.3,3.1,0.1,3.4c0.8,0.9,1.3,2,1.3,3.4
	c0,4.9-3,6-5.9,6.3c0.5,0.4,0.9,1.2,0.9,2.4c0,1.7,0,3.1,0,3.5c0,0.3,0.2,0.7,0.9,0.6c5.2-1.7,8.9-6.5,8.9-12.2C26,5.7,20.2,0,13,0"
	/>
<path class="st0" d="M13,0C5.8,0,0,5.7,0,12.8C0,18.5,3.7,23.3,8.9,25c0.7,0.1,0.9-0.3,0.9-0.6c0-0.3,0-1.1,0-2.2
	c-3.6,0.8-4.4-1.7-4.4-1.7c-0.6-1.5-1.4-1.9-1.4-1.9C2.8,17.8,4,17.8,4,17.8c1.3,0.1,2,1.3,2,1.3c1.2,2,3,1.4,3.8,1.1
	c0.1-0.8,0.5-1.4,0.8-1.7c-2.9-0.3-5.9-1.4-5.9-6.3c0-1.4,0.5-2.5,1.3-3.4C5.9,8.4,5.5,7.1,6.2,5.3c0,0,1.1-0.3,3.6,1.3
	c1-0.3,2.1-0.4,3.3-0.4c1.1,0,2.2,0.1,3.3,0.4c2.5-1.7,3.6-1.3,3.6-1.3c0.7,1.8,0.3,3.1,0.1,3.4c0.8,0.9,1.3,2,1.3,3.4
	c0,4.9-3,6-5.9,6.3c0.5,0.4,0.9,1.2,0.9,2.4c0,1.7,0,3.1,0,3.5c0,0.3,0.2,0.7,0.9,0.6c5.2-1.7,8.9-6.5,8.9-12.2C26,5.7,20.2,0,13,0"
	/>
</svg>
