<svg id="Слой_1" xmlns="http://www.w3.org/2000/svg" viewBox="0 0 26 25"><style>.st0{fill-rule:evenodd;clip-rule:evenodd;fill:#ffd006}</style><path class="st0" d="M13 0C5.8 0 0 5.7 0 12.8 0 18.5 3.7 23.3 8.9 25c.7.1.9-.3.9-.6v-2.2c-3.6.8-4.4-1.7-4.4-1.7C4.8 19 4 18.6 4 18.6c-1.2-.8 0-.8 0-.8 1.3.1 2 1.3 2 1.3 1.2 2 3 1.4 3.8 1.1.1-.8.5-1.4.8-1.7-2.9-.3-5.9-1.4-5.9-6.3 0-1.4.5-2.5 1.3-3.4-.1-.4-.5-1.7.2-3.5 0 0 1.1-.3 3.6 1.3 1-.3 2.1-.4 3.3-.4 1.1 0 2.2.1 3.3.4C18.9 4.9 20 5.3 20 5.3c.7 1.8.3 3.1.1 3.4.8.9 1.3 2 1.3 3.4 0 4.9-3 6-5.9 6.3.5.4.9 1.2.9 2.4v3.5c0 .3.2.7.9.6 5.2-1.7 8.9-6.5 8.9-12.2C26 5.7 20.2 0 13 0"/><path class="st0" d="M13 0C5.8 0 0 5.7 0 12.8 0 18.5 3.7 23.3 8.9 25c.7.1.9-.3.9-.6v-2.2c-3.6.8-4.4-1.7-4.4-1.7C4.8 19 4 18.6 4 18.6c-1.2-.8 0-.8 0-.8 1.3.1 2 1.3 2 1.3 1.2 2 3 1.4 3.8 1.1.1-.8.5-1.4.8-1.7-2.9-.3-5.9-1.4-5.9-6.3 0-1.4.5-2.5 1.3-3.4-.1-.4-.5-1.7.2-3.5 0 0 1.1-.3 3.6 1.3 1-.3 2.1-.4 3.3-.4 1.1 0 2.2.1 3.3.4C18.9 4.9 20 5.3 20 5.3c.7 1.8.3 3.1.1 3.4.8.9 1.3 2 1.3 3.4 0 4.9-3 6-5.9 6.3.5.4.9 1.2.9 2.4v3.5c0 .3.2.7.9.6 5.2-1.7 8.9-6.5 8.9-12.2C26 5.7 20.2 0 13 0"/></svg>