<!-- Generator: Adobe Illustrator 19.1.1, SVG Export Plug-In  -->
<svg version="1.1"
	 xmlns="http://www.w3.org/2000/svg" xmlns:xlink="http://www.w3.org/1999/xlink" xmlns:a="http://ns.adobe.com/AdobeSVGViewerExtensions/3.0/"
	 x="0px" y="0px" width="119.6px" height="186.9px" viewBox="0 0 119.6 186.9" style="enable-background:new 0 0 119.6 186.9;"
	 xml:space="preserve">
<style type="text/css">
	.st0{opacity:0.9;enable-background:new    ;}
	.st1{clip-path:url(#SVGID_2_);}
	.st2{clip-path:url(#SVGID_4_);}
	.st3{clip-path:url(#SVGID_6_);fill:#C8D92B;}
	.st4{clip-path:url(#SVGID_8_);}
	.st5{clip-path:url(#SVGID_10_);fill:#C2D02E;}
	.st6{clip-path:url(#SVGID_12_);}
	.st7{clip-path:url(#SVGID_14_);fill:#BABF33;}
	.st8{clip-path:url(#SVGID_16_);}
	.st9{clip-path:url(#SVGID_18_);}
	.st10{clip-path:url(#SVGID_20_);fill:#C8D92B;}
	.st11{clip-path:url(#SVGID_22_);}
	.st12{clip-path:url(#SVGID_24_);fill:#C2D02E;}
	.st13{clip-path:url(#SVGID_26_);}
	.st14{clip-path:url(#SVGID_28_);fill:#BABF33;}
	.st15{clip-path:url(#SVGID_30_);}
	.st16{clip-path:url(#SVGID_32_);}
	.st17{clip-path:url(#SVGID_34_);fill:#C8D92B;}
	.st18{clip-path:url(#SVGID_36_);}
	.st19{clip-path:url(#SVGID_38_);fill:#C2D02E;}
	.st20{clip-path:url(#SVGID_40_);}
	.st21{clip-path:url(#SVGID_42_);fill:#BABF33;}
	.st22{clip-path:url(#SVGID_44_);}
	.st23{clip-path:url(#SVGID_46_);}
	.st24{clip-path:url(#SVGID_48_);fill:#C8D92B;}
	.st25{clip-path:url(#SVGID_50_);}
	.st26{clip-path:url(#SVGID_52_);fill:#C2D02E;}
	.st27{clip-path:url(#SVGID_54_);}
	.st28{clip-path:url(#SVGID_56_);fill:#BABF33;}
	.st29{clip-path:url(#SVGID_58_);}
	.st30{clip-path:url(#SVGID_60_);}
	.st31{clip-path:url(#SVGID_62_);fill:#C8D92B;}
	.st32{clip-path:url(#SVGID_64_);}
	.st33{clip-path:url(#SVGID_66_);fill:#C2D02E;}
	.st34{clip-path:url(#SVGID_68_);}
	.st35{clip-path:url(#SVGID_70_);fill:#BABF33;}
	.st36{clip-path:url(#SVGID_72_);}
	.st37{clip-path:url(#SVGID_74_);}
	.st38{clip-path:url(#SVGID_76_);fill:#C8D92B;}
	.st39{clip-path:url(#SVGID_78_);}
	.st40{clip-path:url(#SVGID_80_);fill:#C2D02E;}
	.st41{clip-path:url(#SVGID_82_);}
	.st42{clip-path:url(#SVGID_84_);fill:#BABF33;}
	.st43{clip-path:url(#SVGID_86_);}
	.st44{clip-path:url(#SVGID_88_);}
	.st45{clip-path:url(#SVGID_90_);fill:#C8D92B;}
	.st46{clip-path:url(#SVGID_92_);}
	.st47{clip-path:url(#SVGID_94_);fill:#C2D02E;}
	.st48{clip-path:url(#SVGID_96_);}
	.st49{clip-path:url(#SVGID_98_);fill:#BABF33;}
	.st50{clip-path:url(#SVGID_100_);}
	.st51{clip-path:url(#SVGID_102_);}
	.st52{clip-path:url(#SVGID_104_);fill:#C8D92B;}
	.st53{clip-path:url(#SVGID_106_);}
	.st54{clip-path:url(#SVGID_108_);fill:#C2D02E;}
	.st55{clip-path:url(#SVGID_110_);}
	.st56{clip-path:url(#SVGID_112_);fill:#BABF33;}
</style>
<defs>
</defs>
<g>
	<g class="st0">
		<g>
			<defs>
				<rect id="SVGID_1_" x="4.5" y="97.2" width="74" height="85"/>
			</defs>
			<clipPath id="SVGID_2_">
				<use xlink:href="#SVGID_1_"  style="overflow:visible;"/>
			</clipPath>
			<g class="st1">
				<defs>
					<polygon id="SVGID_3_" points="41.5,139.7 41.5,139.7 41.5,139.7 41.8,139.6 78,118.8 41.5,97.5 41.5,97.5 41.5,97.5 5,118.5 
						41.5,139.7 					"/>
				</defs>
				<clipPath id="SVGID_4_">
					<use xlink:href="#SVGID_3_"  style="overflow:visible;"/>
				</clipPath>
				<g class="st2">
					<defs>
						<rect id="SVGID_5_" x="4.5" y="97.2" width="74" height="85"/>
					</defs>
					<clipPath id="SVGID_6_">
						<use xlink:href="#SVGID_5_"  style="overflow:visible;"/>
					</clipPath>
					<rect x="0" y="92.5" class="st3" width="83" height="52.2"/>
				</g>
			</g>
			<g class="st1">
				<defs>
					<polygon id="SVGID_7_" points="41.5,181.9 41.5,181.9 41.5,181.9 41.5,139.7 5,118.5 5,118.5 5,160.7 5,160.7 					"/>
				</defs>
				<clipPath id="SVGID_8_">
					<use xlink:href="#SVGID_7_"  style="overflow:visible;"/>
				</clipPath>
				<g class="st4">
					<defs>
						<rect id="SVGID_9_" x="4.5" y="97.2" width="74" height="85"/>
					</defs>
					<clipPath id="SVGID_10_">
						<use xlink:href="#SVGID_9_"  style="overflow:visible;"/>
					</clipPath>
					<rect y="113.5" class="st5" width="46.5" height="73.4"/>
				</g>
			</g>
			<g class="st1">
				<defs>
					<polygon id="SVGID_11_" points="78,118.8 41.8,139.6 41.5,139.7 41.5,139.7 41.5,181.9 41.5,181.9 41.5,181.9 78,160.9 
						78,160.9 78,160.9 78,118.8 78,118.8 					"/>
				</defs>
				<clipPath id="SVGID_12_">
					<use xlink:href="#SVGID_11_"  style="overflow:visible;"/>
				</clipPath>
				<g class="st6">
					<defs>
						<rect id="SVGID_13_" x="4.5" y="97.2" width="74" height="85"/>
					</defs>
					<clipPath id="SVGID_14_">
						<use xlink:href="#SVGID_13_"  style="overflow:visible;"/>
					</clipPath>
					<rect x="36.5" y="113.8" class="st7" width="46.5" height="73.1"/>
				</g>
			</g>
		</g>
	</g>
	<g class="st0">
		<g>
			<defs>
				<rect id="SVGID_15_" x="4.5" y="51.2" width="74" height="85"/>
			</defs>
			<clipPath id="SVGID_16_">
				<use xlink:href="#SVGID_15_"  style="overflow:visible;"/>
			</clipPath>
			<g class="st8">
				<defs>
					<polygon id="SVGID_17_" points="41.5,93.4 41.5,93.4 41.5,93.4 41.8,93.3 78,72.5 41.5,51.3 41.5,51.3 41.5,51.3 41.5,51.3 
						5,72.2 41.5,93.4 					"/>
				</defs>
				<clipPath id="SVGID_18_">
					<use xlink:href="#SVGID_17_"  style="overflow:visible;"/>
				</clipPath>
				<g class="st9">
					<defs>
						<rect id="SVGID_19_" x="4.5" y="51.2" width="74" height="85"/>
					</defs>
					<clipPath id="SVGID_20_">
						<use xlink:href="#SVGID_19_"  style="overflow:visible;"/>
					</clipPath>
					<rect x="0" y="46.3" class="st10" width="83" height="52.2"/>
				</g>
			</g>
			<g class="st8">
				<defs>
					<polygon id="SVGID_21_" points="41.5,135.6 41.5,135.6 41.5,135.6 41.5,93.4 5,72.2 5,72.2 5,114.4 5,114.4 					"/>
				</defs>
				<clipPath id="SVGID_22_">
					<use xlink:href="#SVGID_21_"  style="overflow:visible;"/>
				</clipPath>
				<g class="st11">
					<defs>
						<rect id="SVGID_23_" x="4.5" y="51.2" width="74" height="85"/>
					</defs>
					<clipPath id="SVGID_24_">
						<use xlink:href="#SVGID_23_"  style="overflow:visible;"/>
					</clipPath>
					<rect x="0" y="67.2" class="st12" width="46.5" height="73.4"/>
				</g>
			</g>
			<g class="st8">
				<defs>
					<polygon id="SVGID_25_" points="78,72.5 41.8,93.3 41.5,93.4 41.5,93.4 41.5,135.6 41.5,135.6 41.5,135.6 41.5,135.6 78,114.7 
						78,114.7 78,114.7 78.1,72.5 78,72.5 					"/>
				</defs>
				<clipPath id="SVGID_26_">
					<use xlink:href="#SVGID_25_"  style="overflow:visible;"/>
				</clipPath>
				<g class="st13">
					<defs>
						<rect id="SVGID_27_" x="4.5" y="51.2" width="74" height="85"/>
					</defs>
					<clipPath id="SVGID_28_">
						<use xlink:href="#SVGID_27_"  style="overflow:visible;"/>
					</clipPath>
					<rect x="36.5" y="67.5" class="st14" width="46.5" height="73.1"/>
				</g>
			</g>
		</g>
	</g>
	<g class="st0">
		<g>
			<defs>
				<rect id="SVGID_29_" x="4.5" y="4.2" width="74" height="86"/>
			</defs>
			<clipPath id="SVGID_30_">
				<use xlink:href="#SVGID_29_"  style="overflow:visible;"/>
			</clipPath>
			<g class="st15">
				<defs>
					<polygon id="SVGID_31_" points="41.5,47.2 41.5,47.2 41.5,47.2 41.8,47 78,26.2 41.5,5 41.5,5 41.5,5 5,26 41.5,47.2 					"/>
				</defs>
				<clipPath id="SVGID_32_">
					<use xlink:href="#SVGID_31_"  style="overflow:visible;"/>
				</clipPath>
				<g class="st16">
					<defs>
						<rect id="SVGID_33_" x="4.5" y="4.2" width="74" height="86"/>
					</defs>
					<clipPath id="SVGID_34_">
						<use xlink:href="#SVGID_33_"  style="overflow:visible;"/>
					</clipPath>
					<rect x="0" class="st17" width="83" height="52.2"/>
				</g>
			</g>
			<g class="st15">
				<defs>
					<polygon id="SVGID_35_" points="41.5,89.4 41.5,89.4 41.5,89.4 41.5,47.2 5,26 5,26 5,68.1 5,68.1 					"/>
				</defs>
				<clipPath id="SVGID_36_">
					<use xlink:href="#SVGID_35_"  style="overflow:visible;"/>
				</clipPath>
				<g class="st18">
					<defs>
						<rect id="SVGID_37_" x="4.5" y="4.2" width="74" height="86"/>
					</defs>
					<clipPath id="SVGID_38_">
						<use xlink:href="#SVGID_37_"  style="overflow:visible;"/>
					</clipPath>
					<rect y="21" class="st19" width="46.5" height="73.4"/>
				</g>
			</g>
			<g class="st15">
				<defs>
					<polygon id="SVGID_39_" points="78,26.2 41.8,47 41.5,47.2 41.5,47.2 41.5,89.4 41.5,89.4 41.5,89.4 78,68.4 78,68.4 78,68.4 
						78,26.2 78,26.2 					"/>
				</defs>
				<clipPath id="SVGID_40_">
					<use xlink:href="#SVGID_39_"  style="overflow:visible;"/>
				</clipPath>
				<g class="st20">
					<defs>
						<rect id="SVGID_41_" x="4.5" y="4.2" width="74" height="86"/>
					</defs>
					<clipPath id="SVGID_42_">
						<use xlink:href="#SVGID_41_"  style="overflow:visible;"/>
					</clipPath>
					<rect x="36.5" y="21.2" class="st21" width="46.5" height="73.1"/>
				</g>
			</g>
		</g>
	</g>
	<g class="st0">
		<g>
			<defs>
				<rect id="SVGID_43_" x="41.5" y="25.2" width="74" height="86"/>
			</defs>
			<clipPath id="SVGID_44_">
				<use xlink:href="#SVGID_43_"  style="overflow:visible;"/>
			</clipPath>
			<g class="st22">
				<defs>
					<polygon id="SVGID_45_" points="78,68.4 78,68.4 78,68.4 78.3,68.2 114.5,47.4 78,26.2 78,26.2 78,26.2 41.5,47.2 78,68.4 
											"/>
				</defs>
				<clipPath id="SVGID_46_">
					<use xlink:href="#SVGID_45_"  style="overflow:visible;"/>
				</clipPath>
				<g class="st23">
					<defs>
						<rect id="SVGID_47_" x="41.5" y="25.2" width="74" height="86"/>
					</defs>
					<clipPath id="SVGID_48_">
						<use xlink:href="#SVGID_47_"  style="overflow:visible;"/>
					</clipPath>
					<rect x="36.5" y="21.2" class="st24" width="83" height="52.2"/>
				</g>
			</g>
			<g class="st22">
				<defs>
					<polygon id="SVGID_49_" points="78,110.6 78,110.6 78,110.6 78,68.4 41.5,47.2 41.5,47.2 41.5,89.4 41.5,89.4 					"/>
				</defs>
				<clipPath id="SVGID_50_">
					<use xlink:href="#SVGID_49_"  style="overflow:visible;"/>
				</clipPath>
				<g class="st25">
					<defs>
						<rect id="SVGID_51_" x="41.5" y="25.2" width="74" height="86"/>
					</defs>
					<clipPath id="SVGID_52_">
						<use xlink:href="#SVGID_51_"  style="overflow:visible;"/>
					</clipPath>
					<rect x="36.5" y="42.2" class="st26" width="46.5" height="73.4"/>
				</g>
			</g>
			<g class="st22">
				<defs>
					<polygon id="SVGID_53_" points="114.6,47.4 78.3,68.2 78,68.4 78,68.4 78,110.6 78,110.6 78,110.6 114.6,89.6 114.6,89.6 
						114.6,89.6 114.6,47.4 114.6,47.4 					"/>
				</defs>
				<clipPath id="SVGID_54_">
					<use xlink:href="#SVGID_53_"  style="overflow:visible;"/>
				</clipPath>
				<g class="st27">
					<defs>
						<rect id="SVGID_55_" x="41.5" y="25.2" width="74" height="86"/>
					</defs>
					<clipPath id="SVGID_56_">
						<use xlink:href="#SVGID_55_"  style="overflow:visible;"/>
					</clipPath>
					<rect x="73" y="42.4" class="st28" width="46.5" height="73.1"/>
				</g>
			</g>
		</g>
	</g>
</g>
</svg>
