<svg id="Слой_1" xmlns="http://www.w3.org/2000/svg" xmlns:xlink="http://www.w3.org/1999/xlink" viewBox="0 0 220 262"><style>.st0{opacity:.9;enable-background:new}.st1{clip-path:url(#SVGID_2_)}.st2{clip-path:url(#SVGID_4_)}.st3{clip-path:url(#SVGID_6_);fill:#bec831}.st4{clip-path:url(#SVGID_8_)}.st5{clip-path:url(#SVGID_10_);fill:#a1a938}.st6{clip-path:url(#SVGID_12_)}.st7{clip-path:url(#SVGID_14_);fill:#999b36}.st8{clip-path:url(#SVGID_16_)}.st9{clip-path:url(#SVGID_18_);fill:#cc2b64}.st10{clip-path:url(#SVGID_20_)}.st11{clip-path:url(#SVGID_22_);fill:#a31d4c}.st12{clip-path:url(#SVGID_24_)}.st13{clip-path:url(#SVGID_26_);fill:#b62554}.st14{clip-path:url(#SVGID_28_)}.st15{clip-path:url(#SVGID_30_);fill:#cc2b64}.st16{clip-path:url(#SVGID_32_)}.st17{clip-path:url(#SVGID_34_);fill:#a31d4c}.st18{clip-path:url(#SVGID_36_)}.st19{clip-path:url(#SVGID_38_);fill:#b62554}.st20{clip-path:url(#SVGID_40_)}.st21{clip-path:url(#SVGID_42_);fill:#c8d92b}.st22{clip-path:url(#SVGID_44_)}.st23{clip-path:url(#SVGID_46_);fill:#c2d02e}.st24{clip-path:url(#SVGID_48_)}.st25{clip-path:url(#SVGID_50_);fill:#babf33}.st26{clip-path:url(#SVGID_52_)}.st27{clip-path:url(#SVGID_54_);fill:#cc2b64}.st28{clip-path:url(#SVGID_56_)}.st29{clip-path:url(#SVGID_58_);fill:#a31d4c}.st30{clip-path:url(#SVGID_60_)}.st31{clip-path:url(#SVGID_62_);fill:#b62554}.st32{clip-path:url(#SVGID_64_)}.st33{clip-path:url(#SVGID_66_);fill:#34b4d7}.st34{clip-path:url(#SVGID_68_)}.st35{clip-path:url(#SVGID_70_);fill:#219ac5}.st36{clip-path:url(#SVGID_72_)}.st37{clip-path:url(#SVGID_74_);fill:#138dae}.st38{clip-path:url(#SVGID_76_)}.st39{clip-path:url(#SVGID_78_);fill:#94d6e2}.st40{clip-path:url(#SVGID_80_)}.st41{clip-path:url(#SVGID_82_);fill:#73cddd}.st42{clip-path:url(#SVGID_84_)}.st43{clip-path:url(#SVGID_86_);fill:#3cafbb}.st44{clip-path:url(#SVGID_88_)}.st45{clip-path:url(#SVGID_90_);fill:#94d6e2}.st46{clip-path:url(#SVGID_92_)}.st47{clip-path:url(#SVGID_94_);fill:#73cddd}.st48{clip-path:url(#SVGID_96_)}.st49{clip-path:url(#SVGID_98_);fill:#3cafbb}.st50{clip-path:url(#SVGID_100_)}.st51{clip-path:url(#SVGID_102_);fill:#34b4d7}.st52{clip-path:url(#SVGID_104_)}.st53{clip-path:url(#SVGID_106_);fill:#219ac5}.st54{clip-path:url(#SVGID_108_)}.st55{clip-path:url(#SVGID_110_);fill:#138dae}.st56{clip-path:url(#SVGID_112_)}.st57{clip-path:url(#SVGID_114_)}.st58{clip-path:url(#SVGID_116_);fill:#bec831}.st59{clip-path:url(#SVGID_118_)}.st60{clip-path:url(#SVGID_120_);fill:#a1a938}.st61{clip-path:url(#SVGID_122_)}.st62{clip-path:url(#SVGID_124_);fill:#999b36}.st63{clip-path:url(#SVGID_126_)}.st64{clip-path:url(#SVGID_128_)}.st65{clip-path:url(#SVGID_130_);fill:#ee549a}.st66{clip-path:url(#SVGID_132_)}.st67{clip-path:url(#SVGID_134_);fill:#d01b67}.st68{clip-path:url(#SVGID_136_)}.st69{clip-path:url(#SVGID_138_);fill:#ec1067}.st70{clip-path:url(#SVGID_140_)}.st71{clip-path:url(#SVGID_142_)}.st72{clip-path:url(#SVGID_144_);fill:#a159a3}.st73{clip-path:url(#SVGID_146_)}.st74{clip-path:url(#SVGID_148_);fill:#772a87}.st75{clip-path:url(#SVGID_150_)}.st76{clip-path:url(#SVGID_152_);enable-background:new}.st77{clip-path:url(#SVGID_154_)}.st78{clip-path:url(#SVGID_156_)}.st79{clip-path:url(#SVGID_158_);fill:#8f3c96}.st80{clip-path:url(#SVGID_160_)}.st81{clip-path:url(#SVGID_162_)}.st82{clip-path:url(#SVGID_164_);fill:#c8d92b}.st83{clip-path:url(#SVGID_166_)}.st84{clip-path:url(#SVGID_168_);fill:#c2d02e}.st85{clip-path:url(#SVGID_170_)}.st86{clip-path:url(#SVGID_172_);fill:#babf33}.st87{clip-path:url(#SVGID_174_)}.st88{clip-path:url(#SVGID_176_)}.st89{clip-path:url(#SVGID_178_);fill:#f6af1a}.st90{clip-path:url(#SVGID_180_)}.st91{clip-path:url(#SVGID_182_);fill:#f29020}.st92{clip-path:url(#SVGID_184_)}.st93{clip-path:url(#SVGID_186_);fill:#f8a120}.st94{clip-path:url(#SVGID_188_)}.st95{clip-path:url(#SVGID_190_)}.st96{clip-path:url(#SVGID_192_);fill:#a159a3}.st97{clip-path:url(#SVGID_194_)}.st98{clip-path:url(#SVGID_196_);fill:#772a87}.st99{clip-path:url(#SVGID_198_)}.st100{clip-path:url(#SVGID_200_);fill:#8f3c96}.st101{clip-path:url(#SVGID_202_)}.st102{clip-path:url(#SVGID_204_)}.st103{clip-path:url(#SVGID_206_);fill:#f6dd03}.st104{clip-path:url(#SVGID_208_)}.st105{clip-path:url(#SVGID_210_);enable-background:new}.st106{clip-path:url(#SVGID_212_)}.st107{clip-path:url(#SVGID_214_)}.st108{clip-path:url(#SVGID_216_);fill:#f9bc1e}.st109{clip-path:url(#SVGID_218_)}.st110{clip-path:url(#SVGID_220_);fill:#e9af20}.st111{clip-path:url(#SVGID_222_)}.st112{clip-path:url(#SVGID_224_)}.st113{clip-path:url(#SVGID_226_);fill:#f6af1a}.st114{clip-path:url(#SVGID_228_)}.st115{clip-path:url(#SVGID_230_);fill:#f29020}.st116{clip-path:url(#SVGID_232_)}.st117{clip-path:url(#SVGID_234_);fill:#f8a120}.st118{clip-path:url(#SVGID_236_)}.st119{clip-path:url(#SVGID_238_)}.st120{clip-path:url(#SVGID_240_);fill:#31838c}.st121{clip-path:url(#SVGID_242_)}.st122{clip-path:url(#SVGID_244_);fill:#23626c}.st123{clip-path:url(#SVGID_246_)}.st124{clip-path:url(#SVGID_248_);fill:#1b4b56}.st125{clip-path:url(#SVGID_250_)}.st126{clip-path:url(#SVGID_252_)}.st127{clip-path:url(#SVGID_254_);enable-background:new}.st128{clip-path:url(#SVGID_256_)}.st129{clip-path:url(#SVGID_258_)}.st130{clip-path:url(#SVGID_260_);fill:#bec831}.st131{clip-path:url(#SVGID_262_)}.st132{clip-path:url(#SVGID_264_);fill:#a1a938}.st133{clip-path:url(#SVGID_266_)}.st134{clip-path:url(#SVGID_268_);fill:#999b36}.st135{clip-path:url(#SVGID_270_)}.st136{clip-path:url(#SVGID_272_)}.st137{clip-path:url(#SVGID_274_);fill:#ee549a}.st138{clip-path:url(#SVGID_276_)}.st139{clip-path:url(#SVGID_278_);fill:#d01b67}.st140{clip-path:url(#SVGID_280_)}.st141{clip-path:url(#SVGID_282_);fill:#ec1067}.st142{clip-path:url(#SVGID_284_)}.st143{clip-path:url(#SVGID_286_)}.st144{clip-path:url(#SVGID_288_);fill:#a159a3}.st145{clip-path:url(#SVGID_290_)}.st146{clip-path:url(#SVGID_292_);fill:#772a87}.st147{clip-path:url(#SVGID_294_)}.st148{clip-path:url(#SVGID_296_);fill:#8f3c96}.st149{clip-path:url(#SVGID_298_)}.st150{clip-path:url(#SVGID_300_)}.st151{clip-path:url(#SVGID_302_);fill:#c8d92b}.st152{clip-path:url(#SVGID_304_)}.st153{clip-path:url(#SVGID_306_);fill:#c2d02e}.st154{clip-path:url(#SVGID_308_)}.st155{clip-path:url(#SVGID_310_);fill:#babf33}.st156{clip-path:url(#SVGID_312_)}.st157{clip-path:url(#SVGID_314_)}.st158{clip-path:url(#SVGID_316_);fill:#c8d92b}.st159{clip-path:url(#SVGID_318_)}.st160{clip-path:url(#SVGID_320_);fill:#c2d02e}.st161{clip-path:url(#SVGID_322_)}.st162{clip-path:url(#SVGID_324_);fill:#babf33}.st163{clip-path:url(#SVGID_326_)}.st164{clip-path:url(#SVGID_328_)}.st165{clip-path:url(#SVGID_330_);fill:#843594}.st166{clip-path:url(#SVGID_332_)}.st167{clip-path:url(#SVGID_334_);fill:#652977}.st168{clip-path:url(#SVGID_336_)}.st169{clip-path:url(#SVGID_338_);fill:#4d1f5b}.st170{clip-path:url(#SVGID_340_)}.st171{clip-path:url(#SVGID_342_)}.st172{clip-path:url(#SVGID_344_);fill:#f6dd03}.st173{clip-path:url(#SVGID_346_)}.st174{clip-path:url(#SVGID_348_);fill:#f9bc1e}.st175{clip-path:url(#SVGID_350_)}.st176{clip-path:url(#SVGID_352_);fill:#e9af20}.st177{clip-path:url(#SVGID_354_)}.st178{clip-path:url(#SVGID_356_)}.st179{clip-path:url(#SVGID_358_);fill:#f6af1a}.st180{clip-path:url(#SVGID_360_)}.st181{clip-path:url(#SVGID_362_);fill:#f29020}.st182{clip-path:url(#SVGID_364_)}.st183{clip-path:url(#SVGID_366_);fill:#f8a120}.st184{clip-path:url(#SVGID_368_)}.st185{clip-path:url(#SVGID_370_)}.st186{clip-path:url(#SVGID_372_);fill:#f6af1a}.st187{clip-path:url(#SVGID_374_)}.st188{clip-path:url(#SVGID_376_);fill:#f29020}.st189{clip-path:url(#SVGID_378_)}.st190{clip-path:url(#SVGID_380_);fill:#f8a120}</style><g class="st0"><defs><path id="SVGID_1_" d="M0 92h220v170H0z"/></defs><clipPath id="SVGID_2_"><use xlink:href="#SVGID_1_" overflow="visible"/></clipPath><g class="st1"><defs><path id="SVGID_3_" d="M109.5 135.2l.4-.2 36.2-20.8L109.5 93 73 114l36.5 21.2z"/></defs><clipPath id="SVGID_4_"><use xlink:href="#SVGID_3_" overflow="visible"/></clipPath><g class="st2"><defs><path id="SVGID_5_" d="M0 92h220v170H0z"/></defs><clipPath id="SVGID_6_"><use xlink:href="#SVGID_5_" overflow="visible"/></clipPath><path class="st3" d="M68 88h83v52.2H68z"/></g></g><g class="st1"><defs><path id="SVGID_7_" d="M109.5 177.3v-42.1L73 114v42.1z"/></defs><clipPath id="SVGID_8_"><use xlink:href="#SVGID_7_" overflow="visible"/></clipPath><g class="st4"><defs><path id="SVGID_9_" d="M0 92h220v170H0z"/></defs><clipPath id="SVGID_10_"><use xlink:href="#SVGID_9_" overflow="visible"/></clipPath><path class="st5" d="M68 109h46.5v73.4H68z"/></g></g><g class="st1"><defs><path id="SVGID_11_" d="M146.1 114.2L109.9 135l-.4.2v42.2h.1l36.5-21v-42.2z"/></defs><clipPath id="SVGID_12_"><use xlink:href="#SVGID_11_" overflow="visible"/></clipPath><g class="st6"><defs><path id="SVGID_13_" d="M0 92h220v170H0z"/></defs><clipPath id="SVGID_14_"><use xlink:href="#SVGID_13_" overflow="visible"/></clipPath><path class="st7" d="M104.5 109.2H151v73.1h-46.5z"/></g></g><g class="st1"><defs><path id="SVGID_15_" d="M146.1 156.4l.3-.2 36.2-20.8-36.5-21.2-36.5 21 36.5 21.2z"/></defs><clipPath id="SVGID_16_"><use xlink:href="#SVGID_15_" overflow="visible"/></clipPath><g class="st8"><defs><path id="SVGID_17_" d="M0 92h220v170H0z"/></defs><clipPath id="SVGID_18_"><use xlink:href="#SVGID_17_" overflow="visible"/></clipPath><path class="st9" d="M104.6 109.2h83v52.2h-83z"/></g></g><g class="st1"><defs><path id="SVGID_19_" d="M146.1 198.6v-42.2l-36.6-21.2v42.1l.1.1z"/></defs><clipPath id="SVGID_20_"><use xlink:href="#SVGID_19_" overflow="visible"/></clipPath><g class="st10"><defs><path id="SVGID_21_" d="M0 92h220v170H0z"/></defs><clipPath id="SVGID_22_"><use xlink:href="#SVGID_21_" overflow="visible"/></clipPath><path class="st11" d="M104.5 130.2H151v73.4h-46.5z"/></g></g><g class="st1"><defs><path id="SVGID_23_" d="M182.6 135.4l-36.2 20.8-.3.2v42.2l36.5-21v-42.2z"/></defs><clipPath id="SVGID_24_"><use xlink:href="#SVGID_23_" overflow="visible"/></clipPath><g class="st12"><defs><path id="SVGID_25_" d="M0 92h220v170H0z"/></defs><clipPath id="SVGID_26_"><use xlink:href="#SVGID_25_" overflow="visible"/></clipPath><path class="st13" d="M141.1 130.4h46.5v73.1h-46.5z"/></g></g><g class="st1"><defs><path id="SVGID_27_" d="M182.6 177.6l.3-.2 36.2-20.8-36.5-21.2-36.5 21 36.5 21.2z"/></defs><clipPath id="SVGID_28_"><use xlink:href="#SVGID_27_" overflow="visible"/></clipPath><g class="st14"><defs><path id="SVGID_29_" d="M0 92h220v170H0z"/></defs><clipPath id="SVGID_30_"><use xlink:href="#SVGID_29_" overflow="visible"/></clipPath><path class="st15" d="M141.1 130.4h83v52.2h-83z"/></g></g><g class="st1"><defs><path id="SVGID_31_" d="M182.6 219.8v-42.2l-36.5-21.2v42.2z"/></defs><clipPath id="SVGID_32_"><use xlink:href="#SVGID_31_" overflow="visible"/></clipPath><g class="st16"><defs><path id="SVGID_33_" d="M0 92h220v170H0z"/></defs><clipPath id="SVGID_34_"><use xlink:href="#SVGID_33_" overflow="visible"/></clipPath><path class="st17" d="M141.1 151.4h46.5v73.4h-46.5z"/></g></g><g class="st1"><defs><path id="SVGID_35_" d="M219.1 156.6l-36.2 20.8-.3.2v42.2l36.5-21v-42.2z"/></defs><clipPath id="SVGID_36_"><use xlink:href="#SVGID_35_" overflow="visible"/></clipPath><g class="st18"><defs><path id="SVGID_37_" d="M0 92h220v170H0z"/></defs><clipPath id="SVGID_38_"><use xlink:href="#SVGID_37_" overflow="visible"/></clipPath><path class="st19" d="M177.6 151.6h46.5v73.1h-46.5z"/></g></g><g class="st1"><defs><path id="SVGID_39_" d="M73 156.1l.3-.1 36.2-20.8L73 114l-36.5 20.9L73 156.1z"/></defs><clipPath id="SVGID_40_"><use xlink:href="#SVGID_39_" overflow="visible"/></clipPath><g class="st20"><defs><path id="SVGID_41_" d="M0 92h220v170H0z"/></defs><clipPath id="SVGID_42_"><use xlink:href="#SVGID_41_" overflow="visible"/></clipPath><path class="st21" d="M31.5 109h83v52.2h-83z"/></g></g><g class="st1"><defs><path id="SVGID_43_" d="M73 198.3v-42.2l-36.5-21.2v42.2z"/></defs><clipPath id="SVGID_44_"><use xlink:href="#SVGID_43_" overflow="visible"/></clipPath><g class="st22"><defs><path id="SVGID_45_" d="M0 92h220v170H0z"/></defs><clipPath id="SVGID_46_"><use xlink:href="#SVGID_45_" overflow="visible"/></clipPath><path class="st23" d="M31.5 129.9H78v73.4H31.5z"/></g></g><g class="st1"><defs><path id="SVGID_47_" d="M109.5 135.2L73.3 156l-.3.1v42.2l36.6-20.9v-42.2h-.1z"/></defs><clipPath id="SVGID_48_"><use xlink:href="#SVGID_47_" overflow="visible"/></clipPath><g class="st24"><defs><path id="SVGID_49_" d="M0 92h220v170H0z"/></defs><clipPath id="SVGID_50_"><use xlink:href="#SVGID_49_" overflow="visible"/></clipPath><path class="st25" d="M68 130.2h46.5v73.1H68z"/></g></g><g class="st1"><defs><path id="SVGID_51_" d="M109.6 177.3l.3-.1 36.2-20.8-36.5-21.2L73 156.1l36.6 21.2z"/></defs><clipPath id="SVGID_52_"><use xlink:href="#SVGID_51_" overflow="visible"/></clipPath><g class="st26"><defs><path id="SVGID_53_" d="M0 92h220v170H0z"/></defs><clipPath id="SVGID_54_"><use xlink:href="#SVGID_53_" overflow="visible"/></clipPath><path class="st27" d="M68 130.2h83v52.2H68z"/></g></g><g class="st1"><defs><path id="SVGID_55_" d="M109.6 219.5v-42.1L73 156.1v42.2h.1z"/></defs><clipPath id="SVGID_56_"><use xlink:href="#SVGID_55_" overflow="visible"/></clipPath><g class="st28"><defs><path id="SVGID_57_" d="M0 92h220v170H0z"/></defs><clipPath id="SVGID_58_"><use xlink:href="#SVGID_57_" overflow="visible"/></clipPath><path class="st29" d="M68 151.1h46.5v73.4H68z"/></g></g><g class="st1"><defs><path id="SVGID_59_" d="M146.1 156.4l-36.2 20.8-.3.1v42.2l36.5-20.9v-42.2z"/></defs><clipPath id="SVGID_60_"><use xlink:href="#SVGID_59_" overflow="visible"/></clipPath><g class="st30"><defs><path id="SVGID_61_" d="M0 92h220v170H0z"/></defs><clipPath id="SVGID_62_"><use xlink:href="#SVGID_61_" overflow="visible"/></clipPath><path class="st31" d="M104.6 151.4h46.5v73.1h-46.5z"/></g></g><g class="st1"><defs><path id="SVGID_63_" d="M146.1 198.6l.3-.2 36.2-20.8-36.5-21.2-36.5 21 36.5 21.2z"/></defs><clipPath id="SVGID_64_"><use xlink:href="#SVGID_63_" overflow="visible"/></clipPath><g class="st32"><defs><path id="SVGID_65_" d="M0 92h220v170H0z"/></defs><clipPath id="SVGID_66_"><use xlink:href="#SVGID_65_" overflow="visible"/></clipPath><path class="st33" d="M104.6 151.4h83v52.2h-83z"/></g></g><g class="st1"><defs><path id="SVGID_67_" d="M146.1 240.7v-42.1l-36.5-21.2v42.1z"/></defs><clipPath id="SVGID_68_"><use xlink:href="#SVGID_67_" overflow="visible"/></clipPath><g class="st34"><defs><path id="SVGID_69_" d="M0 92h220v170H0z"/></defs><clipPath id="SVGID_70_"><use xlink:href="#SVGID_69_" overflow="visible"/></clipPath><path class="st35" d="M104.6 172.4h46.5v73.4h-46.5z"/></g></g><g class="st1"><defs><path id="SVGID_71_" d="M182.6 177.6l-36.2 20.8-.3.2v42.1l36.5-20.9v-42.2z"/></defs><clipPath id="SVGID_72_"><use xlink:href="#SVGID_71_" overflow="visible"/></clipPath><g class="st36"><defs><path id="SVGID_73_" d="M0 92h220v170H0z"/></defs><clipPath id="SVGID_74_"><use xlink:href="#SVGID_73_" overflow="visible"/></clipPath><path class="st37" d="M141.1 172.6h46.5v73.1h-46.5z"/></g></g><g class="st1"><defs><path id="SVGID_75_" d="M36.5 177.1l.3-.2L73 156.1l-36.5-21.2-36.5 21 36.5 21.2z"/></defs><clipPath id="SVGID_76_"><use xlink:href="#SVGID_75_" overflow="visible"/></clipPath><g class="st38"><defs><path id="SVGID_77_" d="M0 92h220v170H0z"/></defs><clipPath id="SVGID_78_"><use xlink:href="#SVGID_77_" overflow="visible"/></clipPath><path class="st39" d="M-5 129.9h83v52.2H-5z"/></g></g><g class="st1"><defs><path id="SVGID_79_" d="M36.5 219.3v-42.2L0 155.9v42.2z"/></defs><clipPath id="SVGID_80_"><use xlink:href="#SVGID_79_" overflow="visible"/></clipPath><g class="st40"><defs><path id="SVGID_81_" d="M0 92h220v170H0z"/></defs><clipPath id="SVGID_82_"><use xlink:href="#SVGID_81_" overflow="visible"/></clipPath><path class="st41" d="M-5 150.9h46.5v73.4H-5z"/></g></g><g class="st1"><defs><path id="SVGID_83_" d="M73 156.1l-36.2 20.8-.3.2v42.2l36.5-21v-42.2z"/></defs><clipPath id="SVGID_84_"><use xlink:href="#SVGID_83_" overflow="visible"/></clipPath><g class="st42"><defs><path id="SVGID_85_" d="M0 92h220v170H0z"/></defs><clipPath id="SVGID_86_"><use xlink:href="#SVGID_85_" overflow="visible"/></clipPath><path class="st43" d="M31.5 151.1H78v73.1H31.5z"/></g></g><g class="st1"><defs><path id="SVGID_87_" d="M73 198.3l.4-.2 36.2-20.8L73 156.1l-36.5 21L73 198.3z"/></defs><clipPath id="SVGID_88_"><use xlink:href="#SVGID_87_" overflow="visible"/></clipPath><g class="st44"><defs><path id="SVGID_89_" d="M0 92h220v170H0z"/></defs><clipPath id="SVGID_90_"><use xlink:href="#SVGID_89_" overflow="visible"/></clipPath><path class="st45" d="M31.5 151.1h83v52.2h-83z"/></g></g><g class="st1"><defs><path id="SVGID_91_" d="M73 240.5v-42.2l-36.5-21.2v42.2z"/></defs><clipPath id="SVGID_92_"><use xlink:href="#SVGID_91_" overflow="visible"/></clipPath><g class="st46"><defs><path id="SVGID_93_" d="M0 92h220v170H0z"/></defs><clipPath id="SVGID_94_"><use xlink:href="#SVGID_93_" overflow="visible"/></clipPath><path class="st47" d="M31.5 172.1H78v73.4H31.5z"/></g></g><g class="st1"><defs><path id="SVGID_95_" d="M109.6 177.3l-36.2 20.8-.4.2v42.2h.1l36.5-21v-42.2z"/></defs><clipPath id="SVGID_96_"><use xlink:href="#SVGID_95_" overflow="visible"/></clipPath><g class="st48"><defs><path id="SVGID_97_" d="M0 92h220v170H0z"/></defs><clipPath id="SVGID_98_"><use xlink:href="#SVGID_97_" overflow="visible"/></clipPath><path class="st49" d="M68 172.3h46.5v73.1H68z"/></g></g><g class="st1"><defs><path id="SVGID_99_" d="M109.6 219.5l.3-.1 36.2-20.8-36.5-21.3v.1-.1l-36.6 21 36.6 21.2z"/></defs><clipPath id="SVGID_100_"><use xlink:href="#SVGID_99_" overflow="visible"/></clipPath><g class="st50"><defs><path id="SVGID_101_" d="M0 92h220v170H0z"/></defs><clipPath id="SVGID_102_"><use xlink:href="#SVGID_101_" overflow="visible"/></clipPath><path class="st51" d="M68 172.3h83v52.2H68z"/></g></g><g class="st1"><defs><path id="SVGID_103_" d="M109.6 261.7v-42.2L73 198.3v42.2h.1z"/></defs><clipPath id="SVGID_104_"><use xlink:href="#SVGID_103_" overflow="visible"/></clipPath><g class="st52"><defs><path id="SVGID_105_" d="M0 92h220v170H0z"/></defs><clipPath id="SVGID_106_"><use xlink:href="#SVGID_105_" overflow="visible"/></clipPath><path class="st53" d="M68 193.3h46.5v73.4H68z"/></g></g><g class="st1"><defs><path id="SVGID_107_" d="M146.1 198.6l-36.2 20.8-.3.1v42.2l36.5-21v-42.1z"/></defs><clipPath id="SVGID_108_"><use xlink:href="#SVGID_107_" overflow="visible"/></clipPath><g class="st54"><defs><path id="SVGID_109_" d="M0 92h220v170H0z"/></defs><clipPath id="SVGID_110_"><use xlink:href="#SVGID_109_" overflow="visible"/></clipPath><path class="st55" d="M104.6 193.6h46.5v73.1h-46.5z"/></g></g></g><g class="st0"><defs><path id="SVGID_111_" d="M73 46h74v86H73z"/></defs><clipPath id="SVGID_112_"><use xlink:href="#SVGID_111_" overflow="visible"/></clipPath><g class="st56"><defs><path id="SVGID_113_" d="M109.6 88.9l.3-.2 36.2-20.8-36.5-21.2-36.5 21 36.5 21.2z"/></defs><clipPath id="SVGID_114_"><use xlink:href="#SVGID_113_" overflow="visible"/></clipPath><g class="st57"><defs><path id="SVGID_115_" d="M73 46h74v86H73z"/></defs><clipPath id="SVGID_116_"><use xlink:href="#SVGID_115_" overflow="visible"/></clipPath><path class="st58" d="M68.1 41.7h83v52.2h-83z"/></g></g><g class="st56"><defs><path id="SVGID_117_" d="M109.5 131.1l.1-42.2-36.5-21.2-.1 42.1.1.1z"/></defs><clipPath id="SVGID_118_"><use xlink:href="#SVGID_117_" overflow="visible"/></clipPath><g class="st59"><defs><path id="SVGID_119_" d="M73 46h74v86H73z"/></defs><clipPath id="SVGID_120_"><use xlink:href="#SVGID_119_" overflow="visible"/></clipPath><path class="st60" d="M68 62.7h46.5v73.4H68z"/></g></g><g class="st56"><defs><path id="SVGID_121_" d="M146.1 68l-36.2 20.7-.3.2-.1 42.2h.1l36.5-21V68z"/></defs><clipPath id="SVGID_122_"><use xlink:href="#SVGID_121_" overflow="visible"/></clipPath><g class="st61"><defs><path id="SVGID_123_" d="M73 46h74v86H73z"/></defs><clipPath id="SVGID_124_"><use xlink:href="#SVGID_123_" overflow="visible"/></clipPath><path class="st62" d="M104.5 63H151v73.1h-46.5z"/></g></g></g><g class="st0"><defs><path id="SVGID_125_" d="M109 67h74v86h-74z"/></defs><clipPath id="SVGID_126_"><use xlink:href="#SVGID_125_" overflow="visible"/></clipPath><g class="st63"><defs><path id="SVGID_127_" d="M146.1 110.1l.3-.1 36.2-20.8-36.5-21.3-36.5 21 36.5 21.2z"/></defs><clipPath id="SVGID_128_"><use xlink:href="#SVGID_127_" overflow="visible"/></clipPath><g class="st64"><defs><path id="SVGID_129_" d="M109 67h74v86h-74z"/></defs><clipPath id="SVGID_130_"><use xlink:href="#SVGID_129_" overflow="visible"/></clipPath><path class="st65" d="M104.6 62.9h83v52.2h-83z"/></g></g><g class="st63"><defs><path id="SVGID_131_" d="M146.1 152.3v-42.2l-36.5-21.2-.1 42.2h.1z"/></defs><clipPath id="SVGID_132_"><use xlink:href="#SVGID_131_" overflow="visible"/></clipPath><g class="st66"><defs><path id="SVGID_133_" d="M109 67h74v86h-74z"/></defs><clipPath id="SVGID_134_"><use xlink:href="#SVGID_133_" overflow="visible"/></clipPath><path class="st67" d="M104.5 83.9H151v73.4h-46.5z"/></g></g><g class="st63"><defs><path id="SVGID_135_" d="M182.6 89.2L146.4 110l-.3.1v42.2l36.5-20.9V89.2z"/></defs><clipPath id="SVGID_136_"><use xlink:href="#SVGID_135_" overflow="visible"/></clipPath><g class="st68"><defs><path id="SVGID_137_" d="M109 67h74v86h-74z"/></defs><clipPath id="SVGID_138_"><use xlink:href="#SVGID_137_" overflow="visible"/></clipPath><path class="st69" d="M141.1 84.2h46.5v73.1h-46.5z"/></g></g></g><g class="st0"><defs><path id="SVGID_139_" d="M146 89h74v85h-74z"/></defs><clipPath id="SVGID_140_"><use xlink:href="#SVGID_139_" overflow="visible"/></clipPath><g class="st70"><defs><path id="SVGID_141_" d="M182.6 131.4l.3-.2 36.2-20.8-36.5-21.2-36.5 20.9 36.5 21.3z"/></defs><clipPath id="SVGID_142_"><use xlink:href="#SVGID_141_" overflow="visible"/></clipPath><g class="st71"><defs><path id="SVGID_143_" d="M146 89h74v85h-74z"/></defs><clipPath id="SVGID_144_"><use xlink:href="#SVGID_143_" overflow="visible"/></clipPath><path class="st72" d="M141.1 84.2h83v52.2h-83z"/></g></g><g class="st70"><defs><path id="SVGID_145_" d="M182.6 173.5v-42.1l-36.5-21.3v42.2z"/></defs><clipPath id="SVGID_146_"><use xlink:href="#SVGID_145_" overflow="visible"/></clipPath><g class="st73"><defs><path id="SVGID_147_" d="M146 89h74v85h-74z"/></defs><clipPath id="SVGID_148_"><use xlink:href="#SVGID_147_" overflow="visible"/></clipPath><path class="st74" d="M141.1 105.1h46.5v73.4h-46.5z"/></g></g><g class="st70"><defs><path id="SVGID_149_" d="M182.6 110.4h36.5v63.1h-36.5z"/></defs><clipPath id="SVGID_150_"><use xlink:href="#SVGID_149_" overflow="visible"/></clipPath><g class="st75"><defs><path id="SVGID_151_" d="M146 89h74v85h-74z"/></defs><clipPath id="SVGID_152_"><use xlink:href="#SVGID_151_" overflow="visible"/></clipPath><g class="st76"><defs><path id="SVGID_153_" d="M182 110h38v64h-38z"/></defs><clipPath id="SVGID_154_"><use xlink:href="#SVGID_153_" overflow="visible"/></clipPath><g class="st77"><defs><path id="SVGID_155_" d="M219.1 110.4l-36.2 20.8-.3.2v42.1l36.5-20.9v-42.2z"/></defs><clipPath id="SVGID_156_"><use xlink:href="#SVGID_155_" overflow="visible"/></clipPath><g class="st78"><defs><path id="SVGID_157_" d="M182 110h38v64h-38z"/></defs><clipPath id="SVGID_158_"><use xlink:href="#SVGID_157_" overflow="visible"/></clipPath><path class="st79" d="M177.6 105.4h46.5v73.1h-46.5z"/></g></g></g></g></g></g><g class="st0"><defs><path id="SVGID_159_" d="M36 67h74v86H36z"/></defs><clipPath id="SVGID_160_"><use xlink:href="#SVGID_159_" overflow="visible"/></clipPath><g class="st80"><defs><path id="SVGID_161_" d="M73 109.8l.4-.1 36.2-20.8-36.5-21.2-36.6 20.9L73 109.8z"/></defs><clipPath id="SVGID_162_"><use xlink:href="#SVGID_161_" overflow="visible"/></clipPath><g class="st81"><defs><path id="SVGID_163_" d="M36 67h74v86H36z"/></defs><clipPath id="SVGID_164_"><use xlink:href="#SVGID_163_" overflow="visible"/></clipPath><path class="st82" d="M31.5 62.7h83v52.2h-83z"/></g></g><g class="st80"><defs><path id="SVGID_165_" d="M73 152v-42.2L36.5 88.6v42.2z"/></defs><clipPath id="SVGID_166_"><use xlink:href="#SVGID_165_" overflow="visible"/></clipPath><g class="st83"><defs><path id="SVGID_167_" d="M36 67h74v86H36z"/></defs><clipPath id="SVGID_168_"><use xlink:href="#SVGID_167_" overflow="visible"/></clipPath><path class="st84" d="M31.5 83.6H78V157H31.5z"/></g></g><g class="st80"><defs><path id="SVGID_169_" d="M109.6 88.9l-36.2 20.8-.4.1V152l36.6-20.9V88.9z"/></defs><clipPath id="SVGID_170_"><use xlink:href="#SVGID_169_" overflow="visible"/></clipPath><g class="st85"><defs><path id="SVGID_171_" d="M36 67h74v86H36z"/></defs><clipPath id="SVGID_172_"><use xlink:href="#SVGID_171_" overflow="visible"/></clipPath><path class="st86" d="M68 83.9h46.5V157H68z"/></g></g></g><g class="st0"><defs><path id="SVGID_173_" d="M73 88h74v86H73z"/></defs><clipPath id="SVGID_174_"><use xlink:href="#SVGID_173_" overflow="visible"/></clipPath><g class="st87"><defs><path id="SVGID_175_" d="M109.6 131.1l.3-.2 36.2-20.8-36.5-21.2L73 109.8l36.6 21.3z"/></defs><clipPath id="SVGID_176_"><use xlink:href="#SVGID_175_" overflow="visible"/></clipPath><g class="st88"><defs><path id="SVGID_177_" d="M73 88h74v86H73z"/></defs><clipPath id="SVGID_178_"><use xlink:href="#SVGID_177_" overflow="visible"/></clipPath><path class="st89" d="M68 83.9h83v52.2H68z"/></g></g><g class="st87"><defs><path id="SVGID_179_" d="M109.5 173.2l.1-42.1L73 109.8V152z"/></defs><clipPath id="SVGID_180_"><use xlink:href="#SVGID_179_" overflow="visible"/></clipPath><g class="st90"><defs><path id="SVGID_181_" d="M73 88h74v86H73z"/></defs><clipPath id="SVGID_182_"><use xlink:href="#SVGID_181_" overflow="visible"/></clipPath><path class="st91" d="M68 104.8h46.5v73.4H68z"/></g></g><g class="st87"><defs><path id="SVGID_183_" d="M146.1 110.1l-36.2 20.8-.3.2-.1 42.1v.1l36.6-21v-42.2z"/></defs><clipPath id="SVGID_184_"><use xlink:href="#SVGID_183_" overflow="visible"/></clipPath><g class="st92"><defs><path id="SVGID_185_" d="M73 88h74v86H73z"/></defs><clipPath id="SVGID_186_"><use xlink:href="#SVGID_185_" overflow="visible"/></clipPath><path class="st93" d="M104.5 105.1H151v73.1h-46.5z"/></g></g></g><g class="st0"><defs><path id="SVGID_187_" d="M109 110h74v85h-74z"/></defs><clipPath id="SVGID_188_"><use xlink:href="#SVGID_187_" overflow="visible"/></clipPath><g class="st94"><defs><path id="SVGID_189_" d="M146.1 152.3l.3-.2 36.2-20.7-36.5-21.3-36.5 21 36.5 21.2z"/></defs><clipPath id="SVGID_190_"><use xlink:href="#SVGID_189_" overflow="visible"/></clipPath><g class="st95"><defs><path id="SVGID_191_" d="M109 110h74v85h-74z"/></defs><clipPath id="SVGID_192_"><use xlink:href="#SVGID_191_" overflow="visible"/></clipPath><path class="st96" d="M104.6 105.1h83v52.2h-83z"/></g></g><g class="st94"><defs><path id="SVGID_193_" d="M146 194.5l.1-42.2-36.5-21.2-.1 42.2h.1z"/></defs><clipPath id="SVGID_194_"><use xlink:href="#SVGID_193_" overflow="visible"/></clipPath><g class="st97"><defs><path id="SVGID_195_" d="M109 110h74v85h-74z"/></defs><clipPath id="SVGID_196_"><use xlink:href="#SVGID_195_" overflow="visible"/></clipPath><path class="st98" d="M104.5 126.1H151v73.4h-46.5z"/></g></g><g class="st94"><defs><path id="SVGID_197_" d="M182.6 131.4l-36.2 20.7-.3.2-.1 42.2h.1l36.5-21v-42.1z"/></defs><clipPath id="SVGID_198_"><use xlink:href="#SVGID_197_" overflow="visible"/></clipPath><g class="st99"><defs><path id="SVGID_199_" d="M109 110h74v85h-74z"/></defs><clipPath id="SVGID_200_"><use xlink:href="#SVGID_199_" overflow="visible"/></clipPath><path class="st100" d="M141 126.4h46.5v73.1H141z"/></g></g></g><g class="st0"><defs><path id="SVGID_201_" d="M0 88h74v85H0z"/></defs><clipPath id="SVGID_202_"><use xlink:href="#SVGID_201_" overflow="visible"/></clipPath><g class="st101"><defs><path id="SVGID_203_" d="M36.5 130.8l.3-.2L73 109.8 36.5 88.6 0 109.6l36.5 21.2z"/></defs><clipPath id="SVGID_204_"><use xlink:href="#SVGID_203_" overflow="visible"/></clipPath><g class="st102"><defs><path id="SVGID_205_" d="M0 88h74v85H0z"/></defs><clipPath id="SVGID_206_"><use xlink:href="#SVGID_205_" overflow="visible"/></clipPath><path class="st103" d="M-5 83.6h83v52.2H-5z"/></g></g><g class="st101"><defs><path id="SVGID_207_" d="M0 109.6h36.5V173H0z"/></defs><clipPath id="SVGID_208_"><use xlink:href="#SVGID_207_" overflow="visible"/></clipPath><g class="st104"><defs><path id="SVGID_209_" d="M0 88h74v85H0z"/></defs><clipPath id="SVGID_210_"><use xlink:href="#SVGID_209_" overflow="visible"/></clipPath><g class="st105"><defs><path id="SVGID_211_" d="M0 109h37v64H0z"/></defs><clipPath id="SVGID_212_"><use xlink:href="#SVGID_211_" overflow="visible"/></clipPath><g class="st106"><defs><path id="SVGID_213_" d="M36.5 173v-42.2L0 109.6v42.1z"/></defs><clipPath id="SVGID_214_"><use xlink:href="#SVGID_213_" overflow="visible"/></clipPath><g class="st107"><defs><path id="SVGID_215_" d="M0 109h37v64H0z"/></defs><clipPath id="SVGID_216_"><use xlink:href="#SVGID_215_" overflow="visible"/></clipPath><path class="st108" d="M-5 104.6h46.5V178H-5z"/></g></g></g></g></g><g class="st101"><defs><path id="SVGID_217_" d="M73 109.8l-36.2 20.8-.3.2V173L73 152l.1-42.2H73z"/></defs><clipPath id="SVGID_218_"><use xlink:href="#SVGID_217_" overflow="visible"/></clipPath><g class="st109"><defs><path id="SVGID_219_" d="M0 88h74v85H0z"/></defs><clipPath id="SVGID_220_"><use xlink:href="#SVGID_219_" overflow="visible"/></clipPath><path class="st110" d="M31.5 104.8H78v73.1H31.5z"/></g></g></g><g class="st0"><defs><path id="SVGID_221_" d="M36 109h74v86H36z"/></defs><clipPath id="SVGID_222_"><use xlink:href="#SVGID_221_" overflow="visible"/></clipPath><g class="st111"><defs><path id="SVGID_223_" d="M73 152l.3-.2 36.3-20.7-36.5-21.3-36.6 21L73 152z"/></defs><clipPath id="SVGID_224_"><use xlink:href="#SVGID_223_" overflow="visible"/></clipPath><g class="st112"><defs><path id="SVGID_225_" d="M36 109h74v86H36z"/></defs><clipPath id="SVGID_226_"><use xlink:href="#SVGID_225_" overflow="visible"/></clipPath><path class="st113" d="M31.5 104.8h83V157h-83z"/></g></g><g class="st111"><defs><path id="SVGID_227_" d="M73 194.2V152l-36.5-21.2V173z"/></defs><clipPath id="SVGID_228_"><use xlink:href="#SVGID_227_" overflow="visible"/></clipPath><g class="st114"><defs><path id="SVGID_229_" d="M36 109h74v86H36z"/></defs><clipPath id="SVGID_230_"><use xlink:href="#SVGID_229_" overflow="visible"/></clipPath><path class="st115" d="M31.5 125.8H78v73.4H31.5z"/></g></g><g class="st111"><defs><path id="SVGID_231_" d="M109.6 131.1l-36.3 20.7-.3.2v42.2l36.5-20.9v-.1l.1-42.1z"/></defs><clipPath id="SVGID_232_"><use xlink:href="#SVGID_231_" overflow="visible"/></clipPath><g class="st116"><defs><path id="SVGID_233_" d="M36 109h74v86H36z"/></defs><clipPath id="SVGID_234_"><use xlink:href="#SVGID_233_" overflow="visible"/></clipPath><path class="st117" d="M68 126.1h46.5v73.1H68z"/></g></g></g><g class="st0"><defs><path id="SVGID_235_" d="M73 131h74v85H73z"/></defs><clipPath id="SVGID_236_"><use xlink:href="#SVGID_235_" overflow="visible"/></clipPath><g class="st118"><defs><path id="SVGID_237_" d="M109.5 173.3l.4-.2 36.2-20.8-36.5-21.2L73 152l36.5 21.3z"/></defs><clipPath id="SVGID_238_"><use xlink:href="#SVGID_237_" overflow="visible"/></clipPath><g class="st119"><defs><path id="SVGID_239_" d="M73 131h74v85H73z"/></defs><clipPath id="SVGID_240_"><use xlink:href="#SVGID_239_" overflow="visible"/></clipPath><path class="st120" d="M68 126.1h83v52.2H68z"/></g></g><g class="st118"><defs><path id="SVGID_241_" d="M109.5 215.4v-42.1L73 152v42.2z"/></defs><clipPath id="SVGID_242_"><use xlink:href="#SVGID_241_" overflow="visible"/></clipPath><g class="st121"><defs><path id="SVGID_243_" d="M73 131h74v85H73z"/></defs><clipPath id="SVGID_244_"><use xlink:href="#SVGID_243_" overflow="visible"/></clipPath><path class="st122" d="M68 147h46.5v73.4H68z"/></g></g><g class="st118"><defs><path id="SVGID_245_" d="M146.1 152.3l-36.2 20.8-.4.2v42.1l36.6-20.9v-42.2z"/></defs><clipPath id="SVGID_246_"><use xlink:href="#SVGID_245_" overflow="visible"/></clipPath><g class="st123"><defs><path id="SVGID_247_" d="M73 131h74v85H73z"/></defs><clipPath id="SVGID_248_"><use xlink:href="#SVGID_247_" overflow="visible"/></clipPath><path class="st124" d="M104.5 147.3H151v73.1h-46.5z"/></g></g></g><g class="st0"><defs><path id="SVGID_249_" d="M73 0h74v85H73z"/></defs><clipPath id="SVGID_250_"><use xlink:href="#SVGID_249_" overflow="visible"/></clipPath><g class="st125"><defs><path id="SVGID_251_" d="M73 .4h73v42.2H73z"/></defs><clipPath id="SVGID_252_"><use xlink:href="#SVGID_251_" overflow="visible"/></clipPath><g class="st126"><defs><path id="SVGID_253_" d="M73 0h74v85H73z"/></defs><clipPath id="SVGID_254_"><use xlink:href="#SVGID_253_" overflow="visible"/></clipPath><g class="st127"><defs><path id="SVGID_255_" d="M73 0h74v43H73z"/></defs><clipPath id="SVGID_256_"><use xlink:href="#SVGID_255_" overflow="visible"/></clipPath><g class="st128"><defs><path id="SVGID_257_" d="M109.5 42.6l.4-.2 36.2-20.7L109.5.4 73 21.4l36.5 21.2z"/></defs><clipPath id="SVGID_258_"><use xlink:href="#SVGID_257_" overflow="visible"/></clipPath><g class="st129"><defs><path id="SVGID_259_" d="M73 0h74v43H73z"/></defs><clipPath id="SVGID_260_"><use xlink:href="#SVGID_259_" overflow="visible"/></clipPath><path class="st130" d="M68-4.6h83v52.2H68z"/></g></g></g></g></g><g class="st125"><defs><path id="SVGID_261_" d="M109.5 84.8V42.6L73 21.4v42.2z"/></defs><clipPath id="SVGID_262_"><use xlink:href="#SVGID_261_" overflow="visible"/></clipPath><g class="st131"><defs><path id="SVGID_263_" d="M73 0h74v85H73z"/></defs><clipPath id="SVGID_264_"><use xlink:href="#SVGID_263_" overflow="visible"/></clipPath><path class="st132" d="M68 16.4h46.5v73.4H68z"/></g></g><g class="st125"><defs><path id="SVGID_265_" d="M146.1 21.7l-36.2 20.7-.4.2v42.2h.1l36.5-21V21.7z"/></defs><clipPath id="SVGID_266_"><use xlink:href="#SVGID_265_" overflow="visible"/></clipPath><g class="st133"><defs><path id="SVGID_267_" d="M73 0h74v85H73z"/></defs><clipPath id="SVGID_268_"><use xlink:href="#SVGID_267_" overflow="visible"/></clipPath><path class="st134" d="M104.5 16.7H151v73.1h-46.5z"/></g></g></g><g class="st0"><defs><path id="SVGID_269_" d="M109 21h74v86h-74z"/></defs><clipPath id="SVGID_270_"><use xlink:href="#SVGID_269_" overflow="visible"/></clipPath><g class="st135"><defs><path id="SVGID_271_" d="M146.1 63.8l.3-.1 36.2-20.8-36.5-21.2-36.5 20.9 36.5 21.2z"/></defs><clipPath id="SVGID_272_"><use xlink:href="#SVGID_271_" overflow="visible"/></clipPath><g class="st136"><defs><path id="SVGID_273_" d="M109 21h74v86h-74z"/></defs><clipPath id="SVGID_274_"><use xlink:href="#SVGID_273_" overflow="visible"/></clipPath><path class="st137" d="M104.6 16.7h83v52.2h-83z"/></g></g><g class="st135"><defs><path id="SVGID_275_" d="M146.1 106V63.8l-36.6-21.2v42.2h.1z"/></defs><clipPath id="SVGID_276_"><use xlink:href="#SVGID_275_" overflow="visible"/></clipPath><g class="st138"><defs><path id="SVGID_277_" d="M109 21h74v86h-74z"/></defs><clipPath id="SVGID_278_"><use xlink:href="#SVGID_277_" overflow="visible"/></clipPath><path class="st139" d="M104.5 37.6H151V111h-46.5z"/></g></g><g class="st135"><defs><path id="SVGID_279_" d="M182.6 42.9l-36.2 20.8-.3.1V106l36.5-20.9V42.9z"/></defs><clipPath id="SVGID_280_"><use xlink:href="#SVGID_279_" overflow="visible"/></clipPath><g class="st140"><defs><path id="SVGID_281_" d="M109 21h74v86h-74z"/></defs><clipPath id="SVGID_282_"><use xlink:href="#SVGID_281_" overflow="visible"/></clipPath><path class="st141" d="M141.1 37.9h46.5V111h-46.5z"/></g></g></g><g class="st0"><defs><path id="SVGID_283_" d="M146 42h74v86h-74z"/></defs><clipPath id="SVGID_284_"><use xlink:href="#SVGID_283_" overflow="visible"/></clipPath><g class="st142"><defs><path id="SVGID_285_" d="M182.6 85.1l.3-.2 36.2-20.8-36.5-21.2-36.5 20.9 36.5 21.3z"/></defs><clipPath id="SVGID_286_"><use xlink:href="#SVGID_285_" overflow="visible"/></clipPath><g class="st143"><defs><path id="SVGID_287_" d="M146 42h74v86h-74z"/></defs><clipPath id="SVGID_288_"><use xlink:href="#SVGID_287_" overflow="visible"/></clipPath><path class="st144" d="M141.1 37.9h83v52.2h-83z"/></g></g><g class="st142"><defs><path id="SVGID_289_" d="M182.6 127.2V85.1l-36.5-21.3V106z"/></defs><clipPath id="SVGID_290_"><use xlink:href="#SVGID_289_" overflow="visible"/></clipPath><g class="st145"><defs><path id="SVGID_291_" d="M146 42h74v86h-74z"/></defs><clipPath id="SVGID_292_"><use xlink:href="#SVGID_291_" overflow="visible"/></clipPath><path class="st146" d="M141.1 58.8h46.5v73.4h-46.5z"/></g></g><g class="st142"><defs><path id="SVGID_293_" d="M219.1 64.1l-36.2 20.8-.3.2v42.1l36.5-20.9V64.1z"/></defs><clipPath id="SVGID_294_"><use xlink:href="#SVGID_293_" overflow="visible"/></clipPath><g class="st147"><defs><path id="SVGID_295_" d="M146 42h74v86h-74z"/></defs><clipPath id="SVGID_296_"><use xlink:href="#SVGID_295_" overflow="visible"/></clipPath><path class="st148" d="M177.6 59.1h46.5v73.1h-46.5z"/></g></g></g><g class="st0"><defs><path id="SVGID_297_" d="M36 21h74v85H36z"/></defs><clipPath id="SVGID_298_"><use xlink:href="#SVGID_297_" overflow="visible"/></clipPath><g class="st149"><defs><path id="SVGID_299_" d="M73 63.6l.3-.2 36.2-20.8L73 21.4l-36.5 21L73 63.6z"/></defs><clipPath id="SVGID_300_"><use xlink:href="#SVGID_299_" overflow="visible"/></clipPath><g class="st150"><defs><path id="SVGID_301_" d="M36 21h74v85H36z"/></defs><clipPath id="SVGID_302_"><use xlink:href="#SVGID_301_" overflow="visible"/></clipPath><path class="st151" d="M31.5 16.4h83v52.2h-83z"/></g></g><g class="st149"><defs><path id="SVGID_303_" d="M73 105.8V63.6L36.5 42.4v42.2z"/></defs><clipPath id="SVGID_304_"><use xlink:href="#SVGID_303_" overflow="visible"/></clipPath><g class="st152"><defs><path id="SVGID_305_" d="M36 21h74v85H36z"/></defs><clipPath id="SVGID_306_"><use xlink:href="#SVGID_305_" overflow="visible"/></clipPath><path class="st153" d="M31.5 37.4H78v73.4H31.5z"/></g></g><g class="st149"><defs><path id="SVGID_307_" d="M109.5 42.6L73.3 63.4l-.3.2v42.2l36.6-21V42.6h-.1z"/></defs><clipPath id="SVGID_308_"><use xlink:href="#SVGID_307_" overflow="visible"/></clipPath><g class="st154"><defs><path id="SVGID_309_" d="M36 21h74v85H36z"/></defs><clipPath id="SVGID_310_"><use xlink:href="#SVGID_309_" overflow="visible"/></clipPath><path class="st155" d="M68 37.6h46.5v73.1H68z"/></g></g></g><g class="st0"><defs><path id="SVGID_311_" d="M73 42h74v85H73z"/></defs><clipPath id="SVGID_312_"><use xlink:href="#SVGID_311_" overflow="visible"/></clipPath><g class="st156"><defs><path id="SVGID_313_" d="M109.6 84.8l.3-.2 36.2-20.8-36.5-21.2-36.6 21 36.6 21.2z"/></defs><clipPath id="SVGID_314_"><use xlink:href="#SVGID_313_" overflow="visible"/></clipPath><g class="st157"><defs><path id="SVGID_315_" d="M73 42h74v85H73z"/></defs><clipPath id="SVGID_316_"><use xlink:href="#SVGID_315_" overflow="visible"/></clipPath><path class="st158" d="M68 37.6h83v52.2H68z"/></g></g><g class="st156"><defs><path id="SVGID_317_" d="M109.6 127V84.8L73 63.6v42.2h.1z"/></defs><clipPath id="SVGID_318_"><use xlink:href="#SVGID_317_" overflow="visible"/></clipPath><g class="st159"><defs><path id="SVGID_319_" d="M73 42h74v85H73z"/></defs><clipPath id="SVGID_320_"><use xlink:href="#SVGID_319_" overflow="visible"/></clipPath><path class="st160" d="M68 58.6h46.5V132H68z"/></g></g><g class="st156"><defs><path id="SVGID_321_" d="M146.1 63.8l-36.2 20.8-.3.2V127l36.5-21V63.8z"/></defs><clipPath id="SVGID_322_"><use xlink:href="#SVGID_321_" overflow="visible"/></clipPath><g class="st161"><defs><path id="SVGID_323_" d="M73 42h74v85H73z"/></defs><clipPath id="SVGID_324_"><use xlink:href="#SVGID_323_" overflow="visible"/></clipPath><path class="st162" d="M104.6 58.8h46.5v73.1h-46.5z"/></g></g></g><g class="st0"><defs><path id="SVGID_325_" d="M109 63h74v86h-74z"/></defs><clipPath id="SVGID_326_"><use xlink:href="#SVGID_325_" overflow="visible"/></clipPath><g class="st163"><defs><path id="SVGID_327_" d="M146.1 106l.3-.2 36.1-20.9-36.6-21.1L109.5 85l36.6 21z"/></defs><clipPath id="SVGID_328_"><use xlink:href="#SVGID_327_" overflow="visible"/></clipPath><g class="st164"><defs><path id="SVGID_329_" d="M109 63h74v86h-74z"/></defs><clipPath id="SVGID_330_"><use xlink:href="#SVGID_329_" overflow="visible"/></clipPath><path class="st165" d="M104.5 58.8h83V111h-83z"/></g></g><g class="st163"><defs><path id="SVGID_331_" d="M146.3 148.2l-.2-42.2-36.6-21 .2 42.2z"/></defs><clipPath id="SVGID_332_"><use xlink:href="#SVGID_331_" overflow="visible"/></clipPath><g class="st166"><defs><path id="SVGID_333_" d="M109 63h74v86h-74z"/></defs><clipPath id="SVGID_334_"><use xlink:href="#SVGID_333_" overflow="visible"/></clipPath><path class="st167" d="M104.5 80h46.8v73.2h-46.8z"/></g></g><g class="st163"><defs><path id="SVGID_335_" d="M182.5 84.9l-36.1 20.9-.3.2.2 42.2 36.4-21.1-.2-42.2z"/></defs><clipPath id="SVGID_336_"><use xlink:href="#SVGID_335_" overflow="visible"/></clipPath><g class="st168"><defs><path id="SVGID_337_" d="M109 63h74v86h-74z"/></defs><clipPath id="SVGID_338_"><use xlink:href="#SVGID_337_" overflow="visible"/></clipPath><path class="st169" d="M141.1 79.9h46.6v73.3h-46.6z"/></g></g></g><g class="st0"><defs><path id="SVGID_339_" d="M0 42h74v85H0z"/></defs><clipPath id="SVGID_340_"><use xlink:href="#SVGID_339_" overflow="visible"/></clipPath><g class="st170"><defs><path id="SVGID_341_" d="M36.5 84.5l.3-.1L73 63.6 36.5 42.4 0 63.3l36.5 21.2z"/></defs><clipPath id="SVGID_342_"><use xlink:href="#SVGID_341_" overflow="visible"/></clipPath><g class="st171"><defs><path id="SVGID_343_" d="M0 42h74v85H0z"/></defs><clipPath id="SVGID_344_"><use xlink:href="#SVGID_343_" overflow="visible"/></clipPath><path class="st172" d="M-5 37.4h83v52.2H-5z"/></g></g><g class="st170"><defs><path id="SVGID_345_" d="M36.5 126.7V84.6L0 63.3v42.2z"/></defs><clipPath id="SVGID_346_"><use xlink:href="#SVGID_345_" overflow="visible"/></clipPath><g class="st173"><defs><path id="SVGID_347_" d="M0 42h74v85H0z"/></defs><clipPath id="SVGID_348_"><use xlink:href="#SVGID_347_" overflow="visible"/></clipPath><path class="st174" d="M-5 58.3h46.5v73.4H-5z"/></g></g><g class="st170"><defs><path id="SVGID_349_" d="M73 63.6L36.8 84.4l-.3.1v42.2L73 105.8V63.6z"/></defs><clipPath id="SVGID_350_"><use xlink:href="#SVGID_349_" overflow="visible"/></clipPath><g class="st175"><defs><path id="SVGID_351_" d="M0 42h74v85H0z"/></defs><clipPath id="SVGID_352_"><use xlink:href="#SVGID_351_" overflow="visible"/></clipPath><path class="st176" d="M31.5 58.6H78v73.1H31.5z"/></g></g></g><g class="st0"><defs><path id="SVGID_353_" d="M36 63h74v85H36z"/></defs><clipPath id="SVGID_354_"><use xlink:href="#SVGID_353_" overflow="visible"/></clipPath><g class="st177"><defs><path id="SVGID_355_" d="M73 105.8l.4-.2 36.2-20.8L73 63.6 36.5 84.5 73 105.8z"/></defs><clipPath id="SVGID_356_"><use xlink:href="#SVGID_355_" overflow="visible"/></clipPath><g class="st178"><defs><path id="SVGID_357_" d="M36 63h74v85H36z"/></defs><clipPath id="SVGID_358_"><use xlink:href="#SVGID_357_" overflow="visible"/></clipPath><path class="st179" d="M31.5 58.6h83v52.2h-83z"/></g></g><g class="st177"><defs><path id="SVGID_359_" d="M73 147.9v-42.1L36.5 84.5v42.2z"/></defs><clipPath id="SVGID_360_"><use xlink:href="#SVGID_359_" overflow="visible"/></clipPath><g class="st180"><defs><path id="SVGID_361_" d="M36 63h74v85H36z"/></defs><clipPath id="SVGID_362_"><use xlink:href="#SVGID_361_" overflow="visible"/></clipPath><path class="st181" d="M31.5 79.5H78v73.4H31.5z"/></g></g><g class="st177"><defs><path id="SVGID_363_" d="M109.6 84.8l-36.2 20.8-.4.2v42.1h.1l36.5-20.9V84.8z"/></defs><clipPath id="SVGID_364_"><use xlink:href="#SVGID_363_" overflow="visible"/></clipPath><g class="st182"><defs><path id="SVGID_365_" d="M36 63h74v85H36z"/></defs><clipPath id="SVGID_366_"><use xlink:href="#SVGID_365_" overflow="visible"/></clipPath><path class="st183" d="M68 79.8h46.5v73.1H68z"/></g></g></g><g class="st0"><defs><path id="SVGID_367_" d="M73 84h74v86H73z"/></defs><clipPath id="SVGID_368_"><use xlink:href="#SVGID_367_" overflow="visible"/></clipPath><g class="st184"><defs><path id="SVGID_369_" d="M109.6 127l.3-.2 36.2-20.8-36.5-21.2-36.6 21 36.6 21.2z"/></defs><clipPath id="SVGID_370_"><use xlink:href="#SVGID_369_" overflow="visible"/></clipPath><g class="st185"><defs><path id="SVGID_371_" d="M73 84h74v86H73z"/></defs><clipPath id="SVGID_372_"><use xlink:href="#SVGID_371_" overflow="visible"/></clipPath><path class="st186" d="M68 79.8h83V132H68z"/></g></g><g class="st184"><defs><path id="SVGID_373_" d="M109.6 169.2V127L73 105.8v42.1l.1.1z"/></defs><clipPath id="SVGID_374_"><use xlink:href="#SVGID_373_" overflow="visible"/></clipPath><g class="st187"><defs><path id="SVGID_375_" d="M73 84h74v86H73z"/></defs><clipPath id="SVGID_376_"><use xlink:href="#SVGID_375_" overflow="visible"/></clipPath><path class="st188" d="M68 100.8h46.5v73.4H68z"/></g></g><g class="st184"><defs><path id="SVGID_377_" d="M146.1 106l-36.2 20.8-.3.2v42.2l36.5-21V106z"/></defs><clipPath id="SVGID_378_"><use xlink:href="#SVGID_377_" overflow="visible"/></clipPath><g class="st189"><defs><path id="SVGID_379_" d="M73 84h74v86H73z"/></defs><clipPath id="SVGID_380_"><use xlink:href="#SVGID_379_" overflow="visible"/></clipPath><path class="st190" d="M104.6 101h46.5v73.1h-46.5z"/></g></g></g></svg>