<?xml version="1.0" encoding="utf-8"?>
<!-- Generator: Adobe Illustrator 19.1.1, SVG Export Plug-In . SVG Version: 6.00 Build 0)  -->
<svg version="1.1" id="Слой_1" xmlns="http://www.w3.org/2000/svg" xmlns:xlink="http://www.w3.org/1999/xlink" x="0px" y="0px"
	 viewBox="0 0 125 149" style="enable-background:new 0 0 125 149;" xml:space="preserve">
<style type="text/css">
	.st0{clip-path:url(#SVGID_2_);fill:none;stroke:#DFE5EE;stroke-linejoin:round;stroke-miterlimit:10;}
	.st1{fill:none;}
	.st2{opacity:0.9;enable-background:new    ;}
	.st3{clip-path:url(#SVGID_4_);}
	.st4{clip-path:url(#SVGID_6_);fill:none;stroke:#DFE5EE;stroke-linejoin:round;stroke-miterlimit:10;}
	.st5{clip-path:url(#SVGID_8_);}
	.st6{clip-path:url(#SVGID_10_);fill:none;stroke:#DFE5EE;stroke-linejoin:round;stroke-miterlimit:10;}
	.st7{clip-path:url(#SVGID_12_);}
	.st8{clip-path:url(#SVGID_14_);fill:none;stroke:#DFE5EE;stroke-linejoin:round;stroke-miterlimit:10;}
	.st9{clip-path:url(#SVGID_16_);}
	.st10{clip-path:url(#SVGID_18_);fill:none;stroke:#DFE5EE;stroke-linejoin:round;stroke-miterlimit:10;}
	.st11{clip-path:url(#SVGID_20_);}
	.st12{clip-path:url(#SVGID_22_);fill:none;stroke:#DFE5EE;stroke-linejoin:round;stroke-miterlimit:10;}
	.st13{clip-path:url(#SVGID_24_);}
	.st14{clip-path:url(#SVGID_26_);fill:none;stroke:#DFE5EE;stroke-linejoin:round;stroke-miterlimit:10;}
	.st15{clip-path:url(#SVGID_28_);}
	.st16{clip-path:url(#SVGID_30_);fill:none;stroke:#DFE5EE;stroke-linejoin:round;stroke-miterlimit:10;}
	.st17{clip-path:url(#SVGID_32_);}
	.st18{clip-path:url(#SVGID_34_);fill:none;stroke:#DFE5EE;stroke-linejoin:round;stroke-miterlimit:10;}
	.st19{clip-path:url(#SVGID_36_);}
	.st20{clip-path:url(#SVGID_38_);fill:none;stroke:#DFE5EE;stroke-linejoin:round;stroke-miterlimit:10;}
	.st21{clip-path:url(#SVGID_40_);}
	.st22{clip-path:url(#SVGID_42_);fill:none;stroke:#DFE5EE;stroke-linejoin:round;stroke-miterlimit:10;}
	.st23{clip-path:url(#SVGID_44_);}
	.st24{clip-path:url(#SVGID_46_);fill:none;stroke:#DFE5EE;stroke-linejoin:round;stroke-miterlimit:10;}
	.st25{clip-path:url(#SVGID_48_);}
	.st26{clip-path:url(#SVGID_50_);fill:none;stroke:#DFE5EE;stroke-linejoin:round;stroke-miterlimit:10;}
	.st27{clip-path:url(#SVGID_52_);}
	.st28{clip-path:url(#SVGID_54_);fill:none;stroke:#DFE5EE;stroke-linejoin:round;stroke-miterlimit:10;}
	.st29{clip-path:url(#SVGID_56_);}
	.st30{clip-path:url(#SVGID_58_);fill:none;stroke:#DFE5EE;stroke-linejoin:round;stroke-miterlimit:10;}
	.st31{clip-path:url(#SVGID_60_);}
	.st32{clip-path:url(#SVGID_62_);fill:none;stroke:#DFE5EE;stroke-linejoin:round;stroke-miterlimit:10;}
	.st33{clip-path:url(#SVGID_64_);}
	.st34{clip-path:url(#SVGID_66_);fill:none;stroke:#DFE5EE;stroke-linejoin:round;stroke-miterlimit:10;}
	.st35{clip-path:url(#SVGID_68_);}
	.st36{clip-path:url(#SVGID_70_);fill:none;stroke:#DFE5EE;stroke-linejoin:round;stroke-miterlimit:10;}
	.st37{clip-path:url(#SVGID_72_);}
	.st38{clip-path:url(#SVGID_74_);fill:none;stroke:#DFE5EE;stroke-linejoin:round;stroke-miterlimit:10;}
</style>
<g>
	<defs>
		<rect id="SVGID_1_" y="51" width="125" height="98"/>
	</defs>
	<clipPath id="SVGID_2_">
		<use xlink:href="#SVGID_1_"  style="overflow:visible;"/>
	</clipPath>
	<polygon class="st0" points="62.2,76.6 62.2,76.6 62.2,76.6 62.4,76.5 82.7,64.8 62.2,53 62.2,53 62.2,53 41.8,64.7 62.2,76.6 	"/>
	<polygon class="st0" points="62.2,100.1 62.2,100.1 62.2,100.1 62.2,76.6 41.8,64.7 41.8,64.7 41.8,88.3 41.8,88.3 	"/>
	<polygon class="st0" points="82.7,64.8 62.4,76.5 62.2,76.6 62.2,76.6 62.2,100.1 62.2,100.1 62.2,100.1 82.7,88.4 82.7,88.4 
		82.7,88.4 82.7,64.8 82.7,64.8 	"/>
	<polygon class="st0" points="82.7,88.4 82.7,88.4 82.7,88.4 82.8,88.3 103.1,76.7 82.7,64.8 82.7,64.8 82.7,64.8 62.2,76.6 
		82.7,88.4 	"/>
	<polygon class="st0" points="82.7,112 82.7,112 82.7,112 82.7,88.4 62.2,76.6 62.2,76.6 62.2,100.1 62.3,100.1 	"/>
	<polygon class="st0" points="103.1,76.7 82.8,88.3 82.7,88.4 82.7,88.4 82.7,112 82.7,112 82.7,112 103.1,100.3 103.1,100.3 
		103.1,100.3 103.1,76.7 103.1,76.7 	"/>
	<polygon class="st0" points="103.1,100.3 103.1,100.3 103.1,100.3 103.3,100.2 123.5,88.6 103.1,76.7 103.1,76.7 103.1,76.7 
		82.7,88.4 103.1,100.3 	"/>
	<path class="st0" d="M103.1,124.3L103.1,124.3L103.1,124.3l0.2-0.1 M123.5,112.6l-20.4-11.9v0l0,0"/>
	<polygon class="st0" points="103.1,123.8 103.1,123.8 103.1,123.8 103.1,100.3 82.7,88.4 82.7,88.4 82.7,112 82.7,112 	"/>
	<polygon class="st0" points="123.5,88.6 103.3,100.2 103.1,100.3 103.1,100.3 103.1,123.8 103.1,123.8 103.1,123.8 123.5,112.1 
		123.5,112.1 123.5,112.1 123.5,88.6 123.5,88.6 	"/>
	<polygon class="st0" points="41.8,88.3 41.8,88.3 41.8,88.3 42,88.2 62.2,76.5 41.8,64.7 41.8,64.7 41.8,64.7 21.4,76.4 41.8,88.3 
			"/>
	<polygon class="st0" points="41.8,111.8 41.8,111.8 41.8,111.8 41.8,88.3 21.4,76.4 21.4,76.4 21.4,100 21.4,100 	"/>
	<polygon class="st0" points="62.2,76.6 42,88.2 41.8,88.3 41.8,88.3 41.8,111.8 41.8,111.8 41.8,111.8 62.2,100.1 62.2,100.1 
		62.2,100.1 62.2,76.6 62.2,76.6 	"/>
	<polygon class="st0" points="62.3,100.1 62.3,100.1 62.3,100.1 62.4,100 82.7,88.4 62.3,76.5 62.3,76.6 62.2,76.5 41.8,88.3 
		62.2,100.1 	"/>
	<polygon class="st0" points="62.2,123.7 62.2,123.7 62.3,123.7 62.3,100.1 41.8,88.3 41.8,88.3 41.8,111.8 41.8,111.8 	"/>
	<polygon class="st0" points="82.7,88.4 62.4,100 62.3,100.1 62.3,100.1 62.3,123.7 62.3,123.7 62.3,123.7 82.7,112 82.7,112 
		82.7,112 82.7,88.4 82.7,88.4 	"/>
	<polygon class="st0" points="82.7,112 82.7,112 82.7,112 82.8,111.9 103.1,100.3 82.7,88.4 82.7,88.4 82.7,88.4 62.3,100.1 
		82.7,112 	"/>
	<polygon class="st0" points="82.7,135.6 82.7,135.6 82.7,135.6 82.7,112 62.3,100.1 62.3,100.1 62.3,123.7 62.3,123.7 	"/>
	<polygon class="st0" points="103.1,100.3 82.8,111.9 82.7,112 82.7,112 82.7,135.6 82.7,135.6 82.7,135.6 103.1,123.8 103.1,123.8 
		103.1,123.8 103.1,100.3 103.1,100.3 	"/>
	<polygon class="st0" points="21.4,100 21.4,100 21.4,100 21.6,99.9 41.8,88.3 21.4,76.4 21.4,76.4 21.4,76.4 1,88.1 21.4,100 	"/>
	<polygon class="st0" points="21.4,123.6 21.4,100 1,88.1 1,111.7 	"/>
	<polygon class="st0" points="41.8,88.3 21.6,99.9 21.4,100 21.4,100 21.4,123.6 21.4,123.6 21.4,123.6 41.8,111.8 41.8,111.8 
		41.8,111.8 41.8,88.3 41.8,88.3 	"/>
	<polygon class="st0" points="41.8,111.8 41.8,111.8 41.8,111.8 42,111.7 62.2,100.1 41.8,88.3 41.8,88.3 41.8,88.3 21.4,100 
		41.8,111.8 	"/>
	<polygon class="st0" points="41.8,135.4 41.8,135.4 41.8,135.4 41.8,111.8 21.4,100 21.4,100 21.4,123.6 21.4,123.6 	"/>
	<polygon class="st0" points="62.3,100.1 42,111.7 41.8,111.8 41.8,111.8 41.8,135.4 41.8,135.4 41.8,135.4 62.3,123.7 62.3,123.7 
		62.3,123.7 62.3,100.1 62.3,100.1 	"/>
	<polygon class="st0" points="62.3,123.7 62.3,123.7 62.3,123.7 62.4,123.6 82.7,112 62.3,100.1 62.3,100.1 62.3,100.1 41.8,111.8 
		62.3,123.7 	"/>
	<polygon class="st0" points="62.3,147.3 62.3,147.3 62.3,147.3 62.3,123.7 41.8,111.8 41.8,111.8 41.8,135.4 41.8,135.4 	"/>
	<polygon class="st0" points="82.7,112 62.4,123.6 62.3,123.7 62.3,123.7 62.3,147.3 62.3,147.3 62.3,147.3 82.7,135.6 82.7,135.6 
		82.7,135.6 82.7,112 82.7,112 	"/>
	<line class="st0" x1="1" y1="112" x2="21" y2="100"/>
</g>
<rect y="51" class="st1" width="125" height="98"/>
<g class="st2">
	<g>
		<defs>
			<rect id="SVGID_3_" x="40" y="26" width="44" height="49"/>
		</defs>
		<clipPath id="SVGID_4_">
			<use xlink:href="#SVGID_3_"  style="overflow:visible;"/>
		</clipPath>
		<g class="st3">
			<defs>
				<rect id="SVGID_5_" x="40" y="26" width="44" height="49"/>
			</defs>
			<clipPath id="SVGID_6_">
				<use xlink:href="#SVGID_5_"  style="overflow:visible;"/>
			</clipPath>
			<polygon class="st4" points="62.3,50.7 62.3,50.7 62.3,50.7 62.4,50.6 82.7,39 62.3,27.1 62.3,27.1 62.3,27.1 62.3,27.1 
				41.8,38.8 62.3,50.7 			"/>
			<polygon class="st4" points="62.2,74.3 62.2,74.3 62.2,74.3 62.3,50.7 41.8,38.8 41.8,38.8 41.8,62.4 41.8,62.4 			"/>
			<polygon class="st4" points="82.7,39 62.4,50.6 62.3,50.7 62.3,50.7 62.2,74.3 62.2,74.3 62.2,74.3 62.2,74.3 82.7,62.6 
				82.7,62.6 82.7,62.6 82.7,39 82.7,39 			"/>
		</g>
	</g>
</g>
<g class="st2">
	<g>
		<defs>
			<rect id="SVGID_7_" x="61" y="37" width="43" height="50"/>
		</defs>
		<clipPath id="SVGID_8_">
			<use xlink:href="#SVGID_7_"  style="overflow:visible;"/>
		</clipPath>
		<g class="st5">
			<defs>
				<rect id="SVGID_9_" x="61" y="37" width="43" height="50"/>
			</defs>
			<clipPath id="SVGID_10_">
				<use xlink:href="#SVGID_9_"  style="overflow:visible;"/>
			</clipPath>
			<polygon class="st6" points="82.7,62.6 82.7,62.6 82.7,62.6 82.8,62.5 103.1,50.8 82.7,39 82.7,39 82.7,39 82.7,39 62.3,50.7 
				82.7,62.6 			"/>
			<polygon class="st6" points="82.7,86.1 82.7,86.1 82.7,86.1 82.7,62.6 62.3,50.7 62.3,50.7 62.3,50.7 62.2,74.3 62.3,74.3 			"/>
			<polygon class="st6" points="103.1,50.8 82.8,62.5 82.7,62.6 82.7,62.6 82.7,86.1 82.7,86.1 82.7,86.1 82.7,86.1 103.1,74.4 
				103.1,74.4 103.1,74.4 103.1,50.8 103.1,50.8 			"/>
		</g>
	</g>
</g>
<g class="st2">
	<g>
		<defs>
			<rect id="SVGID_11_" x="81" y="49" width="44" height="50"/>
		</defs>
		<clipPath id="SVGID_12_">
			<use xlink:href="#SVGID_11_"  style="overflow:visible;"/>
		</clipPath>
		<g class="st7">
			<defs>
				<rect id="SVGID_13_" x="81" y="49" width="44" height="50"/>
			</defs>
			<clipPath id="SVGID_14_">
				<use xlink:href="#SVGID_13_"  style="overflow:visible;"/>
			</clipPath>
			<polygon class="st8" points="103.1,74.4 103.1,74.4 103.1,74.4 103.3,74.3 123.5,62.7 103.1,50.8 103.1,50.8 103.1,50.8 
				103.1,50.8 82.7,62.6 103.1,74.4 			"/>
			<polygon class="st8" points="103.1,98 103.1,98 103.1,98 103.1,74.4 82.7,62.6 82.7,62.6 82.7,62.6 82.7,86.1 82.7,86.1 			"/>
			<polygon class="st8" points="123.5,62.7 103.3,74.3 103.1,74.4 103.1,74.4 103.1,98 103.1,98 103.1,98 103.1,98 123.5,86.3 
				123.5,86.3 123.5,86.3 123.5,62.7 123.5,62.7 			"/>
		</g>
	</g>
</g>
<g class="st2">
	<g>
		<defs>
			<rect id="SVGID_15_" x="20" y="37" width="44" height="50"/>
		</defs>
		<clipPath id="SVGID_16_">
			<use xlink:href="#SVGID_15_"  style="overflow:visible;"/>
		</clipPath>
		<g class="st9">
			<defs>
				<rect id="SVGID_17_" x="20" y="37" width="44" height="50"/>
			</defs>
			<clipPath id="SVGID_18_">
				<use xlink:href="#SVGID_17_"  style="overflow:visible;"/>
			</clipPath>
			<polygon class="st10" points="41.8,62.4 41.8,62.4 41.8,62.4 42,62.3 62.3,50.7 41.8,38.8 41.8,38.8 41.8,38.8 41.8,38.8 
				21.4,50.5 41.8,62.4 			"/>
			<polygon class="st10" points="41.8,86 41.8,86 41.8,86 41.8,62.4 21.4,50.5 21.4,50.5 21.4,74.1 21.4,74.1 			"/>
			<polygon class="st10" points="62.3,50.7 42,62.3 41.8,62.4 41.8,62.4 41.8,86 41.8,86 41.8,86 41.8,86 62.2,74.3 62.2,74.3 
				62.2,74.3 62.3,50.7 62.3,50.7 			"/>
		</g>
	</g>
</g>
<g class="st2">
	<g>
		<defs>
			<rect id="SVGID_19_" x="40" y="49" width="44" height="50"/>
		</defs>
		<clipPath id="SVGID_20_">
			<use xlink:href="#SVGID_19_"  style="overflow:visible;"/>
		</clipPath>
		<g class="st11">
			<defs>
				<rect id="SVGID_21_" x="40" y="49" width="44" height="50"/>
			</defs>
			<clipPath id="SVGID_22_">
				<use xlink:href="#SVGID_21_"  style="overflow:visible;"/>
			</clipPath>
			<polygon class="st12" points="62.3,74.3 62.3,74.3 62.3,74.3 62.4,74.2 82.7,62.6 62.3,50.7 62.3,50.7 62.3,50.7 62.3,50.7 
				41.8,62.4 62.2,74.3 			"/>
			<polygon class="st12" points="62.2,97.8 62.2,97.8 62.2,97.8 62.3,74.3 41.8,62.4 41.8,62.4 41.8,62.4 41.8,86 41.8,86 			"/>
			<polygon class="st12" points="82.7,62.6 62.4,74.2 62.3,74.3 62.2,74.3 62.2,97.8 62.2,97.8 62.2,97.8 62.2,97.8 82.7,86.1 
				82.7,86.1 82.7,86.1 82.7,62.6 82.7,62.6 			"/>
		</g>
	</g>
</g>
<g class="st2">
	<g>
		<defs>
			<rect id="SVGID_23_" x="61" y="61" width="43" height="50"/>
		</defs>
		<clipPath id="SVGID_24_">
			<use xlink:href="#SVGID_23_"  style="overflow:visible;"/>
		</clipPath>
		<g class="st13">
			<defs>
				<rect id="SVGID_25_" x="61" y="61" width="43" height="50"/>
			</defs>
			<clipPath id="SVGID_26_">
				<use xlink:href="#SVGID_25_"  style="overflow:visible;"/>
			</clipPath>
			<polygon class="st14" points="82.7,86.1 82.7,86.1 82.7,86.1 82.8,86 103.1,74.4 82.7,62.6 82.7,62.6 82.7,62.6 82.7,62.6 
				62.3,74.3 82.7,86.1 			"/>
			<polygon class="st14" points="82.7,109.7 82.7,109.7 82.7,109.7 82.7,86.1 62.3,74.3 62.3,74.3 62.2,97.8 62.3,97.8 			"/>
			<polygon class="st14" points="103.1,74.4 82.8,86 82.7,86.1 82.7,86.1 82.7,109.7 82.7,109.7 82.7,109.7 82.7,109.7 103.1,98 
				103.1,98 103.1,98 103.1,74.4 103.1,74.4 			"/>
		</g>
	</g>
</g>
<g class="st2">
	<g>
		<defs>
			<rect id="SVGID_27_" y="49" width="43" height="50"/>
		</defs>
		<clipPath id="SVGID_28_">
			<use xlink:href="#SVGID_27_"  style="overflow:visible;"/>
		</clipPath>
		<g class="st15">
			<defs>
				<rect id="SVGID_29_" y="49" width="43" height="50"/>
			</defs>
			<clipPath id="SVGID_30_">
				<use xlink:href="#SVGID_29_"  style="overflow:visible;"/>
			</clipPath>
			<polygon class="st16" points="21.4,74.1 21.4,74.1 21.4,74.1 21.6,74 41.8,62.4 21.4,50.5 21.4,50.5 21.4,50.5 21.4,50.5 1,62.2 
				21.4,74.1 			"/>
			<polygon class="st16" points="21.4,97.7 21.4,97.7 21.4,97.7 21.4,74.1 1,62.2 1,62.2 1,85.8 1,85.8 			"/>
			<polygon class="st16" points="41.8,62.4 21.6,74 21.4,74.1 21.4,74.1 21.4,97.7 21.4,97.7 21.4,97.7 21.4,97.7 41.8,86 41.8,86 
				41.8,86 41.8,62.4 41.8,62.4 			"/>
		</g>
	</g>
</g>
<g class="st2">
	<g>
		<defs>
			<rect id="SVGID_31_" x="20" y="61" width="44" height="50"/>
		</defs>
		<clipPath id="SVGID_32_">
			<use xlink:href="#SVGID_31_"  style="overflow:visible;"/>
		</clipPath>
		<g class="st17">
			<defs>
				<rect id="SVGID_33_" x="20" y="61" width="44" height="50"/>
			</defs>
			<clipPath id="SVGID_34_">
				<use xlink:href="#SVGID_33_"  style="overflow:visible;"/>
			</clipPath>
			<polygon class="st18" points="41.8,86 41.8,86 41.8,86 42,85.9 62.2,74.3 41.8,62.4 41.8,62.4 41.8,62.4 41.8,62.4 21.4,74.1 
				41.8,86 			"/>
			<polygon class="st18" points="41.8,109.5 41.8,109.5 41.8,109.5 41.8,86 21.4,74.1 21.4,74.1 21.4,97.7 21.4,97.7 			"/>
			<polygon class="st18" points="62.3,74.3 42,85.9 41.8,86 41.8,86 41.8,109.5 41.8,109.5 41.8,109.5 41.8,109.5 62.2,97.8 
				62.2,97.8 62.2,97.8 62.3,74.3 62.3,74.3 			"/>
		</g>
	</g>
</g>
<g class="st2">
	<g>
		<defs>
			<rect id="SVGID_35_" x="40" y="73" width="44" height="50"/>
		</defs>
		<clipPath id="SVGID_36_">
			<use xlink:href="#SVGID_35_"  style="overflow:visible;"/>
		</clipPath>
		<g class="st19">
			<defs>
				<rect id="SVGID_37_" x="40" y="73" width="44" height="50"/>
			</defs>
			<clipPath id="SVGID_38_">
				<use xlink:href="#SVGID_37_"  style="overflow:visible;"/>
			</clipPath>
			<polygon class="st20" points="62.2,97.8 62.2,97.8 62.2,97.8 62.4,97.7 82.7,86.1 62.3,74.3 62.3,74.3 62.3,74.3 62.3,74.3 
				41.8,86 62.2,97.8 			"/>
			<polygon class="st20" points="62.2,121.4 62.2,121.4 62.2,121.4 62.2,97.8 41.8,86 41.8,86 41.8,86 41.8,109.5 41.8,109.6 			"/>
			<polygon class="st20" points="82.7,86.1 62.4,97.7 62.2,97.8 62.2,97.8 62.2,121.4 62.2,121.4 62.2,121.4 62.2,121.4 82.7,109.7 
				82.7,109.7 82.7,109.7 82.7,86.1 82.7,86.1 			"/>
		</g>
	</g>
</g>
<g class="st2">
	<g>
		<defs>
			<rect id="SVGID_39_" x="40" width="44" height="50"/>
		</defs>
		<clipPath id="SVGID_40_">
			<use xlink:href="#SVGID_39_"  style="overflow:visible;"/>
		</clipPath>
		<g class="st21">
			<defs>
				<rect id="SVGID_41_" x="40" width="44" height="50"/>
			</defs>
			<clipPath id="SVGID_42_">
				<use xlink:href="#SVGID_41_"  style="overflow:visible;"/>
			</clipPath>
			<polygon class="st22" points="62.2,24.8 62.2,24.8 62.2,24.8 62.4,24.7 82.7,13.1 62.2,1.2 62.2,1.3 62.2,1.2 41.8,13 62.2,24.8 
							"/>
			<polygon class="st22" points="62.2,48.4 62.2,48.4 62.2,48.4 62.2,24.8 41.8,13 41.8,13 41.8,36.5 41.8,36.5 			"/>
			<polygon class="st22" points="82.7,13.1 62.4,24.7 62.2,24.8 62.2,24.8 62.2,48.4 62.2,48.4 62.2,48.4 82.7,36.7 82.7,36.7 
				82.7,36.7 82.7,13.1 82.7,13.1 			"/>
		</g>
	</g>
</g>
<g class="st2">
	<g>
		<defs>
			<rect id="SVGID_43_" x="61" y="12" width="43" height="49"/>
		</defs>
		<clipPath id="SVGID_44_">
			<use xlink:href="#SVGID_43_"  style="overflow:visible;"/>
		</clipPath>
		<g class="st23">
			<defs>
				<rect id="SVGID_45_" x="61" y="12" width="43" height="49"/>
			</defs>
			<clipPath id="SVGID_46_">
				<use xlink:href="#SVGID_45_"  style="overflow:visible;"/>
			</clipPath>
			<polygon class="st24" points="82.7,36.7 82.7,36.7 82.7,36.7 82.8,36.6 103.1,25 82.7,13.1 82.7,13.1 82.7,13.1 62.2,24.8 
				82.7,36.7 			"/>
			<polygon class="st24" points="82.7,60.3 82.7,60.3 82.7,60.3 82.7,36.7 62.2,24.8 62.2,24.8 62.2,48.4 62.3,48.4 			"/>
			<polygon class="st24" points="103.1,25 82.8,36.6 82.7,36.7 82.7,36.7 82.7,60.3 82.7,60.3 82.7,60.3 103.1,48.5 103.1,48.5 
				103.1,48.5 103.1,25 103.1,25 			"/>
		</g>
	</g>
</g>
<g class="st2">
	<g>
		<defs>
			<rect id="SVGID_47_" x="81" y="23" width="44" height="51"/>
		</defs>
		<clipPath id="SVGID_48_">
			<use xlink:href="#SVGID_47_"  style="overflow:visible;"/>
		</clipPath>
		<g class="st25">
			<defs>
				<rect id="SVGID_49_" x="81" y="23" width="44" height="51"/>
			</defs>
			<clipPath id="SVGID_50_">
				<use xlink:href="#SVGID_49_"  style="overflow:visible;"/>
			</clipPath>
			<polygon class="st26" points="103.1,48.5 103.1,48.5 103.1,48.5 103.3,48.4 123.5,36.8 103.1,25 103.1,25 103.1,25 82.7,36.7 
				103.1,48.5 			"/>
			<polygon class="st26" points="103.1,72.1 103.1,72.1 103.1,72.1 103.1,48.5 82.7,36.7 82.7,36.7 82.7,60.3 82.7,60.3 			"/>
			<polygon class="st26" points="123.5,36.8 103.3,48.4 103.1,48.5 103.1,48.5 103.1,72.1 103.1,72.1 103.1,72.1 123.5,60.4 
				123.5,60.4 123.5,60.4 123.5,36.8 123.5,36.8 			"/>
		</g>
	</g>
</g>
<g class="st2">
	<g>
		<defs>
			<rect id="SVGID_51_" x="20" y="11" width="44" height="50"/>
		</defs>
		<clipPath id="SVGID_52_">
			<use xlink:href="#SVGID_51_"  style="overflow:visible;"/>
		</clipPath>
		<g class="st27">
			<defs>
				<rect id="SVGID_53_" x="20" y="11" width="44" height="50"/>
			</defs>
			<clipPath id="SVGID_54_">
				<use xlink:href="#SVGID_53_"  style="overflow:visible;"/>
			</clipPath>
			<polygon class="st28" points="41.8,36.5 41.8,36.5 41.8,36.5 42,36.4 62.2,24.8 41.8,13 41.8,13 41.8,13 21.4,24.7 41.8,36.5 			
				"/>
			<polygon class="st28" points="41.8,60.1 41.8,60.1 41.8,60.1 41.8,36.5 21.4,24.7 21.4,24.7 21.4,48.3 21.4,48.3 			"/>
			<polygon class="st28" points="62.2,24.8 42,36.4 41.8,36.5 41.8,36.5 41.8,60.1 41.8,60.1 41.8,60.1 62.2,48.4 62.2,48.4 
				62.2,48.4 62.2,24.8 62.2,24.8 			"/>
		</g>
	</g>
</g>
<g class="st2">
	<g>
		<defs>
			<rect id="SVGID_55_" x="40" y="23" width="44" height="50"/>
		</defs>
		<clipPath id="SVGID_56_">
			<use xlink:href="#SVGID_55_"  style="overflow:visible;"/>
		</clipPath>
		<g class="st29">
			<defs>
				<rect id="SVGID_57_" x="40" y="23" width="44" height="50"/>
			</defs>
			<clipPath id="SVGID_58_">
				<use xlink:href="#SVGID_57_"  style="overflow:visible;"/>
			</clipPath>
			<polygon class="st30" points="62.3,48.4 62.3,48.4 62.3,48.4 62.4,48.3 82.7,36.7 62.3,24.8 62.3,24.8 62.2,24.8 41.8,36.5 
				62.2,48.4 			"/>
			<polygon class="st30" points="62.2,72 62.2,72 62.3,72 62.3,48.4 41.8,36.5 41.8,36.5 41.8,60.1 41.8,60.1 			"/>
			<polygon class="st30" points="82.7,36.7 62.4,48.3 62.3,48.4 62.3,48.4 62.3,72 62.3,72 62.3,72 82.7,60.3 82.7,60.3 82.7,60.3 
				82.7,36.7 82.7,36.7 			"/>
		</g>
	</g>
</g>
<g class="st2">
	<g>
		<defs>
			<rect id="SVGID_59_" x="61" y="35" width="43" height="50"/>
		</defs>
		<clipPath id="SVGID_60_">
			<use xlink:href="#SVGID_59_"  style="overflow:visible;"/>
		</clipPath>
		<g class="st31">
			<defs>
				<rect id="SVGID_61_" x="61" y="35" width="43" height="50"/>
			</defs>
			<clipPath id="SVGID_62_">
				<use xlink:href="#SVGID_61_"  style="overflow:visible;"/>
			</clipPath>
			<polygon class="st32" points="82.7,60.3 82.7,60.3 82.7,60.3 82.8,60.2 103,48.4 82.6,36.7 82.6,36.7 62.2,48.5 82.7,60.3 			"/>
			<polygon class="st32" points="82.8,83.8 82.8,83.8 82.8,83.8 82.7,60.3 62.2,48.5 62.2,48.5 62.2,48.5 62.3,72.1 62.3,72.1 			
				"/>
			<polygon class="st32" points="103,48.4 82.8,60.2 82.7,60.3 82.7,60.3 82.8,83.8 82.8,83.8 82.8,83.8 82.8,83.8 103.1,72 
				103.1,72 103,48.4 103,48.4 			"/>
		</g>
	</g>
</g>
<g class="st2">
	<g>
		<defs>
			<rect id="SVGID_63_" y="23" width="43" height="50"/>
		</defs>
		<clipPath id="SVGID_64_">
			<use xlink:href="#SVGID_63_"  style="overflow:visible;"/>
		</clipPath>
		<g class="st33">
			<defs>
				<rect id="SVGID_65_" y="23" width="43" height="50"/>
			</defs>
			<clipPath id="SVGID_66_">
				<use xlink:href="#SVGID_65_"  style="overflow:visible;"/>
			</clipPath>
			<polygon class="st34" points="21.4,48.3 21.4,48.3 21.4,48.3 21.6,48.2 41.8,36.5 21.4,24.7 21.4,24.7 21.4,24.7 1,36.4 
				21.4,48.3 			"/>
			<polygon class="st34" points="21.4,71.8 21.4,71.8 21.4,71.8 21.4,48.3 1,36.4 1,36.4 1,60 1,60 			"/>
			<polygon class="st34" points="41.8,36.5 21.6,48.2 21.4,48.3 21.4,48.3 21.4,71.8 21.4,71.8 21.4,71.8 41.8,60.1 41.8,60.1 
				41.8,60.1 41.8,36.5 41.8,36.5 			"/>
		</g>
	</g>
</g>
<g class="st2">
	<g>
		<defs>
			<rect id="SVGID_67_" x="20" y="35" width="44" height="50"/>
		</defs>
		<clipPath id="SVGID_68_">
			<use xlink:href="#SVGID_67_"  style="overflow:visible;"/>
		</clipPath>
		<g class="st35">
			<defs>
				<rect id="SVGID_69_" x="20" y="35" width="44" height="50"/>
			</defs>
			<clipPath id="SVGID_70_">
				<use xlink:href="#SVGID_69_"  style="overflow:visible;"/>
			</clipPath>
			<polygon class="st36" points="41.8,60.1 41.8,60.1 41.8,60.1 42,60 62.2,48.4 41.8,36.5 41.8,36.5 41.8,36.5 21.4,48.3 
				41.8,60.1 			"/>
			<polygon class="st36" points="41.8,83.7 41.8,83.7 41.8,83.7 41.8,60.1 21.4,48.3 21.4,48.3 21.4,71.8 21.4,71.8 			"/>
			<polygon class="st36" points="62.3,48.4 42,60 41.8,60.1 41.8,60.1 41.8,83.7 41.8,83.7 41.8,83.7 62.3,72 62.3,72 62.3,72 
				62.3,48.4 62.3,48.4 			"/>
		</g>
	</g>
</g>
<g class="st2">
	<g>
		<defs>
			<rect id="SVGID_71_" x="40" y="47" width="44" height="50"/>
		</defs>
		<clipPath id="SVGID_72_">
			<use xlink:href="#SVGID_71_"  style="overflow:visible;"/>
		</clipPath>
		<g class="st37">
			<defs>
				<rect id="SVGID_73_" x="40" y="47" width="44" height="50"/>
			</defs>
			<clipPath id="SVGID_74_">
				<use xlink:href="#SVGID_73_"  style="overflow:visible;"/>
			</clipPath>
			<polygon class="st38" points="62.3,72 62.3,72 62.3,72 62.4,71.9 82.7,60.3 62.3,48.4 62.3,48.4 62.3,48.4 41.8,60.1 62.3,72 			
				"/>
			<polygon class="st38" points="62.3,95.5 62.3,95.5 62.3,95.5 62.3,72 41.8,60.1 41.8,60.1 41.8,83.7 41.8,83.7 			"/>
			<polygon class="st38" points="82.7,60.3 62.4,71.9 62.3,72 62.3,72 62.3,95.5 62.3,95.5 62.3,95.5 82.7,83.8 82.7,83.8 
				82.7,83.8 82.7,60.3 82.7,60.3 			"/>
		</g>
	</g>
</g>
</svg>
