<!-- Generator: Adobe Illustrator 19.1.1, SVG Export Plug-In  -->
<svg version="1.1"
	 xmlns="http://www.w3.org/2000/svg" xmlns:xlink="http://www.w3.org/1999/xlink" xmlns:a="http://ns.adobe.com/AdobeSVGViewerExtensions/3.0/"
	 x="0px" y="0px" width="156.1px" height="115.6px" viewBox="0 0 156.1 115.6" style="enable-background:new 0 0 156.1 115.6;"
	 xml:space="preserve">
<style type="text/css">
	.st0{opacity:0.9;enable-background:new    ;}
	.st1{clip-path:url(#SVGID_2_);}
	.st2{clip-path:url(#SVGID_4_);}
	.st3{clip-path:url(#SVGID_6_);fill:#CC2B64;}
	.st4{clip-path:url(#SVGID_8_);}
	.st5{clip-path:url(#SVGID_10_);fill:#A31D4C;}
	.st6{clip-path:url(#SVGID_12_);}
	.st7{clip-path:url(#SVGID_14_);fill:#B62554;}
	.st8{clip-path:url(#SVGID_16_);}
	.st9{clip-path:url(#SVGID_18_);}
	.st10{clip-path:url(#SVGID_20_);fill:#CC2B64;}
	.st11{clip-path:url(#SVGID_22_);}
	.st12{clip-path:url(#SVGID_24_);fill:#A31D4C;}
	.st13{clip-path:url(#SVGID_26_);}
	.st14{clip-path:url(#SVGID_28_);fill:#B62554;}
	.st15{clip-path:url(#SVGID_30_);}
	.st16{clip-path:url(#SVGID_32_);}
	.st17{clip-path:url(#SVGID_34_);fill:#CC2B64;}
	.st18{clip-path:url(#SVGID_36_);}
	.st19{clip-path:url(#SVGID_38_);fill:#A31D4C;}
	.st20{clip-path:url(#SVGID_40_);}
	.st21{clip-path:url(#SVGID_42_);fill:#B62554;}
	.st22{clip-path:url(#SVGID_44_);}
	.st23{clip-path:url(#SVGID_46_);}
	.st24{clip-path:url(#SVGID_48_);fill:#CC2B64;}
	.st25{clip-path:url(#SVGID_50_);}
	.st26{clip-path:url(#SVGID_52_);fill:#A31D4C;}
	.st27{clip-path:url(#SVGID_54_);}
	.st28{clip-path:url(#SVGID_56_);fill:#B62554;}
	.st29{clip-path:url(#SVGID_58_);}
	.st30{clip-path:url(#SVGID_60_);}
	.st31{clip-path:url(#SVGID_62_);fill:#CC2B64;}
	.st32{clip-path:url(#SVGID_64_);}
	.st33{clip-path:url(#SVGID_66_);fill:#A31D4C;}
	.st34{clip-path:url(#SVGID_68_);}
	.st35{clip-path:url(#SVGID_70_);fill:#B62554;}
	.st36{clip-path:url(#SVGID_72_);}
	.st37{clip-path:url(#SVGID_74_);}
	.st38{clip-path:url(#SVGID_76_);fill:#CC2B64;}
	.st39{clip-path:url(#SVGID_78_);}
	.st40{clip-path:url(#SVGID_80_);fill:#A31D4C;}
	.st41{clip-path:url(#SVGID_82_);}
	.st42{clip-path:url(#SVGID_84_);fill:#B62554;}
</style>
<defs>
</defs>
<g class="st0">
	<g>
		<defs>
			<rect id="SVGID_1_" x="41" y="4.4" width="74" height="85"/>
		</defs>
		<clipPath id="SVGID_2_">
			<use xlink:href="#SVGID_1_"  style="overflow:visible;"/>
		</clipPath>
		<g class="st1">
			<defs>
				<polygon id="SVGID_3_" points="78,47.2 78,47.2 78,47.2 78.3,47 114.5,26.2 78,5 78,5 78,5 41.5,26 78,47.2 				"/>
			</defs>
			<clipPath id="SVGID_4_">
				<use xlink:href="#SVGID_3_"  style="overflow:visible;"/>
			</clipPath>
			<g class="st2">
				<defs>
					<rect id="SVGID_5_" x="41" y="4.4" width="74" height="85"/>
				</defs>
				<clipPath id="SVGID_6_">
					<use xlink:href="#SVGID_5_"  style="overflow:visible;"/>
				</clipPath>
				<rect x="36.5" class="st3" width="83" height="52.2"/>
			</g>
		</g>
		<g class="st1">
			<defs>
				<polygon id="SVGID_7_" points="78,89.4 78,89.4 78,89.4 78,47.2 41.5,26 41.5,26 41.5,68.1 41.5,68.1 				"/>
			</defs>
			<clipPath id="SVGID_8_">
				<use xlink:href="#SVGID_7_"  style="overflow:visible;"/>
			</clipPath>
			<g class="st4">
				<defs>
					<rect id="SVGID_9_" x="41" y="4.4" width="74" height="85"/>
				</defs>
				<clipPath id="SVGID_10_">
					<use xlink:href="#SVGID_9_"  style="overflow:visible;"/>
				</clipPath>
				<rect x="36.5" y="21" class="st5" width="46.5" height="73.4"/>
			</g>
		</g>
		<g class="st1">
			<defs>
				<polygon id="SVGID_11_" points="114.5,26.2 78.3,47 78,47.2 78,47.2 78,89.4 78,89.4 78,89.4 114.5,68.4 114.5,68.4 114.5,68.4 
					114.5,26.2 114.5,26.2 				"/>
			</defs>
			<clipPath id="SVGID_12_">
				<use xlink:href="#SVGID_11_"  style="overflow:visible;"/>
			</clipPath>
			<g class="st6">
				<defs>
					<rect id="SVGID_13_" x="41" y="4.4" width="74" height="85"/>
				</defs>
				<clipPath id="SVGID_14_">
					<use xlink:href="#SVGID_13_"  style="overflow:visible;"/>
				</clipPath>
				<rect x="73" y="21.2" class="st7" width="46.5" height="73.1"/>
			</g>
		</g>
	</g>
</g>
<g class="st0">
	<g>
		<defs>
			<rect id="SVGID_15_" x="78" y="25.4" width="74" height="86"/>
		</defs>
		<clipPath id="SVGID_16_">
			<use xlink:href="#SVGID_15_"  style="overflow:visible;"/>
		</clipPath>
		<g class="st8">
			<defs>
				<polygon id="SVGID_17_" points="114.5,68.4 114.5,68.4 114.5,68.4 114.9,68.2 151.1,47.4 114.5,26.2 114.5,26.2 114.5,26.2 
					78,47.2 114.5,68.4 				"/>
			</defs>
			<clipPath id="SVGID_18_">
				<use xlink:href="#SVGID_17_"  style="overflow:visible;"/>
			</clipPath>
			<g class="st9">
				<defs>
					<rect id="SVGID_19_" x="78" y="25.4" width="74" height="86"/>
				</defs>
				<clipPath id="SVGID_20_">
					<use xlink:href="#SVGID_19_"  style="overflow:visible;"/>
				</clipPath>
				<rect x="73" y="21.2" class="st10" width="83" height="52.2"/>
			</g>
		</g>
		<g class="st8">
			<defs>
				<polygon id="SVGID_21_" points="114.5,110.6 114.5,110.6 114.5,110.6 114.5,68.4 78,47.2 78,47.2 78,89.4 78,89.4 				"/>
			</defs>
			<clipPath id="SVGID_22_">
				<use xlink:href="#SVGID_21_"  style="overflow:visible;"/>
			</clipPath>
			<g class="st11">
				<defs>
					<rect id="SVGID_23_" x="78" y="25.4" width="74" height="86"/>
				</defs>
				<clipPath id="SVGID_24_">
					<use xlink:href="#SVGID_23_"  style="overflow:visible;"/>
				</clipPath>
				<rect x="73" y="42.2" class="st12" width="46.5" height="73.4"/>
			</g>
		</g>
		<g class="st8">
			<defs>
				<polygon id="SVGID_25_" points="151.1,47.4 114.9,68.2 114.5,68.4 114.5,68.4 114.5,110.6 114.6,110.6 114.6,110.6 151.1,89.6 
					151.1,89.6 151.1,89.6 151.1,47.4 151.1,47.4 				"/>
			</defs>
			<clipPath id="SVGID_26_">
				<use xlink:href="#SVGID_25_"  style="overflow:visible;"/>
			</clipPath>
			<g class="st13">
				<defs>
					<rect id="SVGID_27_" x="78" y="25.4" width="74" height="86"/>
				</defs>
				<clipPath id="SVGID_28_">
					<use xlink:href="#SVGID_27_"  style="overflow:visible;"/>
				</clipPath>
				<rect x="109.5" y="42.4" class="st14" width="46.5" height="73.1"/>
			</g>
		</g>
	</g>
</g>
<g class="st0">
	<g>
		<defs>
			<rect id="SVGID_29_" x="5" y="25.4" width="74" height="85"/>
		</defs>
		<clipPath id="SVGID_30_">
			<use xlink:href="#SVGID_29_"  style="overflow:visible;"/>
		</clipPath>
		<g class="st15">
			<defs>
				<polygon id="SVGID_31_" points="41.5,68.1 41.5,68.1 41.5,68.1 41.8,68 78,47.2 41.5,26 41.5,26 41.5,26 5,46.9 41.5,68.1 				
					"/>
			</defs>
			<clipPath id="SVGID_32_">
				<use xlink:href="#SVGID_31_"  style="overflow:visible;"/>
			</clipPath>
			<g class="st16">
				<defs>
					<rect id="SVGID_33_" x="5" y="25.4" width="74" height="85"/>
				</defs>
				<clipPath id="SVGID_34_">
					<use xlink:href="#SVGID_33_"  style="overflow:visible;"/>
				</clipPath>
				<rect x="0" y="21" class="st17" width="83" height="52.2"/>
			</g>
		</g>
		<g class="st15">
			<defs>
				<polygon id="SVGID_35_" points="41.5,110.3 41.5,110.3 41.5,110.3 41.5,68.1 5,46.9 5,46.9 5,89.1 5,89.1 				"/>
			</defs>
			<clipPath id="SVGID_36_">
				<use xlink:href="#SVGID_35_"  style="overflow:visible;"/>
			</clipPath>
			<g class="st18">
				<defs>
					<rect id="SVGID_37_" x="5" y="25.4" width="74" height="85"/>
				</defs>
				<clipPath id="SVGID_38_">
					<use xlink:href="#SVGID_37_"  style="overflow:visible;"/>
				</clipPath>
				<rect y="41.9" class="st19" width="46.5" height="73.4"/>
			</g>
		</g>
		<g class="st15">
			<defs>
				<polygon id="SVGID_39_" points="78,47.2 41.8,68 41.5,68.1 41.5,68.1 41.5,110.3 41.5,110.3 41.5,110.3 78,89.4 78,89.4 
					78,89.4 78,47.2 78,47.2 				"/>
			</defs>
			<clipPath id="SVGID_40_">
				<use xlink:href="#SVGID_39_"  style="overflow:visible;"/>
			</clipPath>
			<g class="st20">
				<defs>
					<rect id="SVGID_41_" x="5" y="25.4" width="74" height="85"/>
				</defs>
				<clipPath id="SVGID_42_">
					<use xlink:href="#SVGID_41_"  style="overflow:visible;"/>
				</clipPath>
				<rect x="36.5" y="42.2" class="st21" width="46.5" height="73.1"/>
			</g>
		</g>
	</g>
</g>
</svg>
