<svg id="Слой_1" xmlns="http://www.w3.org/2000/svg" xmlns:xlink="http://www.w3.org/1999/xlink" viewBox="0 0 12 12"><style>.st0{opacity:.9;enable-background:new}.st1{clip-path:url(#SVGID_2_)}.st2{clip-path:url(#SVGID_4_)}.st3{clip-path:url(#SVGID_6_);fill:#94d6e2}.st4{clip-path:url(#SVGID_8_)}.st5{clip-path:url(#SVGID_10_);fill:#73cddd}.st6{clip-path:url(#SVGID_12_)}.st7{clip-path:url(#SVGID_14_);fill:#3cafbb}.st8{clip-path:url(#SVGID_16_)}.st9{clip-path:url(#SVGID_18_)}.st10{clip-path:url(#SVGID_20_);fill:#94d6e2}.st11{clip-path:url(#SVGID_22_)}.st12{clip-path:url(#SVGID_24_);fill:#73cddd}.st13{clip-path:url(#SVGID_26_)}.st14{clip-path:url(#SVGID_28_);fill:#3cafbb}</style><g class="st0"><defs><path id="SVGID_1_" d="M0 0h8v10H0z"/></defs><clipPath id="SVGID_2_"><use xlink:href="#SVGID_1_" overflow="visible"/></clipPath><g class="st1"><defs><path id="SVGID_3_" d="M3.9 4.8l.1-.1 3.9-2.2-4-2.4L0 2.4l3.9 2.3z"/></defs><clipPath id="SVGID_4_"><use xlink:href="#SVGID_3_" overflow="visible"/></clipPath><g class="st2"><defs><path id="SVGID_5_" d="M0 0h8v10H0z"/></defs><clipPath id="SVGID_6_"><use xlink:href="#SVGID_5_" overflow="visible"/></clipPath><path class="st3" d="M-5-4.9h17.9V9.7H-5z"/></g></g><g class="st1"><defs><path id="SVGID_7_" d="M3.9 9.4V4.8L0 2.4V7z"/></defs><clipPath id="SVGID_8_"><use xlink:href="#SVGID_7_" overflow="visible"/></clipPath><g class="st4"><defs><path id="SVGID_9_" d="M0 0h8v10H0z"/></defs><clipPath id="SVGID_10_"><use xlink:href="#SVGID_9_" overflow="visible"/></clipPath><path class="st5" d="M-5-2.6H8.9v16.9H-5z"/></g></g><g class="st1"><defs><path id="SVGID_11_" d="M7.9 2.5L4 4.7l-.1.1v4.6l4-2.3z"/></defs><clipPath id="SVGID_12_"><use xlink:href="#SVGID_11_" overflow="visible"/></clipPath><g class="st6"><defs><path id="SVGID_13_" d="M0 0h8v10H0z"/></defs><clipPath id="SVGID_14_"><use xlink:href="#SVGID_13_" overflow="visible"/></clipPath><path class="st7" d="M-1.1-2.5h13.9v16.9H-1.1z"/></g></g></g><g class="st0"><defs><path id="SVGID_15_" d="M3 2h9v10H3z"/></defs><clipPath id="SVGID_16_"><use xlink:href="#SVGID_15_" overflow="visible"/></clipPath><g class="st8"><defs><path id="SVGID_17_" d="M7.9 7.1V7l3.9-2.2-3.9-2.3-4 2.2z"/></defs><clipPath id="SVGID_18_"><use xlink:href="#SVGID_17_" overflow="visible"/></clipPath><g class="st9"><defs><path id="SVGID_19_" d="M3 2h9v10H3z"/></defs><clipPath id="SVGID_20_"><use xlink:href="#SVGID_19_" overflow="visible"/></clipPath><path class="st10" d="M-1.1-2.5h17.9v14.6H-1.1z"/></g></g><g class="st8"><defs><path id="SVGID_21_" d="M7.9 11.7V7.1l-4-2.3v-.1 4.7H4z"/></defs><clipPath id="SVGID_22_"><use xlink:href="#SVGID_21_" overflow="visible"/></clipPath><g class="st11"><defs><path id="SVGID_23_" d="M3 2h9v10H3z"/></defs><clipPath id="SVGID_24_"><use xlink:href="#SVGID_23_" overflow="visible"/></clipPath><path class="st12" d="M-1.1-.3h13.9v16.9H-1.1z"/></g></g><g class="st8"><defs><path id="SVGID_25_" d="M11.8 4.8L7.9 7v4.7l3.9-2.3z"/></defs><clipPath id="SVGID_26_"><use xlink:href="#SVGID_25_" overflow="visible"/></clipPath><g class="st13"><defs><path id="SVGID_27_" d="M3 2h9v10H3z"/></defs><clipPath id="SVGID_28_"><use xlink:href="#SVGID_27_" overflow="visible"/></clipPath><path class="st14" d="M2.9-.2h13.9v16.9H2.9z"/></g></g></g></svg>