<?xml version="1.0" encoding="utf-8"?>
<!-- Generator: Adobe Illustrator 19.1.1, SVG Export Plug-In . SVG Version: 6.00 Build 0)  -->
<svg version="1.1" id="Shape_1_1_" xmlns="http://www.w3.org/2000/svg" xmlns:xlink="http://www.w3.org/1999/xlink" x="0px" y="0px"
	 viewBox="0 0 300 346" style="enable-background:new 0 0 300 346;" xml:space="preserve">
<style type="text/css">
	.st0{fill:#282828;}
</style>
<g id="Shape_1">
	<g>
		<path class="st0" d="M296.5,84.2L153.5,1c-0.9-0.5-2.1-0.8-3.3-0.8c-0.1,0-0.1,0-0.2,0c0,0,0,0,0,0c-0.8,0-1.5,0.1-2.2,0.3
			c-0.4,0.1-0.9,0.3-1.2,0.5L3.5,84.2C1.5,85.3,0,88,0,90.2v165c0,2.2,1.5,4.9,3.5,6l143.1,83.2c0.3,0.2,0.7,0.3,1.1,0.5
			c0.7,0.2,1.5,0.4,2.3,0.4c1.2,0,2.5-0.3,3.5-0.8l143.1-83.2c1.9-1.1,3.5-3.8,3.5-6v-165C300,88,298.5,85.3,296.5,84.2z"/>
	</g>
</g>
</svg>
