<?xml version="1.0" encoding="utf-8"?>
<!-- Generator: Adobe Illustrator 19.1.1, SVG Export Plug-In . SVG Version: 6.00 Build 0)  -->
<svg version="1.1" id="Слой_1" xmlns="http://www.w3.org/2000/svg" xmlns:xlink="http://www.w3.org/1999/xlink" x="0px" y="0px"
	 viewBox="-237 340.3 119.6 161.6" style="enable-background:new -237 340.3 119.6 161.6;" xml:space="preserve">
<style type="text/css">
	.st0{opacity:0.9;enable-background:new    ;}
	.st1{clip-path:url(#SVGID_2_);}
	.st2{clip-path:url(#SVGID_4_);}
	.st3{clip-path:url(#SVGID_6_);fill:#A159A3;}
	.st4{clip-path:url(#SVGID_8_);}
	.st5{clip-path:url(#SVGID_10_);fill:#772A87;}
	.st6{clip-path:url(#SVGID_12_);}
	.st7{clip-path:url(#SVGID_14_);enable-background:new    ;}
	.st8{clip-path:url(#SVGID_16_);}
	.st9{clip-path:url(#SVGID_18_);}
	.st10{clip-path:url(#SVGID_20_);fill:#8F3C96;}
	.st11{clip-path:url(#SVGID_22_);}
	.st12{clip-path:url(#SVGID_24_);}
	.st13{clip-path:url(#SVGID_26_);fill:#A159A3;}
	.st14{clip-path:url(#SVGID_28_);}
	.st15{clip-path:url(#SVGID_30_);fill:#772A87;}
	.st16{clip-path:url(#SVGID_32_);}
	.st17{clip-path:url(#SVGID_34_);fill:#8F3C96;}
	.st18{clip-path:url(#SVGID_36_);}
	.st19{clip-path:url(#SVGID_38_);}
	.st20{clip-path:url(#SVGID_40_);fill:#A159A3;}
	.st21{clip-path:url(#SVGID_42_);}
	.st22{clip-path:url(#SVGID_44_);fill:#772A87;}
	.st23{clip-path:url(#SVGID_46_);}
	.st24{clip-path:url(#SVGID_48_);fill:#8F3C96;}
</style>
<g>
	<g class="st0">
		<g>
			<defs>
				<rect id="SVGID_1_" x="-195.5" y="391.4" width="74" height="85"/>
			</defs>
			<clipPath id="SVGID_2_">
				<use xlink:href="#SVGID_1_"  style="overflow:visible;"/>
			</clipPath>
			<g class="st1">
				<defs>
					<polygon id="SVGID_3_" points="-159,433.8 -159,433.8 -159,433.8 -158.6,433.6 -122.4,412.8 -158.9,391.6 -158.9,391.6 
						-158.9,391.6 -158.9,391.6 -195.5,412.5 -159,433.8 					"/>
				</defs>
				<clipPath id="SVGID_4_">
					<use xlink:href="#SVGID_3_"  style="overflow:visible;"/>
				</clipPath>
				<g class="st2">
					<defs>
						<rect id="SVGID_5_" x="-195.5" y="391.4" width="74" height="85"/>
					</defs>
					<clipPath id="SVGID_6_">
						<use xlink:href="#SVGID_5_"  style="overflow:visible;"/>
					</clipPath>
					<rect x="-200.5" y="386.6" class="st3" width="83" height="52.2"/>
				</g>
			</g>
			<g class="st1">
				<defs>
					<polygon id="SVGID_7_" points="-159,475.9 -159,475.9 -159,475.9 -159,433.8 -195.5,412.5 -195.5,412.5 -195.5,412.5 
						-195.5,454.7 -195.5,454.7 					"/>
				</defs>
				<clipPath id="SVGID_8_">
					<use xlink:href="#SVGID_7_"  style="overflow:visible;"/>
				</clipPath>
				<g class="st4">
					<defs>
						<rect id="SVGID_9_" x="-195.5" y="391.4" width="74" height="85"/>
					</defs>
					<clipPath id="SVGID_10_">
						<use xlink:href="#SVGID_9_"  style="overflow:visible;"/>
					</clipPath>
					<rect x="-200.5" y="407.5" class="st5" width="46.5" height="73.4"/>
				</g>
			</g>
			<g class="st1">
				<defs>
					<rect id="SVGID_11_" x="-159" y="412.8" width="36.5" height="63.1"/>
				</defs>
				<clipPath id="SVGID_12_">
					<use xlink:href="#SVGID_11_"  style="overflow:visible;"/>
				</clipPath>
				<g class="st6">
					<defs>
						<rect id="SVGID_13_" x="-195.5" y="391.4" width="74" height="85"/>
					</defs>
					<clipPath id="SVGID_14_">
						<use xlink:href="#SVGID_13_"  style="overflow:visible;"/>
					</clipPath>
					<g class="st7">
						<g>
							<defs>
								<rect id="SVGID_15_" x="-159.5" y="412.4" width="38" height="64"/>
							</defs>
							<clipPath id="SVGID_16_">
								<use xlink:href="#SVGID_15_"  style="overflow:visible;"/>
							</clipPath>
							<g class="st8">
								<defs>
									<polygon id="SVGID_17_" points="-122.4,412.8 -158.6,433.6 -159,433.8 -159,433.8 -159,476 -159,476 -159,476 -159,476 
										-122.4,455 -122.4,455 -122.4,455 -122.4,412.8 -122.4,412.8 									"/>
								</defs>
								<clipPath id="SVGID_18_">
									<use xlink:href="#SVGID_17_"  style="overflow:visible;"/>
								</clipPath>
								<g class="st9">
									<defs>
										<rect id="SVGID_19_" x="-159.5" y="412.4" width="38" height="64"/>
									</defs>
									<clipPath id="SVGID_20_">
										<use xlink:href="#SVGID_19_"  style="overflow:visible;"/>
									</clipPath>
									<rect x="-164" y="407.8" class="st10" width="46.5" height="73.1"/>
								</g>
							</g>
						</g>
					</g>
				</g>
			</g>
		</g>
	</g>
	<g class="st0">
		<g>
			<defs>
				<rect id="SVGID_21_" x="-232.5" y="412.4" width="74" height="85"/>
			</defs>
			<clipPath id="SVGID_22_">
				<use xlink:href="#SVGID_21_"  style="overflow:visible;"/>
			</clipPath>
			<g class="st11">
				<defs>
					<polygon id="SVGID_23_" points="-195.5,454.7 -195.5,454.7 -195.5,454.7 -195.2,454.5 -159,433.8 -195.5,412.5 -195.5,412.5 
						-195.5,412.5 -195.5,412.5 -232,433.5 -195.5,454.7 					"/>
				</defs>
				<clipPath id="SVGID_24_">
					<use xlink:href="#SVGID_23_"  style="overflow:visible;"/>
				</clipPath>
				<g class="st12">
					<defs>
						<rect id="SVGID_25_" x="-232.5" y="412.4" width="74" height="85"/>
					</defs>
					<clipPath id="SVGID_26_">
						<use xlink:href="#SVGID_25_"  style="overflow:visible;"/>
					</clipPath>
					<rect x="-237" y="407.5" class="st13" width="83" height="52.2"/>
				</g>
			</g>
			<g class="st11">
				<defs>
					<polygon id="SVGID_27_" points="-195.5,496.9 -195.5,496.9 -195.5,496.9 -195.5,454.7 -232,433.5 -232,433.5 -232,475.7 
						-232,475.7 					"/>
				</defs>
				<clipPath id="SVGID_28_">
					<use xlink:href="#SVGID_27_"  style="overflow:visible;"/>
				</clipPath>
				<g class="st14">
					<defs>
						<rect id="SVGID_29_" x="-232.5" y="412.4" width="74" height="85"/>
					</defs>
					<clipPath id="SVGID_30_">
						<use xlink:href="#SVGID_29_"  style="overflow:visible;"/>
					</clipPath>
					<rect x="-237" y="428.5" class="st15" width="46.5" height="73.4"/>
				</g>
			</g>
			<g class="st11">
				<defs>
					<polygon id="SVGID_31_" points="-159,433.8 -195.2,454.5 -195.5,454.7 -195.5,454.7 -195.5,496.9 -195.5,496.9 -195.5,496.9 
						-195.5,496.9 -159,476 -159,476 -159,475.9 -158.9,433.8 -159,433.8 					"/>
				</defs>
				<clipPath id="SVGID_32_">
					<use xlink:href="#SVGID_31_"  style="overflow:visible;"/>
				</clipPath>
				<g class="st16">
					<defs>
						<rect id="SVGID_33_" x="-232.5" y="412.4" width="74" height="85"/>
					</defs>
					<clipPath id="SVGID_34_">
						<use xlink:href="#SVGID_33_"  style="overflow:visible;"/>
					</clipPath>
					<rect x="-200.5" y="428.8" class="st17" width="46.5" height="73.1"/>
				</g>
			</g>
		</g>
	</g>
	<g class="st0">
		<g>
			<defs>
				<rect id="SVGID_35_" x="-195.5" y="344.4" width="74" height="86"/>
			</defs>
			<clipPath id="SVGID_36_">
				<use xlink:href="#SVGID_35_"  style="overflow:visible;"/>
			</clipPath>
			<g class="st18">
				<defs>
					<polygon id="SVGID_37_" points="-159,387.5 -159,387.5 -159,387.5 -158.6,387.3 -122.4,366.5 -159,345.3 -159,345.3 
						-159,345.3 -195.5,366.3 -159,387.5 					"/>
				</defs>
				<clipPath id="SVGID_38_">
					<use xlink:href="#SVGID_37_"  style="overflow:visible;"/>
				</clipPath>
				<g class="st19">
					<defs>
						<rect id="SVGID_39_" x="-195.5" y="344.4" width="74" height="86"/>
					</defs>
					<clipPath id="SVGID_40_">
						<use xlink:href="#SVGID_39_"  style="overflow:visible;"/>
					</clipPath>
					<rect x="-200.5" y="340.3" class="st20" width="83" height="52.2"/>
				</g>
			</g>
			<g class="st18">
				<defs>
					<polygon id="SVGID_41_" points="-159,429.6 -159,429.6 -159,429.6 -159,387.5 -195.5,366.3 -195.5,366.3 -195.5,408.4 
						-195.5,408.4 					"/>
				</defs>
				<clipPath id="SVGID_42_">
					<use xlink:href="#SVGID_41_"  style="overflow:visible;"/>
				</clipPath>
				<g class="st21">
					<defs>
						<rect id="SVGID_43_" x="-195.5" y="344.4" width="74" height="86"/>
					</defs>
					<clipPath id="SVGID_44_">
						<use xlink:href="#SVGID_43_"  style="overflow:visible;"/>
					</clipPath>
					<rect x="-200.5" y="361.3" class="st22" width="46.5" height="73.4"/>
				</g>
			</g>
			<g class="st18">
				<defs>
					<polygon id="SVGID_45_" points="-122.4,366.5 -158.6,387.3 -159,387.5 -159,387.5 -159,429.6 -158.9,429.7 -158.9,429.7 
						-122.4,408.7 -122.4,408.7 -122.4,408.7 -122.4,366.5 -122.4,366.5 					"/>
				</defs>
				<clipPath id="SVGID_46_">
					<use xlink:href="#SVGID_45_"  style="overflow:visible;"/>
				</clipPath>
				<g class="st23">
					<defs>
						<rect id="SVGID_47_" x="-195.5" y="344.4" width="74" height="86"/>
					</defs>
					<clipPath id="SVGID_48_">
						<use xlink:href="#SVGID_47_"  style="overflow:visible;"/>
					</clipPath>
					<rect x="-164" y="361.5" class="st24" width="46.5" height="73.1"/>
				</g>
			</g>
		</g>
	</g>
</g>
</svg>
