<!-- Generator: Adobe Illustrator 19.1.1, SVG Export Plug-In  -->
<svg version="1.1"
	 xmlns="http://www.w3.org/2000/svg" xmlns:xlink="http://www.w3.org/1999/xlink" xmlns:a="http://ns.adobe.com/AdobeSVGViewerExtensions/3.0/"
	 x="0px" y="0px" width="83.1px" height="140.6px" viewBox="0 0 83.1 140.6" style="enable-background:new 0 0 83.1 140.6;"
	 xml:space="preserve">
<style type="text/css">
	.st0{opacity:0.9;enable-background:new    ;}
	.st1{clip-path:url(#SVGID_2_);}
	.st2{clip-path:url(#SVGID_4_);}
	.st3{clip-path:url(#SVGID_6_);fill:#F6DD03;}
	.st4{clip-path:url(#SVGID_8_);}
	.st5{clip-path:url(#SVGID_10_);enable-background:new    ;}
	.st6{clip-path:url(#SVGID_12_);}
	.st7{clip-path:url(#SVGID_14_);}
	.st8{clip-path:url(#SVGID_16_);fill:#F9BC1E;}
	.st9{clip-path:url(#SVGID_18_);}
	.st10{clip-path:url(#SVGID_20_);fill:#E9AF20;}
	.st11{clip-path:url(#SVGID_22_);}
	.st12{clip-path:url(#SVGID_24_);}
	.st13{clip-path:url(#SVGID_26_);fill:#F6DD03;}
	.st14{clip-path:url(#SVGID_28_);}
	.st15{clip-path:url(#SVGID_30_);fill:#F9BC1E;}
	.st16{clip-path:url(#SVGID_32_);}
	.st17{clip-path:url(#SVGID_34_);fill:#E9AF20;}
	.st18{clip-path:url(#SVGID_36_);}
	.st19{clip-path:url(#SVGID_38_);}
	.st20{clip-path:url(#SVGID_40_);fill:#F6DD03;}
	.st21{clip-path:url(#SVGID_42_);}
	.st22{clip-path:url(#SVGID_44_);enable-background:new    ;}
	.st23{clip-path:url(#SVGID_46_);}
	.st24{clip-path:url(#SVGID_48_);}
	.st25{clip-path:url(#SVGID_50_);fill:#F9BC1E;}
	.st26{clip-path:url(#SVGID_52_);}
	.st27{clip-path:url(#SVGID_54_);fill:#E9AF20;}
	.st28{clip-path:url(#SVGID_56_);}
	.st29{clip-path:url(#SVGID_58_);}
	.st30{clip-path:url(#SVGID_60_);fill:#F6DD03;}
	.st31{clip-path:url(#SVGID_62_);}
	.st32{clip-path:url(#SVGID_64_);fill:#F9BC1E;}
	.st33{clip-path:url(#SVGID_66_);}
	.st34{clip-path:url(#SVGID_68_);fill:#E9AF20;}
</style>
<defs>
</defs>
<g>
	<g class="st0">
		<g>
			<defs>
				<rect id="SVGID_1_" x="5" y="50.6" width="74" height="85"/>
			</defs>
			<clipPath id="SVGID_2_">
				<use xlink:href="#SVGID_1_"  style="overflow:visible;"/>
			</clipPath>
			<g class="st1">
				<defs>
					<polygon id="SVGID_3_" points="41.5,93.4 41.5,93.4 41.5,93.4 41.8,93.2 78,72.5 41.5,51.2 41.5,51.2 41.5,51.2 41.5,51.2 
						5,72.2 41.5,93.4 					"/>
				</defs>
				<clipPath id="SVGID_4_">
					<use xlink:href="#SVGID_3_"  style="overflow:visible;"/>
				</clipPath>
				<g class="st2">
					<defs>
						<rect id="SVGID_5_" x="5" y="50.6" width="74" height="85"/>
					</defs>
					<clipPath id="SVGID_6_">
						<use xlink:href="#SVGID_5_"  style="overflow:visible;"/>
					</clipPath>
					<rect x="0" y="46.2" class="st3" width="83" height="52.2"/>
				</g>
			</g>
			<g class="st1">
				<defs>
					<rect id="SVGID_7_" x="5" y="72.2" width="36.5" height="63.4"/>
				</defs>
				<clipPath id="SVGID_8_">
					<use xlink:href="#SVGID_7_"  style="overflow:visible;"/>
				</clipPath>
				<g class="st4">
					<defs>
						<rect id="SVGID_9_" x="5" y="50.6" width="74" height="85"/>
					</defs>
					<clipPath id="SVGID_10_">
						<use xlink:href="#SVGID_9_"  style="overflow:visible;"/>
					</clipPath>
					<g class="st5">
						<g>
							<defs>
								<rect id="SVGID_11_" x="5" y="71.6" width="37" height="64"/>
							</defs>
							<clipPath id="SVGID_12_">
								<use xlink:href="#SVGID_11_"  style="overflow:visible;"/>
							</clipPath>
							<g class="st6">
								<defs>
									<polygon id="SVGID_13_" points="41.5,135.6 41.5,135.6 41.5,135.6 41.5,93.4 5,72.2 5,72.2 5,114.4 5,114.4 									"/>
								</defs>
								<clipPath id="SVGID_14_">
									<use xlink:href="#SVGID_13_"  style="overflow:visible;"/>
								</clipPath>
								<g class="st7">
									<defs>
										<rect id="SVGID_15_" x="5" y="71.6" width="37" height="64"/>
									</defs>
									<clipPath id="SVGID_16_">
										<use xlink:href="#SVGID_15_"  style="overflow:visible;"/>
									</clipPath>
									<rect y="67.2" class="st8" width="46.5" height="73.4"/>
								</g>
							</g>
						</g>
					</g>
				</g>
			</g>
			<g class="st1">
				<defs>
					<polygon id="SVGID_17_" points="78,72.5 41.8,93.2 41.5,93.4 41.5,93.4 41.5,135.6 41.5,135.6 41.5,135.6 41.5,135.6 78,114.7 
						78,114.7 78,114.7 78.1,72.5 78,72.5 					"/>
				</defs>
				<clipPath id="SVGID_18_">
					<use xlink:href="#SVGID_17_"  style="overflow:visible;"/>
				</clipPath>
				<g class="st9">
					<defs>
						<rect id="SVGID_19_" x="5" y="50.6" width="74" height="85"/>
					</defs>
					<clipPath id="SVGID_20_">
						<use xlink:href="#SVGID_19_"  style="overflow:visible;"/>
					</clipPath>
					<rect x="36.5" y="67.5" class="st10" width="46.5" height="73.1"/>
				</g>
			</g>
		</g>
	</g>
	<g class="st0">
		<g>
			<defs>
				<rect id="SVGID_21_" x="5" y="4.6" width="74" height="85"/>
			</defs>
			<clipPath id="SVGID_22_">
				<use xlink:href="#SVGID_21_"  style="overflow:visible;"/>
			</clipPath>
			<g class="st11">
				<defs>
					<polygon id="SVGID_23_" points="41.5,47.2 41.5,47.2 41.5,47.2 41.8,47 78,26.2 41.5,5 41.5,5 41.5,5 5,26 41.5,47.2 					"/>
				</defs>
				<clipPath id="SVGID_24_">
					<use xlink:href="#SVGID_23_"  style="overflow:visible;"/>
				</clipPath>
				<g class="st12">
					<defs>
						<rect id="SVGID_25_" x="5" y="4.6" width="74" height="85"/>
					</defs>
					<clipPath id="SVGID_26_">
						<use xlink:href="#SVGID_25_"  style="overflow:visible;"/>
					</clipPath>
					<rect x="0" class="st13" width="83" height="52.2"/>
				</g>
			</g>
			<g class="st11">
				<defs>
					<polygon id="SVGID_27_" points="41.5,89.4 41.5,89.4 41.5,89.4 41.5,47.2 5,26 5,26 5,68.1 5,68.1 					"/>
				</defs>
				<clipPath id="SVGID_28_">
					<use xlink:href="#SVGID_27_"  style="overflow:visible;"/>
				</clipPath>
				<g class="st14">
					<defs>
						<rect id="SVGID_29_" x="5" y="4.6" width="74" height="85"/>
					</defs>
					<clipPath id="SVGID_30_">
						<use xlink:href="#SVGID_29_"  style="overflow:visible;"/>
					</clipPath>
					<rect x="0" y="21" class="st15" width="46.5" height="73.4"/>
				</g>
			</g>
			<g class="st11">
				<defs>
					<polygon id="SVGID_31_" points="78,26.2 41.8,47 41.5,47.2 41.5,47.2 41.5,89.4 41.5,89.4 41.5,89.4 78,68.4 78,68.4 78,68.4 
						78,26.2 78,26.2 					"/>
				</defs>
				<clipPath id="SVGID_32_">
					<use xlink:href="#SVGID_31_"  style="overflow:visible;"/>
				</clipPath>
				<g class="st16">
					<defs>
						<rect id="SVGID_33_" x="5" y="4.6" width="74" height="85"/>
					</defs>
					<clipPath id="SVGID_34_">
						<use xlink:href="#SVGID_33_"  style="overflow:visible;"/>
					</clipPath>
					<rect x="36.5" y="21.2" class="st17" width="46.5" height="73.1"/>
				</g>
			</g>
		</g>
	</g>
</g>
</svg>
