<!-- Generator: Adobe Illustrator 19.1.1, SVG Export Plug-In  -->
<svg version="1.1"
	 xmlns="http://www.w3.org/2000/svg" xmlns:xlink="http://www.w3.org/1999/xlink" xmlns:a="http://ns.adobe.com/AdobeSVGViewerExtensions/3.0/"
	 x="0px" y="0px" width="83.1px" height="94.4px" viewBox="0 0 83.1 94.4" style="enable-background:new 0 0 83.1 94.4;"
	 xml:space="preserve">
<style type="text/css">
	.st0{opacity:0.9;enable-background:new    ;}
	.st1{clip-path:url(#SVGID_2_);}
	.st2{clip-path:url(#SVGID_4_);}
	.st3{clip-path:url(#SVGID_6_);fill:#F6AF1A;}
	.st4{clip-path:url(#SVGID_8_);}
	.st5{clip-path:url(#SVGID_10_);fill:#F29020;}
	.st6{clip-path:url(#SVGID_12_);}
	.st7{clip-path:url(#SVGID_14_);fill:#F8A120;}
	.st8{clip-path:url(#SVGID_16_);}
	.st9{clip-path:url(#SVGID_18_);}
	.st10{clip-path:url(#SVGID_20_);fill:#F6AF1A;}
	.st11{clip-path:url(#SVGID_22_);}
	.st12{clip-path:url(#SVGID_24_);fill:#F29020;}
	.st13{clip-path:url(#SVGID_26_);}
	.st14{clip-path:url(#SVGID_28_);fill:#F8A120;}
</style>
<defs>
</defs>
<g class="st0">
	<g>
		<defs>
			<rect id="SVGID_1_" x="4.5" y="4.2" width="74" height="86"/>
		</defs>
		<clipPath id="SVGID_2_">
			<use xlink:href="#SVGID_1_"  style="overflow:visible;"/>
		</clipPath>
		<g class="st1">
			<defs>
				<polygon id="SVGID_3_" points="41.5,47.2 41.5,47.2 41.5,47.2 41.8,47 78,26.2 41.5,5 41.5,5 41.5,5 41.5,5 5,25.9 41.5,47.2 
									"/>
			</defs>
			<clipPath id="SVGID_4_">
				<use xlink:href="#SVGID_3_"  style="overflow:visible;"/>
			</clipPath>
			<g class="st2">
				<defs>
					<rect id="SVGID_5_" x="4.5" y="4.2" width="74" height="86"/>
				</defs>
				<clipPath id="SVGID_6_">
					<use xlink:href="#SVGID_5_"  style="overflow:visible;"/>
				</clipPath>
				<rect x="0" class="st3" width="83" height="52.2"/>
			</g>
		</g>
		<g class="st1">
			<defs>
				<polygon id="SVGID_7_" points="41.5,89.4 41.5,89.4 41.5,89.4 41.5,47.2 5,26 5,26 5,68.1 5,68.1 				"/>
			</defs>
			<clipPath id="SVGID_8_">
				<use xlink:href="#SVGID_7_"  style="overflow:visible;"/>
			</clipPath>
			<g class="st4">
				<defs>
					<rect id="SVGID_9_" x="4.5" y="4.2" width="74" height="86"/>
				</defs>
				<clipPath id="SVGID_10_">
					<use xlink:href="#SVGID_9_"  style="overflow:visible;"/>
				</clipPath>
				<rect y="21" class="st5" width="46.5" height="73.4"/>
			</g>
		</g>
		<g class="st1">
			<defs>
				<polygon id="SVGID_11_" points="78,26.2 41.8,47 41.5,47.2 41.5,47.2 41.5,89.4 41.5,89.4 41.5,89.4 41.5,89.4 78,68.4 78,68.4 
					78,68.4 78.1,26.2 78,26.2 				"/>
			</defs>
			<clipPath id="SVGID_12_">
				<use xlink:href="#SVGID_11_"  style="overflow:visible;"/>
			</clipPath>
			<g class="st6">
				<defs>
					<rect id="SVGID_13_" x="4.5" y="4.2" width="74" height="86"/>
				</defs>
				<clipPath id="SVGID_14_">
					<use xlink:href="#SVGID_13_"  style="overflow:visible;"/>
				</clipPath>
				<rect x="36.5" y="21.2" class="st7" width="46.5" height="73.1"/>
			</g>
		</g>
	</g>
</g>
</svg>
