<svg xmlns="http://www.w3.org/2000/svg" width="736.1" height="48.6" viewBox="0 0 736.1 48.6"><style>.st0{fill:#a8539e}.st1{fill:#ef65a4}.st2{fill:#f9c234}.st3{fill:#cddd40}</style><path class="st0" d="M25.6 2.5h-8.7L0 48h10l3.1-9.4h16.4l3.2 9.4h10L25.6 2.5zM15.6 31l5.7-17L27 31H15.6z" id="A_modular_network_stack._7_"/><path class="st1" d="M99.8 13.6c-4.4 0-7.8 1.7-10.2 5.2-1.6-3.4-4.6-5.2-9-5.2-4.1 0-7.3 1.5-9.7 4.4l-.3-3.8h-8.5V48h9V24c1.1-2.1 3-3.2 5.6-3.2 1.9 0 3.2.4 3.9 1.3.8.9 1.2 2.3 1.2 4.3V48h9V24.7c1-2.6 2.9-3.9 5.6-3.9 1.9 0 3.2.4 4 1.3s1.1 2.3 1.1 4.2V48h9.1V26.4c0-4.3-.9-7.5-2.7-9.6-1.7-2.2-4.4-3.2-8.1-3.2zm43.2 4.2c-2.9-2.8-6.6-4.2-11.2-4.2-3.2 0-6 .7-8.5 2.2-2.4 1.4-4.3 3.5-5.6 6.1-1.3 2.6-1.9 5.6-1.9 9v.4c0 5.4 1.5 9.6 4.4 12.8 2.9 3.1 6.8 4.7 11.7 4.7s8.8-1.6 11.7-4.7c2.9-3.1 4.3-7.3 4.3-12.5l-.1-2.3c-.3-5-1.9-8.8-4.8-11.5zm-6 21c-1.2 1.7-2.9 2.5-5.1 2.5-2.3 0-4-.9-5.2-2.6-1.2-1.7-1.8-4.2-1.8-7.4 0-3.6.6-6.3 1.8-8 1.2-1.7 2.9-2.6 5.1-2.6 2.2 0 4 .9 5.2 2.6 1.2 1.7 1.8 4.2 1.8 7.3 0 3.9-.6 6.5-1.8 8.2zm36.3-21.5c-2.1-2.5-4.9-3.7-8.2-3.7-4.1 0-7.3 1.6-9.7 4.7-2.4 3.1-3.5 7.3-3.5 12.6 0 5.6 1.2 9.9 3.6 13.1 2.4 3.1 5.6 4.7 9.6 4.7 3.5 0 6.4-1.4 8.7-4.2l.4 3.6h8.2V0h-9.1v17.3zm0 20.5c-1.1 2.4-3.1 3.5-5.9 3.5-2.1 0-3.7-.8-4.8-2.5-1.1-1.7-1.7-4.1-1.7-7.3 0-7.1 2.2-10.6 6.5-10.6 2.8 0 4.7 1.2 5.8 3.5v13.4zm35.9.4c-1.1 2.1-3.2 3.2-6.3 3.2-3.2 0-4.8-1.8-4.8-5.3V14.2h-9v22.2c0 4 1 7.1 2.9 9.2 1.9 2.1 4.7 3.1 8.3 3.1 3.9 0 7-1.4 9.3-4.1l.3 3.4h8.5V14.2h-9.1v24zm16.5 9.8h9.1V0h-9.1v48zm43.9-22.5c0-3.8-1.2-6.7-3.7-8.8-2.4-2.1-5.8-3.1-9.9-3.1-2.8 0-5.2.5-7.4 1.4-2.2.9-3.9 2.3-5.1 3.9-1.2 1.7-1.8 3.5-1.8 5.4h9c0-1.3.4-2.3 1.3-3 .9-.7 2.1-1.1 3.6-1.1 1.7 0 3 .5 3.8 1.4.8.9 1.2 2.2 1.2 3.8v1.9h-4.2c-5 0-8.9 1-11.5 2.9-2.7 1.9-4 4.7-4 8.3 0 2.9 1.1 5.3 3.3 7.3 2.2 1.9 4.9 2.9 8.2 2.9 3.5 0 6.3-1.2 8.5-3.7.2 1.2.5 2.2.9 3h9.1v-.5c-.9-1.6-1.3-4.1-1.3-7.3V25.5zm-9 12.9c-.5 1-1.4 1.8-2.5 2.4-1.1.6-2.4.9-3.7.9-1.4 0-2.5-.4-3.3-1.1-.8-.7-1.2-1.7-1.2-2.8v-.5c.3-3.1 2.7-4.7 7.2-4.7h3.4v5.8zm32-24.8c-3.2 0-5.7 1.6-7.5 4.7l-.3-4h-8.5V48h9V25.9c1.1-2.3 3.3-3.5 6.7-3.5.9 0 2 .1 3.2.3l.1-8.7c-.8-.3-1.7-.4-2.7-.4z" id="A_modular_network_stack._5_"/><path class="st2" d="M336.1 13.6c-4.1 0-7.3 1.5-9.7 4.5l-.3-3.9h-8.5V48h9V24.1c1.3-2.2 3.2-3.3 5.7-3.3 1.9 0 3.3.4 4.2 1.3.8.9 1.2 2.3 1.2 4.2V48h9V26.2c0-4.2-.9-7.3-2.7-9.4-1.6-2.2-4.3-3.2-7.9-3.2zm32.3 0c-3.1 0-5.8.7-8.2 2.2-2.4 1.4-4.3 3.5-5.6 6.2-1.3 2.7-2 5.7-2 9.1v.9c0 5.1 1.6 9.1 4.7 12.2 3.1 3 7.2 4.6 12.1 4.6 2.8 0 5.4-.5 7.7-1.6s4.1-2.6 5.5-4.5l-4.4-5c-2 2.5-4.7 3.8-8.2 3.8-2.3 0-4.1-.7-5.6-2s-2.3-3.1-2.6-5.3h21.5v-3.7c0-5.4-1.3-9.5-4-12.4-2.7-3.1-6.3-4.5-10.9-4.5zm6 14.3h-12.6c.3-2.3 1-4 2.1-5.2 1.1-1.2 2.6-1.8 4.4-1.8 1.9 0 3.4.5 4.4 1.6 1 1.1 1.6 2.7 1.6 4.7v.7zm25.9 12.5c-.5-.5-.7-1.4-.7-2.7V20.8h5.8v-6.6h-5.8V5.9h-9v8.3h-4.9v6.6h4.9V39c.1 6.4 3.4 9.6 9.7 9.6 1.9 0 3.7-.3 5.5-.8V41c-.8.1-1.7.2-2.7.2-1.4 0-2.3-.3-2.8-.8zm39.9-4.7L434 14.2h-6.5l-6.2 21.5-4.4-21.5h-8.7l8.6 33.8h7.5l6.4-21.3 6.4 21.3h7.6l8.6-33.8h-8.7l-4.4 21.5zm43.3-17.9c-2.9-2.8-6.6-4.2-11.2-4.2-3.2 0-6 .7-8.5 2.2-2.4 1.4-4.3 3.5-5.6 6.1-1.3 2.6-1.9 5.6-1.9 9v.4c0 5.4 1.5 9.6 4.4 12.8 2.9 3.1 6.8 4.7 11.7 4.7 4.9 0 8.8-1.6 11.7-4.7 2.9-3.1 4.3-7.3 4.3-12.5l-.1-2.3c-.3-5-1.9-8.8-4.8-11.5zm-5.9 21c-1.2 1.7-2.9 2.5-5.1 2.5-2.2 0-4-.9-5.2-2.6-1.2-1.7-1.8-4.2-1.8-7.4 0-3.6.6-6.3 1.8-8 1.2-1.7 2.9-2.6 5.1-2.6 2.2 0 4 .9 5.2 2.6 1.2 1.7 1.8 4.2 1.8 7.3 0 3.9-.6 6.5-1.8 8.2zm25-20.6l-.3-4h-8.5V48h9V25.9c1.1-2.3 3.3-3.5 6.7-3.5.9 0 2 .1 3.3.3l.1-8.7c-.9-.3-1.8-.4-2.8-.4-3.2 0-5.7 1.5-7.5 4.6zm32.3 10.1l12.2-14.1h-10.8l-8.7 10.2-1.7 2.3V0h-9v48h9V37.7l3.3-3.3 8.7 13.6h10.4l-13.4-19.7z" id="A_modular_network_stack._3_"/><path class="st3" d="M589.3 29.2c-1.5-.6-3.4-1.1-5.7-1.5-2.3-.4-3.8-1-4.8-1.6-.9-.6-1.4-1.4-1.4-2.4 0-1.1.4-1.9 1.2-2.6.8-.7 2-1 3.5-1 1.8 0 3.1.4 3.9 1.3.8.8 1.2 1.9 1.2 3.2h9c0-3.2-1.3-5.9-3.9-7.9-2.6-2-6-3-10.3-3-4 0-7.3 1-9.8 3-2.5 2-3.7 4.5-3.7 7.5 0 5.1 4 8.6 12.1 10.3 2.4.5 4.2 1.1 5.3 1.7 1.1.6 1.6 1.5 1.6 2.6s-.4 1.9-1.3 2.6c-.9.7-2.2 1-3.9 1-1.9 0-3.3-.4-4.4-1.3-1.1-.9-1.7-2.1-1.8-3.7h-8.6c0 2 .6 3.9 1.9 5.7 1.2 1.8 3 3.1 5.2 4.2 2.2 1 4.7 1.5 7.5 1.5 4.2 0 7.6-1 10.2-2.9 2.6-1.9 4-4.4 4-7.5.2-4.4-2.2-7.5-7-9.2zm24.6 11.2c-.5-.5-.7-1.4-.7-2.7V20.8h5.8v-6.6h-5.8V5.9h-9v8.3h-4.9v6.6h4.9V39c.1 6.4 3.4 9.6 9.7 9.6 1.9 0 3.7-.3 5.5-.8V41c-.8.1-1.7.2-2.7.2-1.4 0-2.3-.3-2.8-.8zm37.8-14.9c0-3.8-1.2-6.7-3.7-8.8-2.4-2.1-5.8-3.1-9.9-3.1-2.7 0-5.2.5-7.4 1.4-2.2.9-3.9 2.3-5.1 3.9-1.2 1.7-1.8 3.5-1.8 5.4h9c0-1.3.4-2.3 1.3-3 .9-.7 2.1-1.1 3.6-1.1 1.7 0 3 .5 3.8 1.4.8.9 1.2 2.2 1.2 3.8v1.9h-4.2c-5 0-8.9 1-11.5 2.9-2.7 1.9-4 4.7-4 8.3 0 2.9 1.1 5.3 3.3 7.3 2.2 1.9 4.9 2.9 8.2 2.9 3.5 0 6.3-1.2 8.5-3.7.2 1.2.5 2.2.9 3h9.1v-.5c-.9-1.6-1.3-4.1-1.3-7.3V25.5zm-9 12.9c-.5 1-1.4 1.8-2.5 2.4-1.1.6-2.4.9-3.7.9-1.4 0-2.5-.4-3.3-1.1-.8-.7-1.2-1.7-1.2-2.8v-.5c.3-3.1 2.7-4.7 7.2-4.7h3.4v5.8zm24.9-15.3c1.1-1.5 2.7-2.3 4.8-2.3 1.7 0 3.1.5 4.1 1.6 1 1.1 1.6 2.5 1.6 4.3h8.5c0-4-1.3-7.2-3.9-9.6-2.6-2.4-5.9-3.6-10.2-3.6-4.8 0-8.6 1.6-11.4 4.7-2.8 3.1-4.2 7.3-4.2 12.5v.6c0 5.4 1.4 9.7 4.2 12.7 2.8 3.1 6.6 4.6 11.4 4.6 2.6 0 4.9-.5 7.1-1.6 2.1-1.1 3.8-2.5 5-4.4 1.2-1.9 1.9-4 1.9-6.3H678c0 1.5-.6 2.7-1.6 3.7-1 .9-2.4 1.4-4.1 1.4-2.2 0-3.8-.8-4.8-2.3-1.1-1.5-1.6-4-1.6-7.5v-.9c.1-3.5.6-6 1.7-7.6zm54.1-8.9h-10.8l-8.7 10.2-1.8 2.3V0h-9v48h9V37.7l3.2-3.3 8.7 13.6h10.4l-13.3-19.7 12.3-14.1zm12.9 25.9c-1-.9-2.2-1.3-3.7-1.3s-2.7.4-3.6 1.3c-1 .9-1.5 2.1-1.5 3.5s.5 2.6 1.4 3.5c1 .9 2.2 1.3 3.7 1.3s2.7-.4 3.7-1.3 1.4-2 1.4-3.5c.1-1.5-.4-2.6-1.4-3.5z" id="A_modular_network_stack._1_"/></svg>