<!-- Generator: Adobe Illustrator 19.1.1, SVG Export Plug-In  -->
<svg version="1.1"
	 xmlns="http://www.w3.org/2000/svg" xmlns:xlink="http://www.w3.org/1999/xlink" xmlns:a="http://ns.adobe.com/AdobeSVGViewerExtensions/3.0/"
	 x="0px" y="0px" width="736.1px" height="48.6px" viewBox="0 0 736.1 48.6" style="enable-background:new 0 0 736.1 48.6;"
	 xml:space="preserve">
<style type="text/css">
	.st0{fill:#A8539E;}
	.st1{fill:#EF65A4;}
	.st2{fill:#F9C234;}
	.st3{fill:#CDDD40;}
</style>
<defs>
</defs>
<g id="A_modular_network_stack._7_">
	<g>
		<path class="st0" d="M25.6,2.5h-8.7L0,48h10l3.1-9.4h16.4l3.2,9.4h10L25.6,2.5z M15.6,31l5.7-17L27,31H15.6z"/>
	</g>
</g>
<g id="A_modular_network_stack._5_">
	<g>
		<path class="st1" d="M99.8,13.6c-4.4,0-7.8,1.7-10.2,5.2c-1.6-3.4-4.6-5.2-9-5.2c-4.1,0-7.3,1.5-9.7,4.4l-0.3-3.8h-8.5V48h9V24
			c1.1-2.1,3-3.2,5.6-3.2c1.9,0,3.2,0.4,3.9,1.3c0.8,0.9,1.2,2.3,1.2,4.3V48h9l0-23.3c1-2.6,2.9-3.9,5.6-3.9c1.9,0,3.2,0.4,4,1.3
			s1.1,2.3,1.1,4.2V48h9.1V26.4c0-4.3-0.9-7.5-2.7-9.6C106.2,14.6,103.5,13.6,99.8,13.6z M143,17.8c-2.9-2.8-6.6-4.2-11.2-4.2
			c-3.2,0-6,0.7-8.5,2.2c-2.4,1.4-4.3,3.5-5.6,6.1c-1.3,2.6-1.9,5.6-1.9,9v0.4c0,5.4,1.5,9.6,4.4,12.8c2.9,3.1,6.8,4.7,11.7,4.7
			s8.8-1.6,11.7-4.7c2.9-3.1,4.3-7.3,4.3-12.5l-0.1-2.3C147.5,24.3,145.9,20.5,143,17.8z M137,38.8c-1.2,1.7-2.9,2.5-5.1,2.5
			c-2.3,0-4-0.9-5.2-2.6c-1.2-1.7-1.8-4.2-1.8-7.4c0-3.6,0.6-6.3,1.8-8c1.2-1.7,2.9-2.6,5.1-2.6c2.2,0,4,0.9,5.2,2.6
			c1.2,1.7,1.8,4.2,1.8,7.3C138.8,34.5,138.2,37.1,137,38.8z M173.3,17.3c-2.1-2.5-4.9-3.7-8.2-3.7c-4.1,0-7.3,1.6-9.7,4.7
			c-2.4,3.1-3.5,7.3-3.5,12.6c0,5.6,1.2,9.9,3.6,13.1c2.4,3.1,5.6,4.7,9.6,4.7c3.5,0,6.4-1.4,8.7-4.2l0.4,3.6h8.2V0h-9.1V17.3z
			 M173.3,37.8c-1.1,2.4-3.1,3.5-5.9,3.5c-2.1,0-3.7-0.8-4.8-2.5c-1.1-1.7-1.7-4.1-1.7-7.3c0-7.1,2.2-10.6,6.5-10.6
			c2.8,0,4.7,1.2,5.8,3.5V37.8z M209.2,38.2c-1.1,2.1-3.2,3.2-6.3,3.2c-3.2,0-4.8-1.8-4.8-5.3V14.2h-9v22.2c0,4,1,7.1,2.9,9.2
			c1.9,2.1,4.7,3.1,8.3,3.1c3.9,0,7-1.4,9.3-4.1l0.3,3.4h8.5V14.2h-9.1V38.2z M225.7,48h9.1V0h-9.1V48z M269.6,25.5
			c0-3.8-1.2-6.7-3.7-8.8c-2.4-2.1-5.8-3.1-9.9-3.1c-2.8,0-5.2,0.5-7.4,1.4c-2.2,0.9-3.9,2.3-5.1,3.9c-1.2,1.7-1.8,3.5-1.8,5.4h9
			c0-1.3,0.4-2.3,1.3-3c0.9-0.7,2.1-1.1,3.6-1.1c1.7,0,3,0.5,3.8,1.4c0.8,0.9,1.2,2.2,1.2,3.8v1.9h-4.2c-5,0-8.9,1-11.5,2.9
			c-2.7,1.9-4,4.7-4,8.3c0,2.9,1.1,5.3,3.3,7.3c2.2,1.9,4.9,2.9,8.2,2.9c3.5,0,6.3-1.2,8.5-3.7c0.2,1.2,0.5,2.2,0.9,3h9.1v-0.5
			c-0.9-1.6-1.3-4.1-1.3-7.3V25.5z M260.6,38.4c-0.5,1-1.4,1.8-2.5,2.4c-1.1,0.6-2.4,0.9-3.7,0.9c-1.4,0-2.5-0.4-3.3-1.1
			c-0.8-0.7-1.2-1.7-1.2-2.8l0-0.5c0.3-3.1,2.7-4.7,7.2-4.7h3.4V38.4z M292.6,13.6c-3.2,0-5.7,1.6-7.5,4.7l-0.3-4h-8.5V48h9V25.9
			c1.1-2.3,3.3-3.5,6.7-3.5c0.9,0,2,0.1,3.2,0.3l0.1-8.7C294.5,13.7,293.6,13.6,292.6,13.6z"/>
	</g>
</g>
<g id="A_modular_network_stack._3_">
	<g>
		<path class="st2" d="M336.1,13.6c-4.1,0-7.3,1.5-9.7,4.5l-0.3-3.9h-8.5V48h9V24.1c1.3-2.2,3.2-3.3,5.7-3.3c1.9,0,3.3,0.4,4.2,1.3
			c0.8,0.9,1.2,2.3,1.2,4.2V48h9V26.2c0-4.2-0.9-7.3-2.7-9.4C342.4,14.6,339.7,13.6,336.1,13.6z M368.4,13.6c-3.1,0-5.8,0.7-8.2,2.2
			c-2.4,1.4-4.3,3.5-5.6,6.2c-1.3,2.7-2,5.7-2,9.1v0.9c0,5.1,1.6,9.1,4.7,12.2c3.1,3,7.2,4.6,12.1,4.6c2.8,0,5.4-0.5,7.7-1.6
			c2.3-1.1,4.1-2.6,5.5-4.5l-4.4-5c-2,2.5-4.7,3.8-8.2,3.8c-2.3,0-4.1-0.7-5.6-2c-1.5-1.3-2.3-3.1-2.6-5.3h21.5v-3.7
			c0-5.4-1.3-9.5-4-12.4C376.6,15,373,13.6,368.4,13.6z M374.4,27.9h-12.6c0.3-2.3,1-4,2.1-5.2c1.1-1.2,2.6-1.8,4.4-1.8
			c1.9,0,3.4,0.5,4.4,1.6c1,1.1,1.6,2.7,1.6,4.7V27.9z M400.3,40.4c-0.5-0.5-0.7-1.4-0.7-2.7V20.8h5.8v-6.6h-5.8V5.9h-9v8.3h-4.9
			v6.6h4.9V39c0.1,6.4,3.4,9.6,9.7,9.6c1.9,0,3.7-0.3,5.5-0.8V41c-0.8,0.1-1.7,0.2-2.7,0.2C401.7,41.2,400.8,40.9,400.3,40.4z
			 M440.2,35.7l-6.2-21.5h-6.5l-6.2,21.5l-4.4-21.5h-8.7l8.6,33.8h7.5l6.4-21.3l6.4,21.3h7.6l8.6-33.8h-8.7L440.2,35.7z M483.5,17.8
			c-2.9-2.8-6.6-4.2-11.2-4.2c-3.2,0-6,0.7-8.5,2.2c-2.4,1.4-4.3,3.5-5.6,6.1c-1.3,2.6-1.9,5.6-1.9,9v0.4c0,5.4,1.5,9.6,4.4,12.8
			c2.9,3.1,6.8,4.7,11.7,4.7c4.9,0,8.8-1.6,11.7-4.7c2.9-3.1,4.3-7.3,4.3-12.5l-0.1-2.3C488,24.3,486.4,20.5,483.5,17.8z
			 M477.6,38.8c-1.2,1.7-2.9,2.5-5.1,2.5c-2.2,0-4-0.9-5.2-2.6c-1.2-1.7-1.8-4.2-1.8-7.4c0-3.6,0.6-6.3,1.8-8
			c1.2-1.7,2.9-2.6,5.1-2.6c2.2,0,4,0.9,5.2,2.6c1.2,1.7,1.8,4.2,1.8,7.3C479.4,34.5,478.8,37.1,477.6,38.8z M502.6,18.2l-0.3-4
			h-8.5V48h9V25.9c1.1-2.3,3.3-3.5,6.7-3.5c0.9,0,2,0.1,3.3,0.3l0.1-8.7c-0.9-0.3-1.8-0.4-2.8-0.4C506.9,13.6,504.4,15.1,502.6,18.2
			z M534.9,28.3l12.2-14.1h-10.8l-8.7,10.2l-1.7,2.3V0h-9v48h9V37.7l3.3-3.3l8.7,13.6h10.4L534.9,28.3z"/>
	</g>
</g>
<g id="A_modular_network_stack._1_">
	<g>
		<path class="st3" d="M589.3,29.2c-1.5-0.6-3.4-1.1-5.7-1.5c-2.3-0.4-3.8-1-4.8-1.6c-0.9-0.6-1.4-1.4-1.4-2.4
			c0-1.1,0.4-1.9,1.2-2.6c0.8-0.7,2-1,3.5-1c1.8,0,3.1,0.4,3.9,1.3c0.8,0.8,1.2,1.9,1.2,3.2h9c0-3.2-1.3-5.9-3.9-7.9
			c-2.6-2-6-3-10.3-3c-4,0-7.3,1-9.8,3c-2.5,2-3.7,4.5-3.7,7.5c0,5.1,4,8.6,12.1,10.3c2.4,0.5,4.2,1.1,5.3,1.7
			c1.1,0.6,1.6,1.5,1.6,2.6c0,1.1-0.4,1.9-1.3,2.6c-0.9,0.7-2.2,1-3.9,1c-1.9,0-3.3-0.4-4.4-1.3c-1.1-0.9-1.7-2.1-1.8-3.7h-8.6
			c0,2,0.6,3.9,1.9,5.7c1.2,1.8,3,3.1,5.2,4.2c2.2,1,4.7,1.5,7.5,1.5c4.2,0,7.6-1,10.2-2.9c2.6-1.9,4-4.4,4-7.5
			C596.5,34,594.1,30.9,589.3,29.2z M613.9,40.4c-0.5-0.5-0.7-1.4-0.7-2.7V20.8h5.8v-6.6h-5.8V5.9h-9v8.3h-4.9v6.6h4.9V39
			c0.1,6.4,3.4,9.6,9.7,9.6c1.9,0,3.7-0.3,5.5-0.8V41c-0.8,0.1-1.7,0.2-2.7,0.2C615.3,41.2,614.4,40.9,613.9,40.4z M651.7,25.5
			c0-3.8-1.2-6.7-3.7-8.8c-2.4-2.1-5.8-3.1-9.9-3.1c-2.7,0-5.2,0.5-7.4,1.4c-2.2,0.9-3.9,2.3-5.1,3.9c-1.2,1.7-1.8,3.5-1.8,5.4h9
			c0-1.3,0.4-2.3,1.3-3c0.9-0.7,2.1-1.1,3.6-1.1c1.7,0,3,0.5,3.8,1.4c0.8,0.9,1.2,2.2,1.2,3.8v1.9h-4.2c-5,0-8.9,1-11.5,2.9
			c-2.7,1.9-4,4.7-4,8.3c0,2.9,1.1,5.3,3.3,7.3c2.2,1.9,4.9,2.9,8.2,2.9c3.5,0,6.3-1.2,8.5-3.7c0.2,1.2,0.5,2.2,0.9,3h9.1v-0.5
			c-0.9-1.6-1.3-4.1-1.3-7.3V25.5z M642.7,38.4c-0.5,1-1.4,1.8-2.5,2.4c-1.1,0.6-2.4,0.9-3.7,0.9c-1.4,0-2.5-0.4-3.3-1.1
			c-0.8-0.7-1.2-1.7-1.2-2.8l0-0.5c0.3-3.1,2.7-4.7,7.2-4.7h3.4V38.4z M667.6,23.1c1.1-1.5,2.7-2.3,4.8-2.3c1.7,0,3.1,0.5,4.1,1.6
			c1,1.1,1.6,2.5,1.6,4.3h8.5c0-4-1.3-7.2-3.9-9.6c-2.6-2.4-5.9-3.6-10.2-3.6c-4.8,0-8.6,1.6-11.4,4.7c-2.8,3.1-4.2,7.3-4.2,12.5
			v0.6c0,5.4,1.4,9.7,4.2,12.7c2.8,3.1,6.6,4.6,11.4,4.6c2.6,0,4.9-0.5,7.1-1.6c2.1-1.1,3.8-2.5,5-4.4c1.2-1.9,1.9-4,1.9-6.3h-8.5
			c0,1.5-0.6,2.7-1.6,3.7c-1,0.9-2.4,1.4-4.1,1.4c-2.2,0-3.8-0.8-4.8-2.3c-1.1-1.5-1.6-4-1.6-7.5v-0.9
			C666,27.2,666.5,24.7,667.6,23.1z M721.7,14.2h-10.8l-8.7,10.2l-1.8,2.3V0h-9v48h9V37.7l3.2-3.3l8.7,13.6h10.4l-13.3-19.7
			L721.7,14.2z M734.6,40.1c-1-0.9-2.2-1.3-3.7-1.3c-1.5,0-2.7,0.4-3.6,1.3c-1,0.9-1.5,2.1-1.5,3.5c0,1.4,0.5,2.6,1.4,3.5
			c1,0.9,2.2,1.3,3.7,1.3c1.5,0,2.7-0.4,3.7-1.3c1-0.9,1.4-2,1.4-3.5C736.1,42.1,735.6,41,734.6,40.1z"/>
	</g>
</g>
</svg>
