<?xml version="1.0" encoding="utf-8"?>
<!-- Generator: Adobe Illustrator 19.1.1, SVG Export Plug-In . SVG Version: 6.00 Build 0)  -->
<svg version="1.1" id="Слой_1" xmlns="http://www.w3.org/2000/svg" xmlns:xlink="http://www.w3.org/1999/xlink" x="0px" y="0px"
	 viewBox="-237 363.3 119.6 115.6" style="enable-background:new -237 363.3 119.6 115.6;" xml:space="preserve">
<style type="text/css">
	.st0{clip-path:url(#SVGID_2_);}
	.st1{clip-path:url(#SVGID_4_);fill:#94D6E2;}
	.st2{clip-path:url(#SVGID_6_);}
	.st3{clip-path:url(#SVGID_8_);fill:#73CDDD;}
	.st4{opacity:0.9;enable-background:new    ;}
	.st5{clip-path:url(#SVGID_10_);}
	.st6{clip-path:url(#SVGID_12_);fill:#3CAFBB;}
	.st7{clip-path:url(#SVGID_14_);}
	.st8{clip-path:url(#SVGID_16_);}
	.st9{clip-path:url(#SVGID_18_);fill:#94D6E2;}
	.st10{clip-path:url(#SVGID_20_);}
	.st11{clip-path:url(#SVGID_22_);}
	.st12{clip-path:url(#SVGID_24_);fill:#73CDDD;}
	.st13{clip-path:url(#SVGID_26_);}
	.st14{clip-path:url(#SVGID_28_);}
	.st15{clip-path:url(#SVGID_30_);fill:#3CAFBB;}
</style>
<g>
	<defs>
		<polygon id="SVGID_1_" points="-195.5,410.5 -195.5,410.5 -195.5,410.5 -195.2,410.3 -159,389.5 -195.5,368.3 -195.5,368.3 
			-195.5,368.3 -232,389.3 		"/>
	</defs>
	<clipPath id="SVGID_2_">
		<use xlink:href="#SVGID_1_"  style="overflow:visible;"/>
	</clipPath>
	<g class="st0">
		<g>
			<defs>
				<rect id="SVGID_3_" x="-232" y="368" width="74" height="85"/>
			</defs>
			<clipPath id="SVGID_4_">
				<use xlink:href="#SVGID_3_"  style="overflow:visible;"/>
			</clipPath>
			<rect x="-237" y="363.3" class="st1" width="83" height="52.2"/>
		</g>
	</g>
</g>
<g>
	<defs>
		<polygon id="SVGID_5_" points="-195.5,452.7 -195.5,452.7 -195.5,452.7 -195.5,410.5 -232,389.3 -232,389.3 -232,431.4 
			-232,431.4 		"/>
	</defs>
	<clipPath id="SVGID_6_">
		<use xlink:href="#SVGID_5_"  style="overflow:visible;"/>
	</clipPath>
	<g class="st2">
		<g>
			<defs>
				<rect id="SVGID_7_" x="-232" y="368" width="74" height="85"/>
			</defs>
			<clipPath id="SVGID_8_">
				<use xlink:href="#SVGID_7_"  style="overflow:visible;"/>
			</clipPath>
			<rect x="-237" y="384.3" class="st3" width="46.5" height="73.4"/>
		</g>
	</g>
</g>
<g class="st4">
	<g>
		<g>
			<defs>
				<polygon id="SVGID_9_" points="-159,389.5 -195.2,410.3 -195.5,410.5 -195.5,410.5 -195.5,452.7 -195.5,452.7 -195.5,452.7 
					-159,431.7 -159,431.7 -159,431.7 -159,389.5 				"/>
			</defs>
			<clipPath id="SVGID_10_">
				<use xlink:href="#SVGID_9_"  style="overflow:visible;"/>
			</clipPath>
			<g class="st5">
				<g>
					<defs>
						<rect id="SVGID_11_" x="-232" y="368" width="74" height="85"/>
					</defs>
					<clipPath id="SVGID_12_">
						<use xlink:href="#SVGID_11_"  style="overflow:visible;"/>
					</clipPath>
					<rect x="-200.5" y="384.5" class="st6" width="46.5" height="73.1"/>
				</g>
			</g>
		</g>
	</g>
</g>
<g>
	<g>
		<defs>
			<rect id="SVGID_13_" x="-196" y="389" width="74" height="85"/>
		</defs>
		<clipPath id="SVGID_14_">
			<use xlink:href="#SVGID_13_"  style="overflow:visible;"/>
		</clipPath>
		<g class="st7">
			<g>
				<defs>
					<polygon id="SVGID_15_" points="-159,431.7 -159,431.7 -159,431.7 -158.7,431.5 -122.5,410.7 -159,389.5 -159,389.5 
						-159,389.5 -195.5,410.5 					"/>
				</defs>
				<clipPath id="SVGID_16_">
					<use xlink:href="#SVGID_15_"  style="overflow:visible;"/>
				</clipPath>
				<g class="st8">
					<g>
						<defs>
							<rect id="SVGID_17_" x="-196" y="389" width="74" height="85"/>
						</defs>
						<clipPath id="SVGID_18_">
							<use xlink:href="#SVGID_17_"  style="overflow:visible;"/>
						</clipPath>
						<rect x="-200.5" y="384.5" class="st9" width="83" height="52.2"/>
					</g>
				</g>
			</g>
			<g>
				<defs>
					<rect id="SVGID_19_" x="-196" y="389" width="74" height="85"/>
				</defs>
				<clipPath id="SVGID_20_">
					<use xlink:href="#SVGID_19_"  style="overflow:visible;"/>
				</clipPath>
				<g class="st10">
					<g>
						<defs>
							<polygon id="SVGID_21_" points="-159,473.9 -159,473.9 -159,473.9 -159,431.7 -195.5,410.5 -195.5,410.5 -195.5,452.7 
								-195.5,452.7 							"/>
						</defs>
						<clipPath id="SVGID_22_">
							<use xlink:href="#SVGID_21_"  style="overflow:visible;"/>
						</clipPath>
						<g class="st11">
							<g>
								<defs>
									<rect id="SVGID_23_" x="-196" y="389" width="74" height="85"/>
								</defs>
								<clipPath id="SVGID_24_">
									<use xlink:href="#SVGID_23_"  style="overflow:visible;"/>
								</clipPath>
								<rect x="-200.5" y="405.5" class="st12" width="46.5" height="73.4"/>
							</g>
						</g>
					</g>
					<g class="st4">
						<defs>
							<rect id="SVGID_25_" x="-196" y="389" class="st4" width="74" height="85"/>
						</defs>
						<clipPath id="SVGID_26_">
							<use xlink:href="#SVGID_25_"  style="overflow:visible;"/>
						</clipPath>
						<g class="st13">
							<g>
								<defs>
									<polygon id="SVGID_27_" points="-122.4,410.7 -158.7,431.5 -159,431.7 -159,431.7 -159,473.9 -159,473.9 -159,473.9 
										-122.4,452.9 -122.4,452.9 -122.4,452.9 -122.4,410.7 									"/>
								</defs>
								<clipPath id="SVGID_28_">
									<use xlink:href="#SVGID_27_"  style="overflow:visible;"/>
								</clipPath>
								<g class="st14">
									<g>
										<defs>
											<rect id="SVGID_29_" x="-196" y="389" width="74" height="85"/>
										</defs>
										<clipPath id="SVGID_30_">
											<use xlink:href="#SVGID_29_"  style="overflow:visible;"/>
										</clipPath>
										<rect x="-164" y="405.7" class="st15" width="46.5" height="73.1"/>
									</g>
								</g>
							</g>
						</g>
					</g>
				</g>
			</g>
		</g>
	</g>
</g>
</svg>
