<?xml version="1.0" encoding="utf-8"?>
<!-- Generator: Adobe Illustrator 19.1.1, SVG Export Plug-In . SVG Version: 6.00 Build 0)  -->
<svg version="1.1" id="Слой_1" xmlns="http://www.w3.org/2000/svg" xmlns:xlink="http://www.w3.org/1999/xlink" x="0px" y="0px"
	 viewBox="0 0 13 15" style="enable-background:new 0 0 13 15;" xml:space="preserve">
<style type="text/css">
	.st0{opacity:0.9;enable-background:new    ;}
	.st1{clip-path:url(#SVGID_2_);}
	.st2{clip-path:url(#SVGID_4_);}
	.st3{clip-path:url(#SVGID_6_);fill:#F6AF1A;}
	.st4{clip-path:url(#SVGID_8_);}
	.st5{clip-path:url(#SVGID_10_);fill:#F29020;}
	.st6{clip-path:url(#SVGID_12_);}
	.st7{clip-path:url(#SVGID_14_);fill:#F8A120;}
	.st8{clip-path:url(#SVGID_16_);}
	.st9{clip-path:url(#SVGID_18_);}
	.st10{clip-path:url(#SVGID_20_);fill:#F6AF1A;}
	.st11{clip-path:url(#SVGID_22_);}
	.st12{clip-path:url(#SVGID_24_);fill:#F29020;}
	.st13{clip-path:url(#SVGID_26_);}
	.st14{clip-path:url(#SVGID_28_);fill:#F8A120;}
	.st15{clip-path:url(#SVGID_30_);}
	.st16{clip-path:url(#SVGID_32_);}
	.st17{clip-path:url(#SVGID_34_);fill:#F6AF1A;}
	.st18{clip-path:url(#SVGID_36_);}
	.st19{clip-path:url(#SVGID_38_);fill:#F29020;}
	.st20{clip-path:url(#SVGID_40_);}
	.st21{clip-path:url(#SVGID_42_);fill:#F8A120;}
</style>
<g class="st0">
	<g>
		<defs>
			<rect id="SVGID_1_" y="5" width="9" height="10"/>
		</defs>
		<clipPath id="SVGID_2_">
			<use xlink:href="#SVGID_1_"  style="overflow:visible;"/>
		</clipPath>
		<g class="st1">
			<defs>
				<polygon id="SVGID_3_" points="4.3,10 4.3,10 4.3,10 4.3,10 8.5,7.6 4.3,5.3 4.3,5.3 4.3,5.3 0.1,7.6 4.3,10 				"/>
			</defs>
			<clipPath id="SVGID_4_">
				<use xlink:href="#SVGID_3_"  style="overflow:visible;"/>
			</clipPath>
			<g class="st2">
				<defs>
					<rect id="SVGID_5_" y="5" width="9" height="10"/>
				</defs>
				<clipPath id="SVGID_6_">
					<use xlink:href="#SVGID_5_"  style="overflow:visible;"/>
				</clipPath>
				<rect x="-4.9" y="0.3" class="st3" width="18.4" height="14.7"/>
			</g>
		</g>
		<g class="st1">
			<defs>
				<polygon id="SVGID_7_" points="4.3,14.7 4.3,14.7 4.3,14.7 4.3,10 0.1,7.6 0.1,7.6 0.1,12.3 0.1,12.3 				"/>
			</defs>
			<clipPath id="SVGID_8_">
				<use xlink:href="#SVGID_7_"  style="overflow:visible;"/>
			</clipPath>
			<g class="st4">
				<defs>
					<rect id="SVGID_9_" y="5" width="9" height="10"/>
				</defs>
				<clipPath id="SVGID_10_">
					<use xlink:href="#SVGID_9_"  style="overflow:visible;"/>
				</clipPath>
				<rect x="-4.9" y="2.6" class="st5" width="14.2" height="17.1"/>
			</g>
		</g>
		<g class="st1">
			<defs>
				<polygon id="SVGID_11_" points="8.5,7.6 4.3,10 4.3,10 4.3,10 4.3,14.7 4.3,14.7 4.3,14.7 8.5,12.4 8.5,12.4 8.5,7.6 8.5,7.6 
									"/>
			</defs>
			<clipPath id="SVGID_12_">
				<use xlink:href="#SVGID_11_"  style="overflow:visible;"/>
			</clipPath>
			<g class="st6">
				<defs>
					<rect id="SVGID_13_" y="5" width="9" height="10"/>
				</defs>
				<clipPath id="SVGID_14_">
					<use xlink:href="#SVGID_13_"  style="overflow:visible;"/>
				</clipPath>
				<rect x="-0.7" y="2.6" class="st7" width="14.2" height="17.1"/>
			</g>
		</g>
	</g>
</g>
<g class="st0">
	<g>
		<defs>
			<rect id="SVGID_15_" width="9" height="10"/>
		</defs>
		<clipPath id="SVGID_16_">
			<use xlink:href="#SVGID_15_"  style="overflow:visible;"/>
		</clipPath>
		<g class="st8">
			<defs>
				<polygon id="SVGID_17_" points="4.3,4.8 4.3,4.8 4.3,4.8 4.3,4.8 8.5,2.4 4.3,0.1 4.3,0.1 0.1,2.4 4.3,4.8 				"/>
			</defs>
			<clipPath id="SVGID_18_">
				<use xlink:href="#SVGID_17_"  style="overflow:visible;"/>
			</clipPath>
			<g class="st9">
				<defs>
					<rect id="SVGID_19_" width="9" height="10"/>
				</defs>
				<clipPath id="SVGID_20_">
					<use xlink:href="#SVGID_19_"  style="overflow:visible;"/>
				</clipPath>
				<rect x="-4.9" y="-4.9" class="st10" width="18.4" height="14.7"/>
			</g>
		</g>
		<g class="st8">
			<defs>
				<polygon id="SVGID_21_" points="4.3,9.5 4.3,9.5 4.3,9.5 4.3,4.8 0.1,2.4 0.1,2.4 0.1,7.1 0.1,7.1 				"/>
			</defs>
			<clipPath id="SVGID_22_">
				<use xlink:href="#SVGID_21_"  style="overflow:visible;"/>
			</clipPath>
			<g class="st11">
				<defs>
					<rect id="SVGID_23_" width="9" height="10"/>
				</defs>
				<clipPath id="SVGID_24_">
					<use xlink:href="#SVGID_23_"  style="overflow:visible;"/>
				</clipPath>
				<rect x="-4.9" y="-2.6" class="st12" width="14.2" height="17.1"/>
			</g>
		</g>
		<g class="st8">
			<defs>
				<polygon id="SVGID_25_" points="8.5,2.4 4.3,4.8 4.3,4.8 4.3,4.8 4.3,9.5 4.3,9.5 4.3,9.5 8.5,7.2 8.5,7.2 8.5,7.2 8.5,2.4 				
					"/>
			</defs>
			<clipPath id="SVGID_26_">
				<use xlink:href="#SVGID_25_"  style="overflow:visible;"/>
			</clipPath>
			<g class="st13">
				<defs>
					<rect id="SVGID_27_" width="9" height="10"/>
				</defs>
				<clipPath id="SVGID_28_">
					<use xlink:href="#SVGID_27_"  style="overflow:visible;"/>
				</clipPath>
				<rect x="-0.7" y="-2.6" class="st14" width="14.2" height="17.1"/>
			</g>
		</g>
	</g>
</g>
<g class="st0">
	<g>
		<defs>
			<rect id="SVGID_29_" x="4" y="2" width="9" height="10"/>
		</defs>
		<clipPath id="SVGID_30_">
			<use xlink:href="#SVGID_29_"  style="overflow:visible;"/>
		</clipPath>
		<g class="st15">
			<defs>
				<polygon id="SVGID_31_" points="8.5,7.2 8.5,7.2 8.5,7.2 8.5,7.2 12.7,4.8 8.5,2.4 8.5,2.4 8.5,2.4 4.3,4.8 8.5,7.2 				"/>
			</defs>
			<clipPath id="SVGID_32_">
				<use xlink:href="#SVGID_31_"  style="overflow:visible;"/>
			</clipPath>
			<g class="st16">
				<defs>
					<rect id="SVGID_33_" x="4" y="2" width="9" height="10"/>
				</defs>
				<clipPath id="SVGID_34_">
					<use xlink:href="#SVGID_33_"  style="overflow:visible;"/>
				</clipPath>
				<rect x="-0.7" y="-2.6" class="st17" width="18.4" height="14.7"/>
			</g>
		</g>
		<g class="st15">
			<defs>
				<polygon id="SVGID_35_" points="8.5,11.9 8.5,11.9 8.5,11.9 8.5,7.2 4.3,4.8 4.3,4.8 4.3,9.5 4.3,9.5 				"/>
			</defs>
			<clipPath id="SVGID_36_">
				<use xlink:href="#SVGID_35_"  style="overflow:visible;"/>
			</clipPath>
			<g class="st18">
				<defs>
					<rect id="SVGID_37_" x="4" y="2" width="9" height="10"/>
				</defs>
				<clipPath id="SVGID_38_">
					<use xlink:href="#SVGID_37_"  style="overflow:visible;"/>
				</clipPath>
				<rect x="-0.7" y="-0.2" class="st19" width="14.2" height="17.1"/>
			</g>
		</g>
		<g class="st15">
			<defs>
				<polygon id="SVGID_39_" points="12.7,4.8 8.5,7.2 8.5,7.2 8.5,7.2 8.5,11.9 8.5,11.9 8.5,11.9 12.7,9.6 12.7,9.6 12.7,4.8 				
					"/>
			</defs>
			<clipPath id="SVGID_40_">
				<use xlink:href="#SVGID_39_"  style="overflow:visible;"/>
			</clipPath>
			<g class="st20">
				<defs>
					<rect id="SVGID_41_" x="4" y="2" width="9" height="10"/>
				</defs>
				<clipPath id="SVGID_42_">
					<use xlink:href="#SVGID_41_"  style="overflow:visible;"/>
				</clipPath>
				<rect x="3.5" y="-0.2" class="st21" width="14.2" height="17.1"/>
			</g>
		</g>
	</g>
</g>
</svg>
