<!-- Generator: Adobe Illustrator 19.1.1, SVG Export Plug-In  -->
<svg version="1.1"
	 xmlns="http://www.w3.org/2000/svg" xmlns:xlink="http://www.w3.org/1999/xlink" xmlns:a="http://ns.adobe.com/AdobeSVGViewerExtensions/3.0/"
	 x="0px" y="0px" width="83.1px" height="140.6px" viewBox="0 0 83.1 140.6" style="enable-background:new 0 0 83.1 140.6;"
	 xml:space="preserve">
<style type="text/css">
	.st0{opacity:0.9;enable-background:new    ;}
	.st1{clip-path:url(#SVGID_2_);}
	.st2{clip-path:url(#SVGID_4_);}
	.st3{clip-path:url(#SVGID_6_);fill:#EE549A;}
	.st4{clip-path:url(#SVGID_8_);}
	.st5{clip-path:url(#SVGID_10_);fill:#D01B67;}
	.st6{clip-path:url(#SVGID_12_);}
	.st7{clip-path:url(#SVGID_14_);fill:#EC1067;}
	.st8{clip-path:url(#SVGID_16_);}
	.st9{clip-path:url(#SVGID_18_);}
	.st10{clip-path:url(#SVGID_20_);fill:#EE549A;}
	.st11{clip-path:url(#SVGID_22_);}
	.st12{clip-path:url(#SVGID_24_);fill:#D01B67;}
	.st13{clip-path:url(#SVGID_26_);}
	.st14{clip-path:url(#SVGID_28_);fill:#EC1067;}
	.st15{clip-path:url(#SVGID_30_);}
	.st16{clip-path:url(#SVGID_32_);}
	.st17{clip-path:url(#SVGID_34_);fill:#EE549A;}
	.st18{clip-path:url(#SVGID_36_);}
	.st19{clip-path:url(#SVGID_38_);fill:#D01B67;}
	.st20{clip-path:url(#SVGID_40_);}
	.st21{clip-path:url(#SVGID_42_);fill:#EC1067;}
	.st22{clip-path:url(#SVGID_44_);}
	.st23{clip-path:url(#SVGID_46_);}
	.st24{clip-path:url(#SVGID_48_);fill:#EE549A;}
	.st25{clip-path:url(#SVGID_50_);}
	.st26{clip-path:url(#SVGID_52_);fill:#D01B67;}
	.st27{clip-path:url(#SVGID_54_);}
	.st28{clip-path:url(#SVGID_56_);fill:#EC1067;}
</style>
<defs>
</defs>
<g>
	<g class="st0">
		<g>
			<defs>
				<rect id="SVGID_1_" x="4.5" y="50.3" width="74" height="86"/>
			</defs>
			<clipPath id="SVGID_2_">
				<use xlink:href="#SVGID_1_"  style="overflow:visible;"/>
			</clipPath>
			<g class="st1">
				<defs>
					<polygon id="SVGID_3_" points="41.5,93.5 41.5,93.5 41.5,93.5 41.8,93.3 78,72.5 41.5,51.3 41.5,51.3 41.5,51.3 41.5,51.3 
						5,72.2 41.5,93.5 					"/>
				</defs>
				<clipPath id="SVGID_4_">
					<use xlink:href="#SVGID_3_"  style="overflow:visible;"/>
				</clipPath>
				<g class="st2">
					<defs>
						<rect id="SVGID_5_" x="4.5" y="50.3" width="74" height="86"/>
					</defs>
					<clipPath id="SVGID_6_">
						<use xlink:href="#SVGID_5_"  style="overflow:visible;"/>
					</clipPath>
					<rect x="0" y="46.3" class="st3" width="83" height="52.2"/>
				</g>
			</g>
			<g class="st1">
				<defs>
					<polygon id="SVGID_7_" points="41.5,135.6 41.5,135.6 41.5,135.6 41.5,93.5 5,72.2 5,72.2 5,72.2 5,114.4 5,114.4 					"/>
				</defs>
				<clipPath id="SVGID_8_">
					<use xlink:href="#SVGID_7_"  style="overflow:visible;"/>
				</clipPath>
				<g class="st4">
					<defs>
						<rect id="SVGID_9_" x="4.5" y="50.3" width="74" height="86"/>
					</defs>
					<clipPath id="SVGID_10_">
						<use xlink:href="#SVGID_9_"  style="overflow:visible;"/>
					</clipPath>
					<rect y="67.2" class="st5" width="46.5" height="73.4"/>
				</g>
			</g>
			<g class="st1">
				<defs>
					<polygon id="SVGID_11_" points="78,72.5 41.8,93.3 41.5,93.5 41.5,93.5 41.5,135.6 41.5,135.6 41.5,135.6 41.5,135.6 78,114.7 
						78,114.7 78,114.7 78.1,72.5 78,72.5 					"/>
				</defs>
				<clipPath id="SVGID_12_">
					<use xlink:href="#SVGID_11_"  style="overflow:visible;"/>
				</clipPath>
				<g class="st6">
					<defs>
						<rect id="SVGID_13_" x="4.5" y="50.3" width="74" height="86"/>
					</defs>
					<clipPath id="SVGID_14_">
						<use xlink:href="#SVGID_13_"  style="overflow:visible;"/>
					</clipPath>
					<rect x="36.5" y="67.5" class="st7" width="46.5" height="73.1"/>
				</g>
			</g>
		</g>
	</g>
	<g class="st0">
		<g>
			<defs>
				<rect id="SVGID_15_" x="4.5" y="4.3" width="74" height="86"/>
			</defs>
			<clipPath id="SVGID_16_">
				<use xlink:href="#SVGID_15_"  style="overflow:visible;"/>
			</clipPath>
			<g class="st8">
				<defs>
					<polygon id="SVGID_17_" points="41.5,47.2 41.5,47.2 41.5,47.2 41.8,47 78,26.2 41.5,5 41.5,5 41.5,5 5,26 41.5,47.2 					"/>
				</defs>
				<clipPath id="SVGID_18_">
					<use xlink:href="#SVGID_17_"  style="overflow:visible;"/>
				</clipPath>
				<g class="st9">
					<defs>
						<rect id="SVGID_19_" x="4.5" y="4.3" width="74" height="86"/>
					</defs>
					<clipPath id="SVGID_20_">
						<use xlink:href="#SVGID_19_"  style="overflow:visible;"/>
					</clipPath>
					<rect x="0" class="st10" width="83" height="52.2"/>
				</g>
			</g>
			<g class="st8">
				<defs>
					<polygon id="SVGID_21_" points="41.5,89.4 41.5,89.4 41.5,89.4 41.5,47.2 5,26 5,26 5,68.1 5,68.1 					"/>
				</defs>
				<clipPath id="SVGID_22_">
					<use xlink:href="#SVGID_21_"  style="overflow:visible;"/>
				</clipPath>
				<g class="st11">
					<defs>
						<rect id="SVGID_23_" x="4.5" y="4.3" width="74" height="86"/>
					</defs>
					<clipPath id="SVGID_24_">
						<use xlink:href="#SVGID_23_"  style="overflow:visible;"/>
					</clipPath>
					<rect y="21" class="st12" width="46.5" height="73.4"/>
				</g>
			</g>
			<g class="st8">
				<defs>
					<polygon id="SVGID_25_" points="78,26.2 41.8,47 41.5,47.2 41.5,47.2 41.5,89.4 41.5,89.4 41.5,89.4 78,68.4 78,68.4 78,68.4 
						78,26.2 78,26.2 					"/>
				</defs>
				<clipPath id="SVGID_26_">
					<use xlink:href="#SVGID_25_"  style="overflow:visible;"/>
				</clipPath>
				<g class="st13">
					<defs>
						<rect id="SVGID_27_" x="4.5" y="4.3" width="74" height="86"/>
					</defs>
					<clipPath id="SVGID_28_">
						<use xlink:href="#SVGID_27_"  style="overflow:visible;"/>
					</clipPath>
					<rect x="36.5" y="21.2" class="st14" width="46.5" height="73.1"/>
				</g>
			</g>
		</g>
	</g>
</g>
</svg>
