<!-- Generator: Adobe Illustrator 19.1.1, SVG Export Plug-In  -->
<svg version="1.1"
	 xmlns="http://www.w3.org/2000/svg" xmlns:xlink="http://www.w3.org/1999/xlink" xmlns:a="http://ns.adobe.com/AdobeSVGViewerExtensions/3.0/"
	 x="0px" y="0px" width="83.1px" height="186.9px" viewBox="0 0 83.1 186.9" style="enable-background:new 0 0 83.1 186.9;"
	 xml:space="preserve">
<style type="text/css">
	.st0{opacity:0.9;enable-background:new    ;}
	.st1{clip-path:url(#SVGID_2_);}
	.st2{clip-path:url(#SVGID_4_);}
	.st3{clip-path:url(#SVGID_6_);fill:#BEC831;}
	.st4{clip-path:url(#SVGID_8_);}
	.st5{clip-path:url(#SVGID_10_);fill:#A1A938;}
	.st6{clip-path:url(#SVGID_12_);}
	.st7{clip-path:url(#SVGID_14_);fill:#999B36;}
	.st8{clip-path:url(#SVGID_16_);}
	.st9{clip-path:url(#SVGID_18_);}
	.st10{clip-path:url(#SVGID_20_);fill:#BEC831;}
	.st11{clip-path:url(#SVGID_22_);}
	.st12{clip-path:url(#SVGID_24_);fill:#A1A938;}
	.st13{clip-path:url(#SVGID_26_);}
	.st14{clip-path:url(#SVGID_28_);fill:#999B36;}
	.st15{clip-path:url(#SVGID_30_);}
	.st16{clip-path:url(#SVGID_32_);}
	.st17{clip-path:url(#SVGID_34_);enable-background:new    ;}
	.st18{clip-path:url(#SVGID_36_);}
	.st19{clip-path:url(#SVGID_38_);}
	.st20{clip-path:url(#SVGID_40_);fill:#BEC831;}
	.st21{clip-path:url(#SVGID_42_);}
	.st22{clip-path:url(#SVGID_44_);fill:#A1A938;}
	.st23{clip-path:url(#SVGID_46_);}
	.st24{clip-path:url(#SVGID_48_);fill:#999B36;}
	.st25{clip-path:url(#SVGID_50_);}
	.st26{clip-path:url(#SVGID_52_);}
	.st27{clip-path:url(#SVGID_54_);fill:#BEC831;}
	.st28{clip-path:url(#SVGID_56_);}
	.st29{clip-path:url(#SVGID_58_);fill:#A1A938;}
	.st30{clip-path:url(#SVGID_60_);}
	.st31{clip-path:url(#SVGID_62_);fill:#999B36;}
	.st32{clip-path:url(#SVGID_64_);}
	.st33{clip-path:url(#SVGID_66_);}
	.st34{clip-path:url(#SVGID_68_);fill:#BEC831;}
	.st35{clip-path:url(#SVGID_70_);}
	.st36{clip-path:url(#SVGID_72_);fill:#A1A938;}
	.st37{clip-path:url(#SVGID_74_);}
	.st38{clip-path:url(#SVGID_76_);fill:#999B36;}
	.st39{clip-path:url(#SVGID_78_);}
	.st40{clip-path:url(#SVGID_80_);}
	.st41{clip-path:url(#SVGID_82_);enable-background:new    ;}
	.st42{clip-path:url(#SVGID_84_);}
	.st43{clip-path:url(#SVGID_86_);}
	.st44{clip-path:url(#SVGID_88_);fill:#BEC831;}
	.st45{clip-path:url(#SVGID_90_);}
	.st46{clip-path:url(#SVGID_92_);fill:#A1A938;}
	.st47{clip-path:url(#SVGID_94_);}
	.st48{clip-path:url(#SVGID_96_);fill:#999B36;}
</style>
<defs>
</defs>
<g>
	<g class="st0">
		<g>
			<defs>
				<rect id="SVGID_1_" x="5" y="97.2" width="74" height="85"/>
			</defs>
			<clipPath id="SVGID_2_">
				<use xlink:href="#SVGID_1_"  style="overflow:visible;"/>
			</clipPath>
			<g class="st1">
				<defs>
					<polygon id="SVGID_3_" points="41.5,139.7 41.5,139.7 41.5,139.7 41.8,139.6 78,118.8 41.5,97.5 41.5,97.5 41.5,97.5 5,118.5 
						41.5,139.7 					"/>
				</defs>
				<clipPath id="SVGID_4_">
					<use xlink:href="#SVGID_3_"  style="overflow:visible;"/>
				</clipPath>
				<g class="st2">
					<defs>
						<rect id="SVGID_5_" x="5" y="97.2" width="74" height="85"/>
					</defs>
					<clipPath id="SVGID_6_">
						<use xlink:href="#SVGID_5_"  style="overflow:visible;"/>
					</clipPath>
					<rect x="0" y="92.5" class="st3" width="83" height="52.2"/>
				</g>
			</g>
			<g class="st1">
				<defs>
					<polygon id="SVGID_7_" points="41.5,181.9 41.5,181.9 41.5,181.9 41.5,139.7 5,118.5 5,118.5 5,160.7 5,160.7 					"/>
				</defs>
				<clipPath id="SVGID_8_">
					<use xlink:href="#SVGID_7_"  style="overflow:visible;"/>
				</clipPath>
				<g class="st4">
					<defs>
						<rect id="SVGID_9_" x="5" y="97.2" width="74" height="85"/>
					</defs>
					<clipPath id="SVGID_10_">
						<use xlink:href="#SVGID_9_"  style="overflow:visible;"/>
					</clipPath>
					<rect y="113.5" class="st5" width="46.5" height="73.4"/>
				</g>
			</g>
			<g class="st1">
				<defs>
					<polygon id="SVGID_11_" points="78,118.8 41.8,139.6 41.5,139.7 41.5,139.7 41.5,181.9 41.5,181.9 41.5,181.9 78,160.9 
						78,160.9 78,160.9 78,118.8 78,118.8 					"/>
				</defs>
				<clipPath id="SVGID_12_">
					<use xlink:href="#SVGID_11_"  style="overflow:visible;"/>
				</clipPath>
				<g class="st6">
					<defs>
						<rect id="SVGID_13_" x="5" y="97.2" width="74" height="85"/>
					</defs>
					<clipPath id="SVGID_14_">
						<use xlink:href="#SVGID_13_"  style="overflow:visible;"/>
					</clipPath>
					<rect x="36.5" y="113.8" class="st7" width="46.5" height="73.1"/>
				</g>
			</g>
		</g>
	</g>
	<g class="st0">
		<g>
			<defs>
				<rect id="SVGID_15_" x="5" y="51.2" width="74" height="85"/>
			</defs>
			<clipPath id="SVGID_16_">
				<use xlink:href="#SVGID_15_"  style="overflow:visible;"/>
			</clipPath>
			<g class="st8">
				<defs>
					<polygon id="SVGID_17_" points="41.5,93.5 41.5,93.5 41.5,93.5 41.8,93.3 78,72.5 41.6,51.3 41.6,51.3 41.6,51.3 41.5,51.3 
						5,72.2 41.5,93.5 					"/>
				</defs>
				<clipPath id="SVGID_18_">
					<use xlink:href="#SVGID_17_"  style="overflow:visible;"/>
				</clipPath>
				<g class="st9">
					<defs>
						<rect id="SVGID_19_" x="5" y="51.2" width="74" height="85"/>
					</defs>
					<clipPath id="SVGID_20_">
						<use xlink:href="#SVGID_19_"  style="overflow:visible;"/>
					</clipPath>
					<rect x="0" y="46.3" class="st10" width="83" height="52.2"/>
				</g>
			</g>
			<g class="st8">
				<defs>
					<polygon id="SVGID_21_" points="41.5,135.6 41.5,135.6 41.5,135.6 41.5,93.5 5,72.2 5,72.2 5,114.4 5,114.4 					"/>
				</defs>
				<clipPath id="SVGID_22_">
					<use xlink:href="#SVGID_21_"  style="overflow:visible;"/>
				</clipPath>
				<g class="st11">
					<defs>
						<rect id="SVGID_23_" x="5" y="51.2" width="74" height="85"/>
					</defs>
					<clipPath id="SVGID_24_">
						<use xlink:href="#SVGID_23_"  style="overflow:visible;"/>
					</clipPath>
					<rect x="0" y="67.2" class="st12" width="46.5" height="73.4"/>
				</g>
			</g>
			<g class="st8">
				<defs>
					<polygon id="SVGID_25_" points="78.1,72.5 41.8,93.3 41.5,93.5 41.5,93.5 41.5,135.6 41.5,135.6 41.5,135.6 41.5,135.6 
						78,114.7 78,114.7 78,114.7 78.1,72.5 78.1,72.5 					"/>
				</defs>
				<clipPath id="SVGID_26_">
					<use xlink:href="#SVGID_25_"  style="overflow:visible;"/>
				</clipPath>
				<g class="st13">
					<defs>
						<rect id="SVGID_27_" x="5" y="51.2" width="74" height="85"/>
					</defs>
					<clipPath id="SVGID_28_">
						<use xlink:href="#SVGID_27_"  style="overflow:visible;"/>
					</clipPath>
					<rect x="36.5" y="67.5" class="st14" width="46.5" height="73.1"/>
				</g>
			</g>
		</g>
	</g>
	<g class="st0">
		<g>
			<defs>
				<rect id="SVGID_29_" x="5" y="4.2" width="74" height="86"/>
			</defs>
			<clipPath id="SVGID_30_">
				<use xlink:href="#SVGID_29_"  style="overflow:visible;"/>
			</clipPath>
			<g class="st15">
				<defs>
					<rect id="SVGID_31_" x="5" y="5" width="73" height="42.2"/>
				</defs>
				<clipPath id="SVGID_32_">
					<use xlink:href="#SVGID_31_"  style="overflow:visible;"/>
				</clipPath>
				<g class="st16">
					<defs>
						<rect id="SVGID_33_" x="5" y="4.2" width="74" height="86"/>
					</defs>
					<clipPath id="SVGID_34_">
						<use xlink:href="#SVGID_33_"  style="overflow:visible;"/>
					</clipPath>
					<g class="st17">
						<g>
							<defs>
								<rect id="SVGID_35_" x="5" y="4.2" width="74" height="43"/>
							</defs>
							<clipPath id="SVGID_36_">
								<use xlink:href="#SVGID_35_"  style="overflow:visible;"/>
							</clipPath>
							<g class="st18">
								<defs>
									<polygon id="SVGID_37_" points="41.5,47.2 41.5,47.2 41.5,47.2 41.8,47 78,26.2 41.5,5 41.5,5 41.5,5 5,26 41.5,47.2 
																			"/>
								</defs>
								<clipPath id="SVGID_38_">
									<use xlink:href="#SVGID_37_"  style="overflow:visible;"/>
								</clipPath>
								<g class="st19">
									<defs>
										<rect id="SVGID_39_" x="5" y="4.2" width="74" height="43"/>
									</defs>
									<clipPath id="SVGID_40_">
										<use xlink:href="#SVGID_39_"  style="overflow:visible;"/>
									</clipPath>
									<rect x="0" class="st20" width="83" height="52.2"/>
								</g>
							</g>
						</g>
					</g>
				</g>
			</g>
			<g class="st15">
				<defs>
					<polygon id="SVGID_41_" points="41.5,89.4 41.5,89.4 41.5,89.4 41.5,47.2 5,26 5,26 5,68.1 5,68.1 					"/>
				</defs>
				<clipPath id="SVGID_42_">
					<use xlink:href="#SVGID_41_"  style="overflow:visible;"/>
				</clipPath>
				<g class="st21">
					<defs>
						<rect id="SVGID_43_" x="5" y="4.2" width="74" height="86"/>
					</defs>
					<clipPath id="SVGID_44_">
						<use xlink:href="#SVGID_43_"  style="overflow:visible;"/>
					</clipPath>
					<rect y="21" class="st22" width="46.5" height="73.4"/>
				</g>
			</g>
			<g class="st15">
				<defs>
					<polygon id="SVGID_45_" points="78,26.2 41.8,47 41.5,47.2 41.5,47.2 41.5,89.4 41.5,89.4 41.5,89.4 78,68.4 78,68.4 78,68.4 
						78,26.2 78,26.2 					"/>
				</defs>
				<clipPath id="SVGID_46_">
					<use xlink:href="#SVGID_45_"  style="overflow:visible;"/>
				</clipPath>
				<g class="st23">
					<defs>
						<rect id="SVGID_47_" x="5" y="4.2" width="74" height="86"/>
					</defs>
					<clipPath id="SVGID_48_">
						<use xlink:href="#SVGID_47_"  style="overflow:visible;"/>
					</clipPath>
					<rect x="36.5" y="21.2" class="st24" width="46.5" height="73.1"/>
				</g>
			</g>
		</g>
	</g>
</g>
</svg>
